<mxfile host="app.diagrams.net" agent="Mozilla/5.0 (Windows NT 10.0; Win64; x64) AppleWebKit/537.36 (KHTML, like Gecko) Chrome/133.0.0.0 Safari/537.36 Edg/133.0.0.0" version="26.0.14">
  <diagram name="第 1 页" id="XeqsqCdMuVGsn7kqke2C">
    <mxGraphModel dx="2693" dy="1254" grid="1" gridSize="10" guides="1" tooltips="1" connect="1" arrows="1" fold="1" page="1" pageScale="1" pageWidth="827" pageHeight="1169" math="0" shadow="0">
      <root>
        <mxCell id="0" />
        <mxCell id="1" parent="0" />
        <mxCell id="epqBVLBEWbcsxhhhyzYF-1" value="" style="shape=image;verticalLabelPosition=bottom;labelBackgroundColor=default;verticalAlign=top;aspect=fixed;imageAspect=0;image=data:image/png,iVBORw0KGgoAAAANSUhEUgAABM0AAAJuCAYAAACjcvWCAAAAAXNSR0IArs4c6QAAAARnQU1BAACxjwv8YQUAAAAJcEhZcwAAFxEAABcRAcom8z8AAP+lSURBVHhe7P33W1TZvvaNvv/C+fWE91znes8573OetPd+dnieHdbq1Wt1XL2629Y2K8Gcc845Z0XJQUDJOeckZkUEARETCpIMYCbcZ3xHVSHiFAlFVQH35+qbWTVrzlETpGvO+eE7xvjf5rpOBjP4meMyCYvmTMfieTP1Y6NtGIYZ3MxhGMZmma3OdfNnOmPpgjn6sdE2DMMwDDOcMnfaFHXem6uXRq9bYnSdyjCMY4bSzEahNGMY+8bogoVhmMELpRnDMAwz0tJbaSYxul5lGMbxQmlmo1CaMYz9YnShwjDM4IbSjGEYhhlp6Ys0kxhdtzIM41ihNLNRKM0Yxj4xukBhGGbwQ2nGMAzDjLT0VZpZYnQNyzCMY4TSzEahNGMY28foooRhGNuE0oxhGIYZaemvNJMYXcsyDGP/UJrZKJRmDGPbGF2MMAxju1CaMQzDMCMtA5FmEqNrWoZh7BtKMxuF0oxhbBejixCGYWwbSjOGYRhmpIXSjGGGXyjNbBRKM4axTYwuQBiGsX0ozRiGYZiRloFKM4nR9S3DMPYLpZmNQmnGMIMfowsPhmHsE0ozhmEYZqTFGtJMYnSdyzCMfUJpZqNQmjHM4MbogoNhGPuF0oxhGIYZabGWNLPE6JqXYRjbhtLMRqE0Y5jBi9FFBsMw9g2lGcMwDDPSYm1pJjG69mUYxnahNLNRKM0YZnBidHHBMIz9Q2nGMAzDjLQMhjSTGF0DMwxjm1Ca2SiUZgxj/RhdVDAM4xihNGMYhmFGWijNGGb4hdLMRqE0YxjrxuiCgmEYxwmlGcMwDDPSMljSTGJ0PcwwzOCH0sxGoTRjGOvF6EKCYRjHCqUZwzAMM9IymNJMYnRdzDDM4IbSzEahNGMY68ToAoJhGMcLpRnDMAwz0jLY0swSo2tkhmEGJ5RmNgqlGcMMPEYXDQzDOGYozRiGYZiRFltJM4nRtTLDMNYPpZmNQmnGMAOL0cUCwzCOG0ozhmEYZqTFltJMYnTNzDCMdUNpZqNQmjFM/2N0kcAwjGOH0oxhGIYZaaE0Y5jhF6tIM5FALhN+g/P4UXAZ/xtjEKdxv2KW3DRMm6ofG23DMMzHcVZxYhhmSGaqOtdNmzIO82e66MdG2wyPjMIs5wk2u0Eyirz3jKnj1fXFKIPjYxiGYWwVlwmj1XnPVS+NXrd25FrZ6BqaYUZSnNX1z7RJY/T1kJGvGmgGLM1EmC2c6YxTRw/C6+QxeJ44whjEy+0oThw9jOMq8thoG4ZhPo4HwzBDOiePH8GxI8avDYuo87n3qeNYsWgOZjpNMBRatogIs3UrFsPXw834OBmGYZjBj9sRuKulrc97RtfQDDOS4uN+Agd2bcVsdS1m5KwGmgFLs5nqQm3FgtlofvEcba2teP/+PWMQ+dk8ePwElfeq+XNiGIZhhn1aW9/j6bPnKKm4qx8bbTPU06rS3tamLtS2wXnCaEOhZYtMHfcL/DxPAh0dhsfJMAzDDH7knPD6zRvcrLiHN2/f6udG2zEMY910qOuf4uvX4DpRXYu5WH8oLCtIs3FYsXA23qkPBtIztQ1P8eBxnfkZIYQQMrx5+fotbt97ZH42fDm0ZwecJ/xmKLRskSljf0GAj4f5aAghhNiLDpXye49NTwghNqOstMTxpdnrV6/Mh0s+x+O6RtyrrjU/I4QQQoY3zS2vUF710Pxs+HJw93a7SzN/b3fz0RBCCLEXrW1tuFVVjbb2dvMaQogtKL1ZTGk2HKA0I4QQMpKgNLNNKM0IIcQxoDQjxD5Qmg0TKM0IIYSMJJpfUprZIpRmhBDiGFCaEWIfKM2GCZRmhBBCRhKUZrYJpRkhhDgGlGaE2AdKs2ECpRkhhJCRBKWZbUJpRgghjgGlGSH2gdJsmEBpRgghZCRBaWabUJoRQohjQGlGiH2gNBsmUJoRQggZSVCa2SaUZoQQ4hhQmhFiHyjNhgmUZoQQQkYSlGa2CaUZIYQ4BpRmhNgHSrNhAqUZIYSQkQSlmW1CaUYIIY4BpRkh9oHSbJhAaUYIIWQkQWlmm1CaEUKIY0BpRoh9oDQbJlCaEUIIGUlQmtkmlGaEEOIYUJoRYh8ozYYJlGaEEEJGEpRmtgmlGSGEOAaUZoTYB0qzYQKlGSGEkJEEpZltQmlGCCGOAaUZIfaB0myYQGlGCCFkJEFpZptQmhFCiGNAaUaIfaA0GyZQmhFCCBlJUJrZJpRmhBDiGFCaEWIfKM2GCZRmhBBCRhKUZrYJpRkhhDgGlGaE2AdKs2ECpRkhhJCRBKWZbUJpRgghjgGlGSH2gdJsmEBpRgghZCRBaWabUJoRQohjQGlGiH2gNBsmUJqR3tChIqdZSZs5rV1iWSexbNc90kbXWLA8l226tmNJ120JIWSgUJrZJpRmhBDiGIg0K6M0I8TmUJoNEyjNiCBy6r3K2y550yWvVeT/ppcqzea8MOe5edncYVrfYo5sK5H9JNKGxNJe17YlXdu2RNqR1+TYKM8IIdaA0sw2oTQjhBDHgNKMEPtAaTZMoDQb2cipUwSZCKvnHUCTWtHYCjSo1L0H6rukTm34+I3Ka+CR+l+rWuWh2tGSahVZ/9icGrVtrcoTS9T+9e8+brNr27K97CdtWNqRdfK6HJt6qI+XEEIGAqWZbUJpRgghjgGlGSH2gdJsmEBpNnKR06aIKBFSIshEet1TT+487cDtxnZUNHycsro2lNa24WZNK4ofvceN6ncoevgO1x++1SmqfqvWv8PNx+91StR2sv2tJ+ao/cvrP26zvEGtk9SbtpH9pG2JvI+sq2zq0FKusc1UsSZVcYQQ0l8ozWwTSjNCCHEMKM0IsQ+UZsMESrORi1SYPeswVXOJKLtZ04ar997gYmULzt9uRmHFC51z5c87l3mlT5Fd3IjMG/XILKpH+rU6pF2r1clS67KK65F9s0FtY0puSZPaR+XWU71vQdmzj9o1ta2WZc+Rr7bJkX1vNOi2ckoa9faX7rxEaW07HjSbxJl01+QpnxDSXyjNbBNKM0IIcQwozQixD5RmwwRKs5GJVGvJmGG1b6Erua49eIP8W8+0/Eq8WI24wgeIPXcfceceIOHCQ8Tr5/cQnXcXUXlVCM++jZCMcpxJv4WInEpE5d5BpIqsD8uqQKRaF51fpba/o15TS/U4/ry0d0/lvm476VI1ElXbcYX3EVNwT7cr7UTkViIsuwIR2ZX6WES+Xahs0ZVrD1qA5+p8z/HNCCH9hdLMNqE0I4QQx4DSjBD7QGk2TKA0G5m8U5GqrbsvoLtY5pQ0aTkWklmB08k34Z94A2fTy3Am7RYC1XO/hCIEpZQgUMU3/jrcIy7BN+46glNL9fZ6XeQleMdcVdvdRIDaX9Z5x15Vuab3PZ1UDH/Vjl98kd5PhNvp5GLdtrQh7+OrtvWIuqzbkvUi30SwpV9/gstVL3U3TamOkxk7CSGkP1Ca2SaUZoQQ4hhQmhFiHyjNhgmUZiMPqdKS/zNq3wNlde0oLH+hhVlQagk8o69oqSXxjLqMk+EXcCLsPE5FXNRC7ERoIY6dPYejKiK1vNT28vxIUD4OqYjwOhV+ESdCCnH0zDnTc7XvyTC1LvS8btMn7nqnGPOIuqQFnTw/rvcpwOHgAnip9/KMvqpfC8ko09VmMm5a1TPTJAXq0AkhpF9QmtkmlGaEEOIYUJoRYh8ozYYJlGYjDzldvlB50gpUNAIFZS8Qe+4BTqeUwif+BvwSinEq4grcwi/DTS195HnkFbhHXsWJMKkAuwmv2CL9+rGQCzhyphAeUVf1NvL6sdCLcFfPfeKLdDun1H6n1POAJJFy1/Q2sm9gapl+L9lW1h1VbXnGXodnzDWcjLiM42GXEZJZieTLtcgtfY5rD1txu7EDDe84phkhpP9QmtkmlGaEEOIYUJoRYh8ozYYJlGYjDzldtnQAhbceICi+AO4h6TjkE4cD3rHYcSIcGw8HY81ef+w8GaGfbzl6FmvV8+3Hw7DHPUovNx0KxqpdftioljvdwvQ26/afxvr9gdjtHontJ0Kx+cgZrNsXgD2nIrFLtbXtWCjWHwjEyl2+uo3dav2WI2exZrefXsp+246FqLaDsFqt23gwGId9E3DEPxHHAhIREJWDmndAkzp2VpoRQvoLpZltQmlGCCGOAaUZIfaB0myYQGk28pBJAGRMsyPegfj590kY7zwT451m6YxTGTt1psqMj59PmaEfj3earZ+Pk0yR/WZigrPazrxuvMoE59l6vWWd6fmHbUz7SVtdnk+dpduR/T+s+7Dv75On4ZdRYxCWnK1n/eREAISQ/kJpZptQmhFCiGNAaUaIfaA0GyZQmo08LNJs/0kffPPTKPw2wUnFuTOjJRM/fa6X5oyRqHWy/Oi5eTv93Lzuk32M9uv6/KN1TiouGD1+Kv74xz9i7LhxOHj0KC5evaq/F0II6SuUZrYJpRkhhDgGlGaE2AdKs2ECpdnIwyLNDrj74ftffseYSa69yu92yzT8PtEF33z7Hb766o/493//d0yYNAmlt27p74cQQvoCpZltQmlGCCGOAaUZIfaB0myYQGk28vhYmo01FGRdI+LKsrRPPkizr7/+Gn/605/wD//wD0hLS9PfDyGE9AVKM9uE0owQQhwDSjNC7AOl2TCB0mzkIafLVpWDHn74/ueepZmxxLJ1PpZmf/7zn/GP//iPSE9P198PIYT0BUoz24TSjBBCHANKM0LsA6XZMIHSbOQhp0upNvuSNDMWWPbIp9Lsn/7pnyjNCCH9gtLMNqE0I4QQx4DSjBD7QGk2TKA0G3lYpNkhz4+lmbGwcoRQmhFCrIdJmlWbnw1fKM0IIYQIlGaE2AdKs2ECpdnIo8Ocw14fpJmxrHKUUJoRQqwHpZltQmlGCCGOAaUZIfaB0myYQGk28rBIs0Nefvjh57EGksrRQmlGCLEelGa2CaUZIYQ4BpRmhNgHSrNhAqXZyMMizY5QmhFCRiCUZrYJpRkhhDgGlGaE2AdKs2ECpdnIQ4SZIN0zKc0IISMNSjPbhNKMEEIcA0ozQuwDpdkwgdJs5GGpNKM0I4SMRCjNbBNKM0IIcQwozQixD5RmwwRKs5GHpdKM3TMJISMRSjPbhNKMEEIcA0ozQuwDpdkwgdLM+sjpqK1bWrul++sS2c8SSzXYYEBpRggZyVCa2SaUZoQQ4hhQmhFiHyjNhgmP65pwr/qJ+RnpKyKgRHiJCHun8kZFfuteqrSoNJvzQm34vEvkueU12U62t0T2f22OtPdW5b2KvI/abcBY2jhKaUYIGYFQmtkmlGaEEOIYUJoRYh8ozYYJlGb9R+STyCz5LRMJ1tQG1LcCT94BNW+AR6+BavVi9UvggaQZuK/yoAV4qJ4/NC+r1XaPJWofiexb+xaoU+3UqTdoVG0+Vec4EWwi0kTQDQSLNGOlGSFkJEJpZptQmhFCiGNAaUaIfaA0GyZQmvUPEU9SWSYiq/498Ej9qt17Adxu6kBFfTtuPWnDzZpWFD96h6Lqt7j2UOXBG1y9/1ovr6vnRdXvcENFtil+/E5vX1LThtJaFbV/WV07Kho6cOdpB+4+N0m4hlbTe8p7W+RXX7Hsx4kACCEjEUoz24TSjBBCHANKM0LsA6XZMIHSrH9IhZnIqyfqgciyW0/atQy7cKcF58pfIK/0GXKKG5F1ow4ZRXVIv/YEaVdrkHrFFFmXVVyPTPV6pnqcXdyAnJuNyC1p0su80iYUlD1HYUUzLla24Oq911qkiTyrfWfq4inH0B9EmklYaUYIGYlQmtkmlGaEEOIYUJoRYh8ozYYJlGZ9R4STdJNsaDN1t5QKsfO3m5FVVI/ES48QW3AfUbl3EJ1fhYic2wjNrMCZtFsISilRj8sRmlWBsKzbCMkoQ3j2bUTm3UGk2j4yt1I/jj13TydO5z7SrtZqqXa+8gWKHr5FZVOH7gYqx2CpGusLcrqUHPakNCOEjDwozWwTSjNCCHEMKM0IsQ+UZsMESrO+I6cbGby/5i1wq64D52+3IPVqjRZfQaklCE4rVctSBCQVwzvmKk6GXYBn9GX4xhfBN+46PNU6z+grOJ10EwGJN+CfUAQv87rA5JsITCmBn1rnG3tdy7bo/LuILbiL5MuPkFvSiJuPW1HzzlTp1p/xzUS0yaQChyjNCCEjEEoz24TSjBBCHANKM0LsA6XZMIHSrO+IcJKB/2VA/+sP3iKjqF4Ls4DEYnjHXtOyzCPqMo6eKcCB0zk4FJirn58Mv6DXyXNP9VwkmVvYBRwJzod75GVzLuFE6Hm9FMHmG3dNCzRpUyrX8m49Q9HD9/q9ZXKA/pz6RJrJfkOv0uxbSjNCyIChNLNNKM0IIcQxoDQjxD5Qmg0TKM36jowl9kLl8VvgenUbMosbEV1wH+E5VfBPKsGpyKs4evY8DgTmwz3qCk6EXYBb2CUcDj4Hj6ircI+8ora5jGOhF3BSPfaJL4JH9FUcV8/dwi8hILkE3nE34Gne1ivmGiLz7iLhQrUeC+3S3Veofd2hu2f2B0ozQshIhtLMNqE0I4QQx4DSjBD7QGk2TKA06ztSaXb/6QtkXKlEdHYJQlOvwTf6HE6cycRer3hsOhKG3R5x2KMe73KPxaaj4dhxMhoHfBP169vdorD1eCQO+adgv49p3ZZjEdhwKFQ/P+iXhJ2nYlQ74Tjgk4RjQemq7QwEJ19DQcUrPSFAXSvwUh1Hf8Y0ozQjhIxkKM1sE0ozQghxDCjNCLEPlGbDBEqz/pGQnYexU2bAedYinakzF2LytAWY6DofE1zmqsfzMXm6PJ+nn0+aNg9TZqjnar2sk0yRfWQbtW6C3m6efj5JbyPtqG2mL1RtL8IE5zlYsnYnfMLScL68QVeZvVXprzSTDL3ZMynNCCEDh9LMNqE0I4QQx4DSjBD7QGk2TKA06x+RSan48w+/YtS4qTq/ScabMnq804fHE5x0fuuMs3puSu/WmfYfM9EZv46ZoKXRivXbERYbh1fvRJv1HYs0G5qVZn+iNCOEDAhKM9uE0owQQhwDSjNC7AOl2TCB0qx/RKek47u/jcGYiS6fZtLn4tqriCiyLC0ZO2U6fv5tHP793/4VX331Fb7++s845uaG1ta+z59pqU4bmpVmlGaEkIFBaWabUJoRQohjQGlGiH2gNBsmUJr1j75Ls0/lmFGMpZFJmv0yejy++uMf8UeV//U//yd++eUXvOzH7zilGSFkJENpZptQmhFCiGNAaUaIfaA0GyZQmvUPQ2k2AFkmMRZGpnSVZn/605/w7//+7/j555/R8lKmA+gbcrqUsHsmIWQkQmlmm1CaEUKIY0BpRoh9oDQbJlCa9Y9PpNkgCjOJkTT79ddf1c1f/6SZzABKaUYIGYlQmtkmlGaEEOIYUJoRWyC/Xe9VZNRtyRtz5PG7LpFtZIAhS+S+VCL7d4+sl20s+3ZtdyBtW9ZbjtfStiXyXPa39NDqL5RmwwRKs/7xkTT7RJT1XpgZS6JP8zlp1t9KM/mAOOhBaUYIGXlQmtkmlGaEEOIYUJqRwUTEkkimZpUm9StW3wrUqZvNJ2/NUY/leb1EvSZpbFPbmvNU5Zna77lBZL202aC2kf2lrSfqzXS6ty1Rbcu2X2pb1slrsk3n8XaJrJPXW8zfW3/lGaXZMIHSrH/EpKbju5/H4GNZ1rsYi6Ge8zlp9vxl/6SZ+hzAIUozQsgIhNLMNqE0I4QQx4DSjAwWIpOkMuuZevBYPah6DpQ3tKP0SRtKalpxs+Y9Smpb1fNW3KpTv4f15jS04XZTOyrNufO0A1WqkbsvTG105hlQqV6raGzX+0s70p5E2r5Z+/6TtsvNbVvat7QtbVnalNxR66RtOd5b6njlmC2R45PXq1+ZBJ9Ypf7830NpNkygNOsf0R9JM2M5ZhRjKfTlWLt75tCWZl9TmhFC+g2lmW1CaUYIIY4BpRkZLKQK62kH8PAVtLi6cu8NCsqeI+dmE7KKG5FZ3ICsGw3IVo9zSp4it/Qp8iS3nqvtXuBc+QsUVjTrnK9swcWqlzoX7phT+RLnbzfjnLRZ8gzZNxt1u5a2JbLO0rZu/9YzU9sVpnS2rdrrbFu1e0GtK7zdgoLy58hV+2erY5ZIW/mqjfNquxvV71DZZKpqk7vuvv4fRGk2TKA06x8fKs2M5Vj3iPyxLPuTz0mzl5RmhBDSJyjNbBNKM0IIcQwozchgIFVm0iWz+g1QUtuOwtvNSLtWh9hz9xGRcwdh2ZUIyazQCc28rZ+HZ99BuHotIvcuovLuITr/HmIK7uvIfvHnHyL+gopaxpkj62W78Nwq3UZo1m3VpiWqbfX847arTG0XmGJq+wHiCk3tdrZd+AAxqu0o1bbleC3tROXdRcKFai38LlW9RnlDh+4SKuOo9QVKs2ECpVn/iEnNwHc///6JHDOKsQjqW6wtzdpUhu5EAJRmhJD+Q2lmm1CaEUKIY0BpRgaD9yoN6lfqdhNwofIVUi7XICyrEn4JN+ARdQUnIy7BLezCh4RfVOsu4pRa7x51WW/jGX0VnjFX4RVzTccnrgi+8ab4SNRz71h57ara/rLeX9o6EXr+o+VHbUde1u1L27KftOut277ere3rum3ZTvaRNiztyDEFJN5EeHYlUq7U4OKd17pr5wv1PfdlfDNKs2ECpVn/iO6lNDOWQH2PtaWZhNKMEDISoTSzTSjNCCHEMaA0I4PBa5Wat0Dx41Zk3mjQgskn9jqOnjmHvX5Z2OGZge0eqdjmkaaSqh6nqXUqXunY6ZWB3d4Z2OOTqZKFvb6m7PPPxv6AXHNysN8vG/tUZDvZfodnum5H2usaS9s7zW1LdNuqTcnHbat2Jf45prbVa7u8M/X+0o60scc3G0eCCuARc1WLwMziRpTVd+hJBkQW9hZKs2ECpVn/+JI0M5Y//Q+lGaUZIcQ6UJrZJr2RZvLX2i/lc3TfznJuk/S0HyGEjDQozchgIHehD1qAy3ffIPFiNQKSb+LY2ULs8srAhhMJWH04Fiv3R2HF/kgdebzyQBRWHYzB6oPRWHNI5XAM1h6Ow9ojklisPRqH9cfiVRKw/qhEPVZZo7ZZcygWqw7FqHaiVXuWdk1LS9urzW1L1qptpd010q7KOmmra9vq8Tr1fuvUa2vUsa469OH4ZL3IuMNBBTidUorUq7Uoqn6PR29MEx/0liEhzd5Qmn0RSrP+EdWDNDMWPwPL56TZq1d9l2aWm4kjXkNdmmWYvxNCCOk9LZRmNklP0kzOQzK2powNIldqciaTyGP5y7Ul8rpcnMpAw90j62Uby74tqtFmFVnKc3lN3sNyziOEkJFKm1matVOaESsh51bpqnjnOfRA+zIumHRz3OOXjQ3HErB8XwQW7QzB/G1nMG9bsI48tmTBjrNYsN2UhTtCOrNoZygW77IkrPPxQtXWQr3t2Y/a/GzbKrKtcdvSrqltWSfHuXCnbGvef/sZLNkdpsXZXvX9SDdOGQftUtUr3FcXGH0xTENCmr16+RIdHR1MD3n0pBF3H9YavsZ8PlEpGfi+mzQzFj7WiUizX0ePx5+++gpff/01/uM//gOjRo1CS0uL4fH1lDZzpNLsxyEkzb797jstzP7ylz/jn//5n5GWnmH4/TEMw/SUFy0vUXbnoeFrwymOIs26H9d7lVcqT9s6UP+uAzVvZUp3lZfqmkQtH79WeWNaL6lVqVPb1anlE3Msj2U7vW9LBx42d+CBiixlXY16raFV/Xur93qr0q7S/VgYhmFGQt63turznlScGb3OMH1Nq0qjOo+XN7TrmSdlMH4ZX2ybeypWHojU4mn2ptOYucEfMzb4mSOPTZm5McAceWzKLPVcMnuTOZtPdz6W9Xq7DQGmNtar9izp3rbapmvblnZNbUubKrptUz60bdpf3m/+tmBddSbdNU9FXERE7h0UlL/AnWem6wq5lzb6uXRPSfEgSrMl82ZhIFkwexrWLF+Mssp7ePC4Dncf1tgwtQbPHTMPHtfj0vUSnLt4XT1uMNyGMaVK/VveefAYlfcf415NAwJCozB+sgtcZs77YlytkGmz5mOq8zSMHj0aY8aM0VVmTk7OKL5ViXuPLL/jxsduivn4VSruVqPsQS32HXPHhCmuhu/Xlxh9zxKjbfufuRg7bix+HzMav/8+Bn/9648Ij4pBTcNzg+/VINXDLU+YAUSqa62SR4yj5v5n8qCmHqUVd5Fz7pJ+bLTNUI9c91TXNWHfnp2YM90Ji9V1kT0yy2UKPNxP6s/pqgfqHKTOn3L+uVn5AFfK76Lw5h3kXbuNrMvlSL9YhvQLZUi7cAsZ6nHGpXJkqWTKUr2efaUcOSqy7Ixan6n3vYW0wltILSw1Rz1X6zIvlyHvegXOl9zBNfV+pXce6PeXc6GcE02/J3W4r35ewyvq93oIRa5FGYYZvDxU5zq5Fs4uuKivXeS50XYM86XIZ7b8Dt1R5/QydT69Un5PnacrEJF6BZ5hWdjvGYNNB89g5U4fLN7sgfkbTmLeejfMXfdpZH1PmS/ZYFp2Xf9JW2tVZH2XzPtC+59rW++nMn/jSSze4oGVu/yw5fBZHPSOg09ENqIyriPnaiWu376PinuPUKX+v5LrCKOfleRJ4wvk5Z/D3BmmazEjbzWQ/G8LZrpgIJnjOgWrlsxHbV09Xrx8g2fNLTbMS4PnjpnmV69RXvUAN8vu6MdG2zDmvFD/lipPn7eg5V0rQmIT8cvvkzDJZaZNMnnabIydOAU//PA9fvzxR3zzzTcYN24cqmueqN9x9W8nx2d03J0xH79Kw/Nm1L18hwNuXhg1doDfg/NMTDRngsTJHPVYXuuM0b59ifMM/Pzzz1qW/fTTX/HVV39EfEIS3rW26+/vOcMwTC/youU1HtXW42pxmX5stM1Qz4uWV3j5Rn3G796BGVPHG14n2SLTJo2Fj8cpvH3fjufm82fts2bcbXiB4gfPcb6sAVnXqpF8oQrx5yoRm1eOmLwyxOVVID7/NhIKKpGg1kuSzt9B8vkqnSRLCqv0a3H5FYjJKUN09i1T1GNpK1G9ln7lPgpK6nD97jNU1r3AY3X+a9Lny5YPP7OW4ZZXQyry+8owzOClWeWp+uy7cqNM3wvIc6PtGOZL0Z/b6rwpv0d16nxeWf8cF8obEV9wGz7RF7DfJwXrD4djyY4AzNvojVnrPDFjjTumrz71adYYZ+Zad7WfB2asPIHpK46Zc7zz8bTlpnR9bnn8cWSfvkXamqGWM1edwLx17li6zQ+bDoXgkE8SAmPPI01di9yoalLXMi/wsqUZb16+xNvXklc677oF7e24ceUiZk74FQtc1PWYywSDqPUzphpeR30p1hvT7LWMaEF6oqb+qTakpG/EpJq6Zxp3J7R+LGOa/fEPf8BXX32Ff/u3f9PVZs39GLdP+qDLrB8HPfo/ppnukjrRBaMnuOC38U46o8Y7Y9Q4c9Tj31RGT3DW20mM2uldPoxp9ifzmGb/+I//yDHNCCH9ouXVa1TcfWR+NnxxxDHN5IxV+w56BqoLlS3IuPYEsYX3EZFTiZDMcpzNKENIRjlCMysQlnVbR2bjktejcqsQlVeFSEnuHUTm3FGv3Vb7VeBsehmCUksRlFKil9JGhHo94UI1cm424fr9t7j7HGhq79usV4QQMhyQCQDkvCfd1AmxBm0q9a3AzZoOpKlz+emkm3pmShl4X8YTk66OLmt84LTKq1dxVdtOW+uLScs9MHrhMUzZEgbnXXFw3hlj2+yKhcvuWMzYn4h5R9KwyisfO0Kv42TaXYRff4GcavU9vwDutgD3v5SXQFZRJVwXrcSsFRsw2yirNmPO7JmY6zzB0Gv1FM6eaUM4EUD/sJc06z4RQHM/Z88ciDSzCLMxE1wwSkuzqRg1zgm/jpuKX8eaMko91tJMRcs1kWb9FmecCIAQYj04e6Zt0l2aWQYNvtcMXHvwFhnX67T48k8shkfUZZwIvYDjIef1zFvHQwr12Ciyzi3sAk6GX4B7xCW4R15WuYRT6vGp8ItwUzmutpF9DgcX4HBQPo6opbQj2wYkFWvRlnWjAUUP3+GhuiyUyQJ420gIGUnIWGZy3uPsmcRayEQ7deqGsvhxG1Kv1MI/oRj7/XP0LJQyntn09X5wWeNtKMi6RmSZ82pv/Dr/KH5bcBRfOe/Efx+1CuNP38aMzDeYlvLSanH9QrpuNy31FaarzEh/g1mZbzE3+z0W5LVj0Tlg6XlgucqKL2TlRWBx3nu4JjRiWlKTYVzTX2D2ul2YN/k3Q6/VUyjNbAilWf+IdRBp9rKf0kxmHjvo7ocffumHNDNLMJFiWpaNnYJffp+Cn8dMxt/M+fn3yfilU5454bcJzgMQZ5RmhBDrQWlmm3SXZvJX6WcdQKX6cv52C+LPP9BSSwTXPv9s7PBIw7ZTKdh6Kllnm3sKtrunqvUqnpJ07PLOUFFLr3Ts9ExT69Kw3cO0z2a3JGw6kaiXsu9u30wcO3sOfglFiC24h3Plz1HR2I5GdSBysU8IISMFSjNibeQ8Wv8euNlFmu3zz8FaszSTAfWNpJmzZbnaWwszkWXfTt+Lv/t9Hf5uzFr8t99W4T/9vAzjQh9h5gVgWt7A49o9ud3S5bVP9jVv45JjinM24JTV+8j20/I/bdcS14vA7E0HMXfyKEOv1VMozWwIpVn/iB/i0kwqzQ71o9LsQ7dMszD7faqWZT/9NhF/HTUBP/5qjnr80+hJWp6JVJNtdVfNbu31LkbSTLpnpuvvhxBC+gKlmW1iJM2ke2RFYwfybz1DVN4deEZfwT6/bC271hyMwcr9EVi+L1xnxb4IrNgfqdZZEoXVB6M7s+pglJ7ZSl5bIfvsDcOyPaFYppYrD0Rg/dFY7PJK01VrZ9JuIf16HYofvUfNW+CN6ZAIIWREQGlGrI2WZurLzdp23T0zIOmmWZrFYeGOs59IM5FkEnnsstoHoxYcxZ9dd+N/jF2P/zJq1Uf5z78sx7iQh5hZCEzLGVhcuyYbcJFkdYtaJ69ZtjNqZ9CivsfZGw9Qmjk6lGb9I2GISzP5oOuXNJtoGp9MKsekG6ZIsZ9GT8QPv47Hd6qtb376Hd/8dYxefvfzOC3PpPJMxJlUnI2Z6GzYbs+hNCOEWA9KM9vkc9KsXE9P34TwrNtwC7+A7Z6pWoIt3hWip3ifuyUQczYH6uW8rUGdmb81WL++wBx5LOvkNcs+czafxlwVeX3pnjBsOB6PAwHZ8Isv0uObXbn7RnfR7PuZkxBChi6UZsTaaGmmTuwlte1Iv1b3YUwzA2kmsmyqWk5YelJ3v/yTyj+P3/iRKPuvv602xSLNQh9i5nlgWm7/8jlZ5izJMMUls0vUeos4M5RbgxVKs6EBpVn/SErNwHdDWJrJzUt/pZmla+YvY6fgb6MnaTEmwuwvP47Gn77/DV9996vKKPxZPf/2b2Px11ETdTWadNUcPUHEWV+7aFKaEUKsB6WZbfLZSjOzNJOB/6UKbOvJZCzfG4H5W4Mwa70vpq9yxzRzpq+WeOjMkKwxZeYamZHL9Fi2MW3vYdpHZdZabyzcchpr94djn1cq/KIvI6nwHq7ffYVadWkoF/uEEDJS0NLsLqUZsR4fS7N6nE4u0WOayUQAIs1kIgA9XtkqL0xe4YE/uezCv0zYhP/y22qzKFNLiyjrGitJMxFSncJMRFmmirp1dEpTSTUtnS1R6+X1j6rNurSj0/WxNUNpNjSgNOsfQ12aCUe8+inNzDNmyphl0gVTKsr+8tcxWpb9x19+xr//+W86f/z2F3z9w29aqP31t4n4+XdLN01KM0KI/aA0s02MpNnTDpM0yyt9qmfIPHqmAJtPJGDprjDMURfY07cEw2V3/CezWbnskhmtPsR1d+yHdZbtzI9l/bS98ZhzKAVLT2Vj4+mLOBh7C355jxF/6y3O1ZpmvrqjUqVy+znQwP6ahJBhDKUZsTZamqkvH1Wa+Ztmz1y4I6RTmkm+mb4H//nXVfjPXSvKPhdrSLOcLsLMIstElCUDU5OAKWo5JbEDUxI6MDXFJNBcLZVmKlpmGbU70FhEWdfHlGZDA0qz/jGUpZll1rABS7Pfp+gqsm9/+l1XmIkw+9c//YT/9dVfVX7Ev339kxZnItS+/3W8rkqTMdB+G2eaUdOofcNMnqaWlGaEEOugpZm6eRjuOJo0k3OPSLPKpg7klz4zS7Nz2HQiAUt2hWL2Gk+4HM6CU8obOCW8/DSJfUjSSzgnvYJr8mtMS32DGenvMDurFfNyOrAgH1hcACwxZ4a6aA27YzpGQggZjlCaEWtjkWY3a9qReu1JZ/fMdV2l2VofTFvriz9M3Y7/85cVxpKse6wozaTCzMlcXTZVRFkSMDm+AxNjWzEprg2TE9pNMk0qzaS7ptq+U2rZKup7nL2J0szhoTTrH32RZpbB87+YSZ8XSYMhzQ73Q5pJ5Fg7pdlvE/Ht30SajdLVZf/zqx/xL3/4QeV7Lc5kna42U9vIRAF6YgDdTdP0PRu135nJllCaEUKsB6WZbWIkzZ5bpNmtZ3pMM+meudktEUt2h2LWane4HM+HU766gJUL3e7J7numqv10MtXFsspkdVEsmaROH5b8rC6ifcpMx0gIIcMRSjNibWRSuTr1pfhRG1Kv1sI/UWbPzNazZ3btninS7I9OO/CfbCXNRJip878WZup8L1JMqskmJ0DLsnGRrzAh+i2mJHVoiSaVZ7KNpXtmZwWYUduDEUqzoQGlWf/ojTTrLstk9shP8+F1S4zacpRKM4kco0wEoLtn/jYJ3/1trBZjFmn2z3/4Hv/8H99rcfavf/prZ7XZD7+M12ObyQQC8r1/7nvV6RRmEkozQoj1oDSzTYyk2Qv15c7TDhSUPUd4diWOh57HFrckLc1mr/GAq0gzdRHppC5ebZXf1MW0X7npGAkhZDhCaUaszTuVWvXlRnUrUi7Xwi/hgzRbsP2MfaSZCDOLNFPnd+mWKRVmkxM6MDHqHcZHvcXEmHeYGNuGyXHtmBzfjqkizNR2lokADNsdzFCaDQ0ozfpHT9KsqywTKWYRZFKd9Wm6CDTzPjrdqs4crdJMjlfkl3S5/P6X8XrQf+me+b/+9Ff8yx+l0kxFLf/165/wh2/MXTTVdqaZND8jzT4SZV1DaUYIsR6UZrbJ56RZ1bMOFJSLNJNKs/PYcjIJy/aEYc4aT7gez4NTnrHcGqxQmhFChjuUZsTaaGn2FiiqbkXy5Rr4xd/AXr9srDFLM5k9027SLAtwkSqzNGByIsxdMVsxUS0nxbVjQvR7TElqx9SUjo9m0qQ0I5+F0qx/xCWm4j+++UlLLxmoXosyldGSiVKJZarGGqVeHzXeSUe6JYowkgotiTyWdfKaCLRRanvZ57dOcWYWcCq/T5mOn38bjz/8x3/gq6++sq80m+Siv0eZDVMqx378dQK+/n6UHsPMVGX2nR7XTKrO/k1PCPBr7yrNDIWZhNKMEGI9KM1sk+7STGhWufscOFf+AhE5lTgRdgFbTyVraabHNDtme2k2mtKMEDLMoTQj1sZSaVZU/R7Jlx7DN74Ie3yzsPpQDOZvO4MZ6/3gssYb09b42FaaZZukma4yU+d3qSSbmtyBKVqeiTB7i8nxrZ2zaHbOnKn2NWxzsENpNjSgNOsf5y5cwuIV6zDJaTp+GjUW4yY7q7hg3CRn/D7RCb9PcMKYCVMxerxkCn4bNxm//j4Jv46ZiF/GyNL0WNbJa7LNaLW97CP7j1UZN0m1N9kV41W746dOw+ixE/D9t99qafS//te/2q17pkSElwi+v6nv49u/jlHPp2HclJkYM2kGvv95vO6e+W9fm2bQlPHOZLIAkWtamukxzXonzcbqTMNYSjNCiJWgNLNNPifN7j0Hzlc0IzKvCm7hF7HNPaVLpVm+zaSZXCRLKM0IIcMdSjNibbpKsySRZnFF2O2bidUHo7U0m77ODy6rvTFtrR2kmZzfRYaZI7NlTpbZMhPb4ZRiqjCTdc4ya6a5Os2wPVuE0mxoQGnWP968eYOnT58hIjICu3fvwuRJEzF2zBiMGzsGY38fjd9Hq4wZhTGjR2H0qFH4bdSvGPXLz/j1l7/hl59V9PIn/XjUrz+r13/BmN9+VfuN0vtLOxPG/46JE8Zi0oRxmDRxHCbK83Fj8NNfv8d//Nu/4ocfvkdLS4v5iHqPNaSZRCYCmOg8G7Pmr8DeQ6dw0usM3L3PYNueY/h59GR8pYXZb/hGumb+PE5PGiD7/DbOqVfSzCTMKM0IIdaF0sw2MZJmcsa63wxcrHyJqPy7OGmWZsv3hmPOWttIM4ssozQjhIwUKM2ItZGJAJ70IM2k0sxZpJmdKs1kjDLpdqlnzpSKsowO02Nz9ZlUmfVGlrnINUmXOKsYbdfvUJoNDSjNBkZr63s8f/4MoWfPwNfPB94Bfjjh5Yf9x7ywfd9xrN26H0vWbMecJRswbd5qTJ25HBOnLcF4l8UY67wQv0+VLMBYp4UYp56Pd1mESdOWYuqsFXBV289evB4LV23Dqk17sGnXEew54oEjJ31xzMMbJ7088ebtW/OR9B5rSDORXpNcZmPXATd4nw6HX1AkAs7EdGb/YXeMU9v9+MtY/PDreF1lJuOZjRrnpCvUPifMPoiyrqE0I4RYD0oz2+Rz0uzeC5M0i8m/B/eIS9jmnoplgyjNukuy7qE0I4QMdyjNiLXR0kx9ufFIJgKogV/CDft3z5SICDPLM4s4k6WMcSaxPDfcVyJSLF+lQF1DqCzNfI5tqfewOfUhtqbex+qMekxV27ga7dufUJoNDSjNrEObOhm9aW1F4/tW3HnaiktVLUi+VI3A5Js4GpyP7aeSsfpAJBZtD8acjX6Ysc4brqs94bzKA06r3PVS4qIyba03ZqptFmwLwqoDEdh6KglHgvNwOukGki4+xGXVdpV6jwb1Xq3m9+8L1pBmv46dggVL1yIwJA7+wdHwDYxSidTxC4rC6bOx2HvgJFxcZ+Pn3ybgp9GT9FhmMsabnvCge5uGsswSSjNCiPWgNLNNeiXNIk3SbPm+CMxd5wXXE9Yb08xIkBmF0owQMtyhNCPWRqRZnfpSXNOG1Ku18E8s1hMBiDSzTARgF2lmibmKTHe/lOozcz7ZrmtElqnMSH8J10NRmOeVCe+kKwiLSsbZqDSERqXALzYPe5PLsCzzmb5eMWynL6E0GxpQmlkPOQ09V6lSXy5WvUbChWr1AXITBwPzsPFEIpbtjcC8rUH6Q0RmEpF+3k6rvFQ8zUtT9AfMOl/1P9BpLNoVgrVHYrDbJwPuEZcRnlOJ3JKnuPWkA7Xqg0pGNOvr6U+kmWSg0mzR8vUICo3vlGVdYxFny5avxaTJzhg7wclcZWaa5OCj9iabYizMJJRmhBDrQWlmm/Q0ptkFkWYFIs0uY7tHmlWlmZEY6ymUZoSQ4Q6lGbE2UrhRr77crG1H2rU6+CfdxD7/j2fPdLH17JlGMVeeGb7WNVI9lv0OUw9EYOySXZgxYx48fM4gIiZNS7OuiY6Iw47kKnW90mHcVl9CaTY0oDSzHtJRsqENKG9oR/6tZ4jMrdQ3BLu80rHqYBTmbw/GTJl+d603nEWUrfTA1BXun0TWy+sycOLsTQFYvDME64/GYa9fFrxiruobjfO3m3G7Sb2f+rCSgRj7gpwuJYc9BybNFi5bpyvNjKSZRLppbty0DQvmLcS06XM+HcdssinGoqxrRJq5UpoRQqwCpZlt8llpZqk0U+cyj6jL2OmZhpX7IzFvvTemncjX3R6MZNiXYiTEehNKM0LIcIfSjFgbkWZy31uipdkTBCTfxL6AXKw9HNcpzVwdQZr1MtPVe03YF4FfR43Ft9/8gOkz5yM6PkNXl3VPRGQiTsdk666bAx7jjNJsaEBpZj1EmtWpT5BbT9qQc7MRoZnlOBF6Xk+nrwc53nwa09b5wHn154VZZ7qIszmbA/XMYpvcEnE4SLpp3kTqlRpcf/AWD1vUTUhH36rNZFspqT3kMTBptnjFBpwJSzQUZhL/4Bjs2rkXa1evwaJFy3S3zM42JptiLMksmfZhqfahNCOEWANKM9ukp4kALlW9Qnzhff2HIKmkXnMoGou2+GPGqXP9kmZGMqy3oTQjhAx3KM2ItWlTkeKNkiftSL9eh8DkEhw4nYd1R+KwcMfZoSXNcoAZV9X1wLL9+OHrv+DP3/wI1xnzERWfaSjNJFGR8Vib/kRfsxi22dtQmg0NKM2sh0gzGRCxtLYN2cUNOJtehqNnz2GzWyKW7g7FrI1SZeYFp5W9kGbmiDibvs5XV6mtOhCJHZ6perax8OxK5JU+RVldu37P16ZD6BXylwE51oPufvjhl/5Js1HjpmL63CVw9zmru2F2F2Z+QdHw9g/F/n0HsWPbdqxetfZDldkncswoIswsmU5pRgixGpRmtomRNJMhBR6qL9fuv0XSpUfwSyhSF9m5+jy5avdZzPW6iKnqItJIjBnFSIL1NZRmhJDhDqUZsTYizZrUr1Ppk3ZkXm/oJs1CTL2rhog0m35OXVNE38PfnBbhu2++x9d/+eGL0ky6aK5Lr6U0GylQmlkP6Sb5pFU+PCzSrBxHz5zDphOJWLJLPjz84LJapFnvhJklLmu8MHOjPxarNqSb5n7/bPjGXUfixWpcuftajw/zrMMkw3qDbPdG5cApPz27ZXch1puIABs90RlzF6/GKe8zupumjGPma0lAGE66ncKRQ4dw5OAhbNm8FaMnuZiFWE/pKssozQgh1ofSzDYxkmZy7ql5CxQ/akXG9TqEZJTjVPhFPQ7KrlMJWBZ0A5NzPpVj1hJkRqE0I4QMdyjNiLWR8bGfql+nsvp2ZN5oQFBqKQ4G5mP9sXgs2jm0pNmMQmBSYAl+HDcN333zI/705x/hOnMBYhKzDYWZdM/0jjuHhVmv4GzQXp9CaTY0oDSzHtLl0TKmmVSBhWVW4HhIIbacTDJVmqkPj/5IM9lexkGbuyUQK/ZFYKt7smr3nL7ZEDlXUtOKGnUnIn/Blw+wL2ENaSYRcfbbeCfMW7IG67fshY9vIE4HnkFAwBn4+fjB6+RJnHJzw9HDhzF/0TK1z5ekmZEwk1CaEUKsB6WZbWIkzeT806jOk7cbO3DhdrP+409Y9m34Jd6AT+R5bIm9g0lZlGaEEGJNKM2ItZF7TinaKG/oQFZxI4LTbuFQYD42HEvQ0mzWxoABSbPxoQ8x6zwwPdc4FunU9fFAMr2wHb/O34Zv//QXfPfDrxg3wQlH3XwQEZeBsOhULctkEoDwqCTERMRie8pdTJXZNg3a6lMozYYGlGbWQ8pUxbhXNnXgXPkLROZUwi3sgh7TTMYkm60/PLz7LM0k0k1z5no/LNxxBmsPx2Cvb6YeCya24J668WjBnacd+kZExN2XkJsWqYo7NIDumZaIOJOI9FqwZCU2btqK076+8PbwgLe7O9au34g5C5Zg3BSRX90lWfd0l2WWUJoRQqwHpZltYiTN5CJbxjWrVpdn8tfpy3dfIbekCSmXHyO18C6O5NRjQqZtZJkllGaEkOEOpRmxNhZpVtHYgZybTTiTXobDQSZptniXDEs0uNKsLxE5ZVl+LtMvAr+vOYZff/wrxo+diMnq3nTBouXw9D6NyKhEhEcm4Ex0OkKiUnEq/iLmZb0eeJWZhNJsaEBpZj3kNPRcfXjIIMcX77xE7DmZGeyKeWawCMzdfFpXjDmt8jQUYz1Gqs3WeKv/qQK0gNvsloQjwfkISilF+rU63Hj0Ho9em25G5EOsJ+Q4RZwNZCKAj+OCMSq/TXTGBOcZWLBkBeYtWoZ5C5dhkno+Rq03lmRdYyTLLKE0I4RYD0oz28RImgnyx53n6kRU9xZ6eIGyJ20oevgWJfdfwr/oDcapj3YjuTVYGZ1KaUYIGd5QmhFr85E0K3mqhyU6HFyAjccTP0iztY4hzXqVfHVNEPkALqv2Ys6i1Vi5eAk2rlqBvQeP4+TpCPhHpWJd+hOszGjAwqwWuKh9DCVYX0NpNjSgNLMe8uEhXSRFXsnMlskyyHF8Efb5ZWHtkRgs2B6M6et8tDTrb7WZnhRgWzBWH4zGTq90uEdeQmTeHZwrf46Khg7Ut5qqyHpCTpdyrEc8rSTNJn+IyDMZ68xSgfblLpkSI1HWNZRmhBDrQWlmm3xOmglSmS1XaE/VgydvTZVnda87EHGnA+PSPhVbVk/Wh1CaEUKGO61t7eq894jSjFiNL0qzTVIsMoSkmaRAJakJc8LLsfmoPw57B2Nj1HXMTWnCkoxnehtXcwwFWH9CaTY0oDSzLjJW2JN3pskAsm404Ez6LRw9U2CaQXOPaQbN/oxrZonsK20s2R2CDcficfB0DgISb+iuLTIb2YOXwAt1DHJD8iWOew1Qmk3+fIzlmCUiwizL3oTSjBBiPSjNbJOepJkgF9xSdSazPzerJ/I4Rf2zjE3pIrcGI12EGaUZIWQkQGlGrI2xNDunpdmS3aGYraWZL6YPJWkmKQBm5AFz05uxILMFs3Pb4JoPuKp1htv3IiLHLMtPQmk2NKA0sy6Wcc3uPAPOV7QguuAePCIvY5dXOlYejML8rUGYttZHV40ZSbEvRWSb7D9vSyBW7o/Edo9UPW5aeNZtPfnArboOPFF3HnITIh9mPeHm5Yfv+yrNJn8+n8oxoxhJsS+F0owQYj0ozWyTL0kzC3KustzG5dQAY6wpzboJMqNQmhFChjuUZsTayG+SZfbM7OImnEkr05VmljHNRJpNWzcEpZk508yiTMSW0etWC6XZ0IDSzLrIxb+li+aN6ndIvVqL00k3cSgwDxuOx2OxnoLXb0DVZs6rvPSkAIt2nsW6o3HY758N3/giJFx4iMtVr3H3hfoQUwci45b1xKm+SrPJn4+xIOseIyHWm1CaEUKsB6WZbdJbadaVPGtKMwNBZhRKM0LIcIfSjFgb+U1qUl9u1bd3mT3zY2nW70qzn5djfNhDzLpgFkuWKi9ZWtJ1/VAOpdnQgNLM+siYYg2tpin1C8qeIzL3Dk5FXMQOz1Ss2h+JeVJtJmOb9VOamarNvDF3y2ks3xeBLaeScezsOZxNL0PWjXrcrGnF47cmeddTtZl7X6TZ5M/HWJB1j5EM620ozQgh1oPSzDaxuTTrLsSyDdZZIq+ZMzqN0owQMryhNCPWRnpXNakvt+rakXmjAUGpt3AwMA/rjyVg0c6QgU0E0FWadRVl1oiRuLJnKM2GBpRm1kdOR80qMrBx0UOpNqvB6aRi/UGy8XiC7uc9a1OArjYzkmK9iXTvnLHOFwu3n8Gaw9HY45sBz+griC24h/OVzbjzFGhUH2QyRszn6LU0m/z5GAuyrjGSYH2NWZp9Q2lGCBk4lGa2SX+kWfajDvya0AaXjDY42yijk9vgV/alAQ0IIWToQmlGrI1IM7nXLH3SjoyiegSmlOKAutdddzQeC3dIzyp/uK5xQGnW1xiJLmuG0mxoQGk2OOhqM/VBUtnYgXMVLxCdVwWPqEt6bLPVh6L1DJjT1/vqmTSNpNiXItVmLmu8MWdTAJbuDsUmt0QcDs5HkPrASr9ei6Lqd1ratajj+NzpsVfSbLJxjAVZ9xgJsP6E0owQYj0ozWyTvoxpZlFWN+pbMSv5OabGPYVLvG0yJrIJ/jcGdr1o+R66fi/WYqi2TQhxHCjNiLURaSaVZiLN0ovqEJhSggMBeVh3JA4Ld5zFjA3+6l51GEiz3kYEWNfHvQ2l2dCA0mxwkItPEVYytlnxo/fIuF6H4NRSHAnOx2a3JCzbG4Y5m09r8TW1v900V3li+jofzN8WhFUHo7DTKx2nIi8jKu+O7hZa0dABdf+Bt/qIPuWL0myycYwFmVGMBFh/QmlGCLEelGa2SU/STM6Rcusmf2CSiWteqhWvVGQGap8bLRgbUQ+X2MYuaTB43pd03ffjjA2vg0+RDGhgOh6p0JbIuKDdIzcJspTX5dwqxy7HLFebEsv3YVkvke0kPbVtaVdi2La5XXnctc3ubX+uTUssbVuOrbNttbS8n1G7XduWfzdLCCFDA0ozYm0+kmbqPtdYmnmPHGnWn1CaDR0ozQYPubiUqXjvPQcuVb1G/PmH8Im7hn1+2Z0fKDKgvwzsbyTFehPZd9ZGfyzZFYINx+Jx8HQOAhJvIPnSI1y79wYPWoAX6hjkg607J9y98Ze/jsboCS4YM8n1QyYbxyLMuks0U6b1GGMZ1tuYpNlf/vINpRkhZMBQmtkmPUkzkTDyhyW54H7yzvQHpocvgefqBb/rzRgV/AhTwmvMqcWUCBVZWh73NZZ9dSztmjIq+DHcLr3Q8qhBvb8ljeokLsf3VC27pklFXqtTx10reQvUvFHXU+p7kO9DlvJc1kvk+6tT7dWbI2Oeyv5Pu7QtbVoe67bVdt3btsTSpm63S9uWY5buMl3btkS+F3nvzrZVu51tq8tlS9uGx2xuW9p4ru655bpCNKPajPKMkCEApRmxNvKbpCcCkDHNLN0zT3fpnqnuT3X3TBVKsx6ivkctzSZRmjk0lGaDRzs69EW4XJSW1LYiu7gBIRllOBFSiG3uqVh5IArztgVrA9/fSQGmrpBJAXwwb0sgVu6PwHb3FLiFnkdoZjlyS5rUB1mbvvhV18KfcKO4FPMXLsGEiZMxcfLUAcapSz59fcIAM3HKVPzyy8/44x//oPP3f/93SE1NNX8nhBDSeyjNbJPPSbNWlWZ1bpRz070X0FXRNx+/x/WHb1Hy+C1iil/gcPYTnMir13HLb4BbQSPczjXilKSwER6FT005r3LhGTwvPP8kst5dvX5S7aPbkOQ1fGhXt12PozkNiLnZjMqGVpTVqdS3oVyloqENtxvbUanuCu40dejIY8ntBnUDqs6vpercLsde/Oidzg1zpMK8pMYU2ab0ialtabdctVuh9re0XanbtcTUdpmlbbW/tGVpV2blLlbvd7NWtS3tqtyStrscc4Vq99O21WO1Tt63s23VbvFj83Grdk1tv9PvaTnmD8etoo+5A1XPgPvN6vpRXduIoJMrbbUghDgwlGbE2shv0lP1pUxmz7zR2DkRwCfSjJVmPYfSbGhAaWZdXr9+rZOYlIZjJzxw9KQ39p/wxM6Dntiw0w0rNh7EotW7sXT9Yaw9FIWF24Mwa4OP+lCRbpr9G99MJhSYucEPi3aexbojsdjnl6Ur2uLPP8Clqle60u2pukGRG5Xu3LpVitTkZCxdtBDz587GgnlzrZA5/c58w6jjmj8H8+bOgrPTFLg4T8UPP3yHrKxM83dBCCG9h9LMNvmcNHujIkMHVD0Fbjx8jwuVLcgpaUTatSdIvVqL1Gu1SNd5gozrT5BZVKdnhs6+2aDSiFy1bX7pU+TfMkWGIzhX/gKFt82pMOVc+XP1+jO9n+yfodqR9tLN+ajtYtV2caM6jibkqTYlsq+0LW2dv91salO3a2n7KXLU8chf2GUIBol0UTG1XY9M1W6WbtcU+UNWXukz03GrdgtUG9JeYYW03Wx+bGpb3l++V1Pb9Z3HLD+T9O5tq+1ySqXtD8dsOe5C83Gb2n2h3zO3RLWtvtePjvuaRI67Trdt+Xlk32wyHbf+mUjbL/S/19X7b1BS04pKdXEhfxj8XEU7IcQxoDQj1qZTmjV06PNFsNHsmZRmXw6l2dCA0sw6ND19hmvXi7Ftx35s3XkQU6ctwM+jp2LU7874VUWWv6jnP4+epJaTMWa8KyZPX46JrkvhOmcVpi0/BOeVJ+G00gtTJSt6X3kmVWoi3eZuPo3le8Ox9WQyjp09hzNpt/RFsVzY1rw1/TXYiHZ1Ar1VWoKbxcUouXlzkCPvMbCUltzE5UuX0NDQYP4OCCGk97xoeYnSOw/Mz4Yvu7duxPhff4DLxDF2yZi/fQuvU8fNR2OiQ+WFyoOXwLWH75FV3ITYwgc4m1EB/6Sb8IkrUrkO/4QbOjLcQEBSMQKTbyIopQRBqaU4o3I2vQwh6eUIyShHaGYFwrIqEZF9Ryc8u1InLOu2er1CX8gHJpeodm6q9oo/ymm1TtqWsVhOq20C1bbBaWUIVu2fsbSv2pH2JfI4NFNSoV4vU8d0Sx+3v2rLL8EUX3XcsvRPVO+n2tTtqshf4aVt2c/UdgVCVFudbWdK+5VqnbRdrif2kTb8VNvSpiXy/OO2S9Vxl5rbLlc/GxX9c1Ft65+Dpf3b+uccnFqm99Ftm49ZH3f8h7ZPJ5nbVsfw4bil3QpE5FYhrvAhUq/Vo6C8GTcet+GBusBoUf+4vB0nxDGhNCPWRn6TmtSXW1Jp9jlpttaX0uxLoTQbGlCaDYympqcovlmKzdv2Y86CVfhtnCtGT5yB8VPnYJLLfExyXYDJ5kx0nocJTnMwfsos/D5xGn4bMxW/jJ6E336fop5Px+RpizFl0X44Lz0M5xVumLLKG1NW9K76zGmlJ2as98WC7Wew5lA09vhkwCv6CmIL7uFC5UvcfQ48Ux9s/EswIWSk8+btO9TWN5mfDV8iQoKwf+cWHD2w2y7Zu30T0pITzEdjQqSZHjvsNXC/4R1KHzzHxYo65BY/RtqVB0i6cBeJ5+8i+cI9Uy6aknLpPlJV0i4/0Em/8hAZ1x4iUyXrWjWyrlcju+gRcm48QrY5WUXV6vVqva3sm3Lx/kdtmqLWS9uXP7Sd0aVt2V/asbRpaVfeL/P6Q9227C/tfNyuQdvq+/tw3LK/+bgtbavjz5JI2+bj1sf8SbsGbctxX/1wzPq4zT+TD22b1sl2aZbj7vrz6Hz8advpum3T/vJvVVj2BFfvNOJWdTPu179D/csOvOQ1BiEOC6UZsTbyea+lmYxpdqOhs3smpVkfQ2k2NKA06z91dfXYe+AYps9ZhnFTZmtJ5jJnOabPX4VZi9Zi9uJ1mLN4PeYuMWX24rWYtXANZs5fiWmzl8Jp+kJMcpqNcROnYdSYSRg1ehJGj3PBFOc5cJ23HlMX78eMFVKB5oEpvei66bLaW/1PF4Cle0Kx+USCnqkzOK1Ud7WQajMZ3NdobDNCCBlJiLhpky/DnOKiq8jJTEVBbqZdkpOegtvlt8xH8ylv1b/BC3Veqmluxd3GN6ioeYWS6hbcfND8SUoeNqO0WkWW+nELbj0ypezRS5Q/lrSoNl52RtbJa7fUtrK9tCExartEt622U5HtLW1LdNs1H9qWx/JeZSqyrRyzUbtd2y6RtqXdrm3rNj4cr6lt0/chr5dK1H6y7+falp+JXhoct6ntLsdtfj/Lz0Qfcw/H/eHnbWrb9HNuwe0nr1DV8BrVz96hsaUdLe9MEwIQQhwXSjNibUSayeQyJU/a9fAHUg1uGdOsqzSbTmnWcyjNhgaUZv2j9kk9du09grGTZ2KS60LMmL8a85ZuxIIVm7Fw1TYsXr0DS9bswNK1O7GsM+r5mu1YsmoLFi3fhPlL1mH2gpWYPnsxprrOxbhJ07Q4GzVmIsaNd8LkqTMxc/YiuC7YAtelB8xjnkmMu25Ktdn0db5YsC1YV5vt9smAd+wVxBXex6U7L3H3BfC8g38JJoSMbF69eYv7NfXmZ8MXjxNHsGTudKxZusAuWTjbBWFnAs1HY0LOP83qnu3hi3ZcvvcSSZce666LbqEXcMA/Gzs9U7HtVDK2uiWZclI9Nmf7qZQPcU/FDo9U7FTZ5ZmGXV5p2C3xzvgQ9Vxek212qO1lv23SVrd2ZZ28p6Vt2Vb20ft1tp3epV31WMXSthzLNrWfbq/bcZvaVu/rLsf8cdsSaUPa3NMl0vbOzuNW+3Y9bnN0u4Ztq/1kXzluiXfaJ+2ajjtN76N/1tJ2l1jaNv2cP2Snh+n73uebhcPqxsg94jLOpJYh+VINrtxtwYPn7XihbqB4jUGI4yHSrILSjFgRGStbS7Padj3mpnTp3x+Qh3VH4rBwx1nM5JhmvQul2dCA0qzv1Nc3YPe+o5joNBfT563E/GWbsHj1di3Ilq/bjZUb9mLVxn1YvUll836sMWft5gOmx7J+4x6sXLcDy1ZvxaLl6zF34UrMmL0YU1xmY+wEZ4waPRG/jZ6AseNlZksXOE9fAKe5GzFz8TZMX3EMH+TZxwJNJgWYrT6klu0JwxZ1YS1jm8mMnTJY8a26Dj11/Fvz90EIISMRGdPs1ggY02zfji2YPOZvmDF1vF0yftSP8PFwMx+NCbnIrmuTi+w2ZBQ1ICitFIeC8rHpRCKW7Q3D/K3BmLUpADPW+2PGhg+ZqSLr5S/XEqmqlszZfFqP5ymRWaTnbf04sl62kW1lf2mne9u6/Y2q/S5tz9lk2m/OFtW2yidtq+ey3tK27K/bkra7tC/vp9s2v/9Hbat0bXv+1qDPtm06br/O9nW7um1Tu51tm9u1tK3b/+iYzW2rY9A/D8tx66j2Le1uMP0sLG1LTG0GYuH2M+rfKhwbjiVgv38OfOOLkHTxMa4+eIdqddktEz0QQhwLSjNibSzS7GZNu57IR8YN3R+Qi7VmaSbnE0qzXoTSbGhAadY33rx+g0NHT2HqtIWYs3AtFq3ahuXrd2Hlxr1akK3dchDrtx3Ghu2SI9i44yg2SXYexeadx/RSsnGHen3bQazbsg+rN+zE8tVbsGjpOsxdsAzTZszHxMnTMOb3yfh19AQtz34fNxkTJjrBxXUmXGcvx/QFm+C87BicVpyC00p389hnHnBaZRrbTC5qZSbN/f7ZejDl5EuPcf3BWzxS/0u8VN9Hh+nbIYSQEQdnz7RNjGbP1BfZbUDpkzZk3WhAcNotHDZLs6V7wrSUmbFOXWSv8vgo01d7YvqajzNDx6szM9d6d2bWOlNmrjW91rmfaqd729Ok7dXqPYzaVft3bdfStiwt23y2XRV93KptU5ufHrPEqG3Lccv2sr+05arbNL2P5f1k+bl2JdJO9/Y/vG583KZj/pAPbXvqNuZs8MPCbYFYcyASuz1T4R11CQnn7uFK1Us8VhcY7KpJiONBaUasjZzPZSZskWapV59AJsSRP6SsORyrx9iWP/S4UJp9OZRmQwNKs77QgfLySsyYsxRzF6/D0rU7sHLTXqzdekCLMhFkIsa27D6BrXvcsG3vSWzfdxI79p3Cjv0nsXP/KZ0dErV++x613W61z45DWL9lL1av245lKzdgwaIVmDFrIaY4zcTv46bgl1Hj8etv4/HbmAn4fexkjJ8wFVOnToPT9CWYMW8V5izbCaflx7U8m7rSW304+WDu1kCs2B+hu2J4RF1GjJ4QoAX3mtUNo/pOeMokhIxUml++1mO7DHccWprVtiFTxkBJLYWMgbLhmGkMlNkb/eG6MRAuW0LgvOmsWn6I82bL45CP1rvq5x8iz123hnZZ/2EfacN505lP2v6wjWX7D+s+an+ruW0V/dxyTNJul3RdJ0tX9dxV7dvZrqzTz01tWtLZtjyXfc3LD22b16s2Otu27G9u19KOcduy3Yd8aNfcnrld/VjHvL95e9ctoZixPQxz9kRh6ZEkbPLJxeGoIgTlPkBqaQuu1wMP3gCN3VKv0vze9DtACLE9lGbE2ujzuZZmbUi9Uqul2V6/7tJM3Zeu8aE06ymUZkMDSrO+sf+QG+YsXKPHJ5PKsvXbDunKsS27jmPbXjctyHYd8MCuQ57Yc9gLe494YZ/K/iPe2H9Uoh6rpazbe1htc9Adu/a7Yfueo9i8fT/WbdyJFas3YuHilZg1ZxGcXWZh3Pip+G3MRIz6zSTPRo0ejzG/T9LybMoUZ7hOm4Pps5fCddEOuK44Ade1ProrhUwIsOVkEk6EnkdYVgXOlT/X0kym++cpkxAyUqE0s00+J83kL9Om7pnmgYNP52L90Tgs3H4WM1Z7wMXtHJwTn8E5ugHOMV3S/bk5LoZpNFintpc2zPn0deN9PlofK1HPdSyvm/LRMZlf+3B85n06n6tY2vgo3dq2LM1x7d6GZV3X7dTjznVd8tG6Lvt/FKPXLOvMbUyLU4lvwgz1bzQ75QXmZ7zEkpy3WHmuDWsvApuuAFu6ZbW6KQirMv0OEEJsD6UZsTYfpFk70syVZpRm/Qil2dCA0qz3lJaWY8mKjViycgvWbtmvK8u27D6O7Xulisxdi7K9h0WM+eLgcT8cdvPHkZMBOHrqNI6dCsQxdxX9WK076Y/DJ/xw6LgPDohEO+SOnfuOY9vOg9iwaSdWrt6IRUtWYfacRXBxnYWJk5wxbvwUjB4rs2xOwKjfTN02R/8+Sa+frF6f6jwLs+Ysw7Sl+zBj42ks2nkWG47F6XHNwrNuo7DiBaqeczIAQsjIhtLMNjGSZlJsJGNryozO6deeIDClGPtFmh2J1cMKzFh1Ci4+N+BcCDjn9BwXWyXXtnF1pKgL+s5lt7hI1GsS+fdwygamSrI+zW+pwPES0+8AIcT2UJoRa2ORZqVP2pF2ve6jMc20NNvgPyBpNiHsIWZfAGaoc43EUDgNh1CaDQ0ozXrPcTcvLFq2AWs278GmnUd0ZdnOA+7Yc8gL+476mEWZSLJAnPAMxinvM3D3CYGHbyi8/MNUQuHpF6qeh6j1Z3HSKxhunkE45h6g9vPFgaMe2HPgBLbtPIANm3Zg5eoNWLR4BWbNXqDFmXTJnDTZBeMnOGHMuMn4bbRUn8mEARO1PBur1k2a6KTlmeuSvVi8K0yPE+MWdh7RuXdRWNGMO8+Ap+p8SWk2tJAx6OQyR/7duoaXPoT0HUoz2+Rz0uzJO6D4USvSrtaqi2zTGCgyBqeWZqtPwdm7CM4FgHPWx3GxVbJtG1dHS471My4dOFlq+h0ghNgeSjNibeQ+pNEszTKu15tnz8yx2kQA3aWZtWMosOwRSrOhAaVZ79l38DiWrtqMjTsPYds+N+w66IG9R7xxwCzLjrkHwc3rjJZi3gHh8AuMhH9wNALOxCAwJE4lFqfPxurnst5Xve7tH6a2F4EWhGOnpPLME3sPHMf2XfuxYdN2rFi1HgsXLcOs2fMxbfpsPRHAVOfpmDTFVU8MMFaqz8aYZtqUCjQtz36fiAmTp2HOmiPY4ZkB98jLiM6v+kiayV8HiGNjEWVyk/laRSZwkPHoJC/Ui7KUdW9U5N9TtuUED4R8GUoz26QnaXbjUStSrtR0Dhy87nAMFmwLxvSVJ+Hiff0TaWYot6ydbNvGUFjZKwaiyxqZZs74dOAUpRkhdkNLs3uUZsR6aGmmvog0S+8izdaZpZnM7uzI0uxLMRRcgxFKs6EBpVnvOXLMAyvX7cC2Pcex+6AH9h/1waET/jjqbqosczfLMv/gKC3IzoYnIjQyGeHRKYiMTdMJj0lFWFQKQiKTEByeoLfzD46Ez+kwePgEw83DH4fV++w9cBTbduzFug1bsXzFGixYuBSz5yzAzFnzMH3GHF155uQ8A1PM1WfjJkzFmLGTtDyT8c9Gjx6P8ZOmYdUOL3jGXEdMwV2cv01pNhQQ8SUnorcqIsXk36te3WTWvIGezr9arXzYYlo+fg3Uqdea1A4i0WQf2ZcQ8nkozWyTHqVZtVmaJdzAPr9srDkUjfkizVZ8kGaGYmuwkm2bGAore6WL3LJ2LLKM0owQx4DSjFgbuZeU7pkltSLN6nA6SaSZqXtmV2k2fYhKs54issuyHHAozYYGlGa955ibF9Zu2oNdB07qAf0Pn/DX1WWnvM/C0y8MvkGRCDxrkmUix2ISMhGfnI3ktDykZBToJKfnISElB3FJWYiKT0d4dLLaPh6BITHwCwqHl98ZuLn74fCxU9iz7xC2bNuJtWs3YtmylViwYDHmzVuMOXMWYNaseZgxc66uPnN2mYGpTtPNXTen4vdxkzD6d+m6OQ4TJ0/H3lPhiC18gPOVL1El0qyDYsVRkUsZdT+JFpUm9aT2LXC/Gahs7MCtJ2248egdih6+xfWHb9RN51vcfPweZfXt+t9VhJqcvGRfuTFl1RkhxlCa2SY9S7P3SLnyGH7xRdjrl9VFmrnBxes6XGwlzbJtF0NxZa/kWD/dRVnXUJoRYl8ozYi1EWkmE/vcrG1H2rUnON1lTLNOabbWd1hKs97GUJJ1D6XZ0IDSrPe4uftiw9Z92HvYQw/if9w9ECe9z8LLPxx+QVEICo1HaFQyouPTkZiag7Ssc8jOu4T8wmsovHRD59yF68gtuIzM3AtIychHfHKW2j4NYdFJCA6LhX9QBDx9g3DilDcOHjqGnbv2YePGrVi1ai2WLFmORYuWYcGCJZg/fxHmzF2gu23OmDHnQ9dNp2mYPMUFEyY5Y+zYKRg1aqyeTCAi8yauPHiPu8+BZ5RmDocILrmZlE8sqSyzyLLy+nYUVb/DhTstyC99iqwb9Ui//kSdnGqRoZZZxQ3Iu/UUF++81EKtsqkDj16bKs+k2ybFGSGfQmlmm3xWmqkvxY/eI+XyY/glmKTZ6kPRmLfVRtIs23YxFFb2Ss7gxEiSdQ+lGSH2hdKMWBuRZnVyPn9smj0zILEY+/w/jGk2nCvNrBFKsyEGpVnvOeXpj807DuDAMS8ccz9tEmZ+0h0zGkEhIsxSEJWQqavJMvMu4tyFIlwtuoWbtypRfvueyn2Ulleh6GYFLl4tQV7hVWRkn0dSWi5iEtIRFpOMM6Gx8AsMhYd3AI4dP4V9ew9h27adWL9+I1auXI1lS1dg6dLlWLxoKRYuWKzl2dy5CzF7znzMnDUX02fMhqvrTDhL183JLnrcs99/H48DJ4Nx+e4rPHgJvFDfC0+ZjoP8W0i3SpnVVE4+D1qAioZ2XVFWePsFMm/UI+lCNaLzqhCaWYEzabcQnFqqlmUIyShHVN4dJFx4iMyiOt0FV6rP7ql/ZPnrj3wCUpwR8jGUZrZJjxMBPG5F2pVa+CXc0NJs7aFo05hm0j1zGEgzQ2llr+RYN0ZS7EuhNCPEvlCaEWsj0sz0R7A2pMr5PLFYnc9luIUYzN9GadbrqO9xDqWZ40Np1ntEZG3bdQiHTvjghGeQnhVTBvOXQf5ljLKo+AwkpOYhI+cCCi8VaTlWWfUQj2rr0dj0HI1PX+BJw1Pcr67FrYq7uFZ0S1eeZeaaxVliBsKjExF0NgLefkFwO+mJgwePYMeO3di4cTPWrF6HVatWY8WKVVi+bCWWLlmOxYuXYeHCJeaumwsxZ858zJo1V1efuZrHPZs40QnOrrNRcPMJatWHm3Tfo0hxDKTiTwb5l+oyGZ+s8mmHvpm8eKcFWTcaEH/+AcKyKhCYdBPesVdxKvwijocU4ujZczim4hZaCI+oy/BNKEJIZpnePqe4Edfuv8Ed1ZZIOPkU5CUSIR+gNLNNjKSZXGTL59JNkWbXTLNn7vNXF9mH5SL7w5hmVpNm2baJoayyR3KsHyMJ1tdQmhFiXyjNiLWx/BGsqPo9ki8/hm/8DezxtUizM5ix3g8ua7wxbY1P/6XZRWBGvhUjksqydJRQmg0NKM16j5dPAHbsOYyjbr445X1GD/ovM2HKGGYRMamIS85GalYh8guv6gqz21UP8KS+Ca9ev0WbOllJ3r9vw4vmV6iuqUN55T21XSkKzkvFWaHu0hkdl4KQsGj4nT4LDw8fHD1yHLt378OWLduwft1GrF27HqtXr8WqVWuwYrlFnq3AkiXLsGjREiyYL/JswYdxz2TSAJeZmDTJGedKHuuumVLVROyPXLbIQP8y84wM7C9jk1259xq5JU1IvvQIEdmV+obSI/ISjgaf0zPM7fJKx3aPVGw9lYytJ5Ox3T0FO9W6AwHZOBFaqLs6ReZUIv3aE1yueoXbTe36hMaKM0I+QGlmm3yu0sxImq01z545Y+VJuPoUWUeaZQ9uDKWVvZJjvRhJr4GG0owQ+0JpRqxNpzR7ZJZmcUXY4yvDLZj/CLbODy6rvTFtrQNJsy9FJJZlaatQmg0NKM16T0hIOPbsO4pjbj7w8D3TWWUmM2RGxWUgMTVXj1UmVWbFpZV4UF2rBVlHN1shJ6ynz1tw/2GN7rp58epN5J67hNSMPMQlpCEsIhang0Lh5eWH48fcsG/fAWzfvhObNm3Ghg0bsX7dBi3P1qxei9Wr1mDlitVYvnylqdvmYpM801035y3EXBn3bNY8uLhMx2E3XzxtbaM8cQDk30DGHBNh9qAZKK1tw4XKFj1OWXRBFYJSS+AVfQVHz5zTXZe2e6Rg4/EE/debVQcisWJfBJbvDVfLcKw+GIX1R+O0QDt4OldXnp3NKNMnMKlYu91oqjiT9yOEUJrZKj1JM9098+rH0mzh9jOYseoUXLwHIM2ybRNDcWXr5Fg3RrLLWqE0I8S+UJoRa6OlmfoilWZJl4aJNOtLjARYf0JpNjSgNOs99+/dx6EjbjhywhOevsHwD45CcFg8wqNT9EyZyen5yM6/hAtXilFSVoWHj5+g5ZV0vvuUlldv8EhXm93FlRulyL9wFRlZBUhIykBEVDyCzoTCx8cPbidO4cCBQ9i5cxe2bdmGLZu3YtPGzdi4YRM2rN+AdSLP1ki3zbVYIfJsmYx5tgJLusqz+YswY8YsLFi4FM/fUJ04AnKikaq/6pcmYVZY0axnkgvPvg3/hCK4hZ3X1WM7PFK1LFt9MBpL94Rh0c6zWLAtCPO2BmLultOYozJfPV+0MwQr9odj0/F4dcLKwMnwCziTXqYH2r589zWqnpsmB5D3JWSkM1Bp9vr1a7S1taGjowPv3/ft/6p3797p/W2Bo49plnKlBv6JN7C/a6WZSLP+VpplD34M5ZWtk2PdGEkua4fSjBD7QmlGrI0+n6svNx61mrtndpVmpu6ZztI9c7hKs97ESJJ1D6XZ0IDSrPfITVJYeBQOH3OHu3cgAoIicTY8HuGxqYhLzEJKRgFyCi7jwpWbuoLs3sMaPH3ejNbWj09QUnkmN20y1lnFnXu4XnwLhRevITOnAInJ6YiMjseZs6Hw9fHDyRMncejgIezZtQc7t+/E9q07sNUszzZvssizjVi3doMe88xSebZi+UosE4Em454tWoo5c+Zh+fJVePWWnTPtjaVbpsyQWV7foSvMRG6FZpbDO+YqjgYXYLdPBja7JWLNoWgs2xuGhTvOaEk2a6O/Ogn5Yvo6H30Skkxf54uZav3crYFYujsEa4/EYpd3OtzCL+BsepmebVNm4KxWH4cynh0vl8hIZyDS7OXLl3j48KH6XG/V54RXfbjOkO1ramrw7Nkz85rBxRGl2TsV+eyTi+xUkWYJN7BPDxwcrT7ngjFztXvfpVn24MdQXtk6OdaNkdwarFCaEWJfKM2ItZExSmXSseLHbUjpMrHPJ2OajWRp9qVQmg0dKM36xsOH1Th8xA0nPf3hFxSGs+GxiIhNQVxSJlIyTJVm5y8Xo6ikQo9pVvOkAc+bX+Gd3GCpE5WMa/b67Ts0Pn2OB49qUXb7Lq7fEGl2FZk5+UhMTkNkVCzOnAkxSTO3Uzh88DD27tmH3bt264qzHdt3YNvW7Vqebd28BZs3bsamDRs/VJ5Jt00VS7fN5UuXY8GCRVi7Zh3eUprZHfnLTJO6ZpEZLq/df6u7ZEqFmVfMVRwKytPVZdLdcuX+CCzeeVZXlYksE1HmusYLzqsknh/FVZ2URJ7N2RyAxbtCsO5ILPb4ZsI98jIicu4g/9YzPSNngzq5yU0rISMZkWYV/ZBmFmEmSwsiz970soK3paUFDx480BVqtsBRpVmN+nFdf/hOj93oF3ddXWRn6ovsBdvPYKbuntnLiQCyBz+G8sqWybFujISWLUJpRoh9oTQj1kakWYO6qSmpbUfatToEJN7sMnsmpVmvo75HSrMhAKVZ32h9/x7x8Uk44eYJn4BgBIdEISI6EbFJ6UjOMI1pVnDhOq5cv4WSsjuouleNxzJ75tMXePbiJZqev0R94zM8qnmCO/ceqm0qceXaTRQUXkJ6Vi7iE5MRERGNoKBgeHv5wO24Gw4fPIT9+/Zj35692Lt7D3bv3IWdO3ZqebZ923Zzt80t2LRxEzaa5dn6teu1JNMCbeVqLF60RK+nNLMvcqssn0pSaXHrSTvOlT9D7Ll7+q8zh4MK9CD/a4/E6K6YC7YHY7ZZlrloWeaBqSvcMWWFadk1Fnk2fZ23+uANwNLdodh4PF6PcRaQeEPfnF578BYP1b1+izoI29yyE+KY9EeaiSirrq7+SJgJIs2ky+WXaFc3KlJl9uLFC/OawccRpZmcgbQ0e/AOSepzySfuuhb80gV93tYg0+yZn6s0yx78GIorWyfHejESWPYIpRkh9oXSjFibNhUZm7lU3c+kX69HQFIJ9vnnYM3hWHUPcxYzNvjDdY30ivGlNOsplGZDA0qzvlP9sBrupzzh4emHwKBQhEbEIjo+Vc9+mZ59DrnnLuPC5Ru4dqMMpeV3dMXZvQeP8eDREz05wN0Hj1Cp1t0qr8T14lJcuHQVuXnnkJqeidi4BISFheP06dPw8vSC2/HjOHLoMA4dOIiD+w/ggFme7RF5tms3dolAk26b26Tb5lZT5dkmqTzbpCcN2LBuA9atWY9lS5frijRKM/siJ5jnHcCDFmiJJbNcnk2/pccw2+mVpivERHjJzeOsjX5wXeutZZhJlvWcqSs89LbT1vlgvtpfJgzY4ZmGUxEX9YyaBWXPUdnUoavc5K9DhIxU+iLNpCpMKsSMhJkFqTT7UrWZjGNmyyozwdGlWeLFavjEXtPd0WVCE/ncm7bCzbjSLHvwYyiwbJUc68VIWtk7lGaE2BdKM2Jt5DfpgzSrw+nkEuw/nYu1R+I+kmbSE+aPzpRmnw2l2dCA0qzvtLW2oiD/HDw8vODtexrBZyP04P1xielISZdqs0LkF17BxSs3cLWoFMWlFVqeSVfMsttV6nGlWleOa0U3cfHSVeQXnEdGVjYSE1MQFRmNs2fOIsDPD57uHjhx7BiOHj6ixZlUnIk8E3G2f+++zsqzPWZ5pivPtpoqzyzybKO5+mzlipVq/VZKMztj6ZpZ+dQ0lll84QP4xRfpijAZ8H/Z3nDdHVPGLZMul1qYrfQwlGRGEXHmstpLd+dcsisEm04k4EhwPoJTS5FZVI+S2jbUtZpuXAkZqfRFmkkV2ePHjz8rzASpIpP0hEi33lSZiVSzllhzeGl2wSTNdnlnYNWBKMzbEgjX5Sfg3FWaZQ9uDAWWLZNjvRjJKkfJ+Azg1C3T7wAhxPZQmhFrI79Jck9zq64dGUUNCEwpxQF1P7PuaDwW7jiLmRsDKM16E0qzoQGlWf8Q+VSQn6+7UPr6BeJsSIQewD8+MQ0p6dnIyjmHvHMX9Vhll67ewJXrN3GtqESLsqvXi3HpynUUnr+EvLxzyMzMQnJSCmJjYhEeGoqgwED4envD49QpLc2OHz2KY0eOdMqzrlVnXeWZdNvctWMndm7fgR3SbXPrNl19tmXzZqxetRpb1fLdO+oSeyKduBragLL6duSVPtUVYO6Rl7DbO11XWkiXTBnUX8Yuc1opFWa9F2YSS7WZnKAWqrakcm1/QA78E4v1ZAMyIcBj9Stgm7n7CHFM+iLNZPD+LwkxCzKTptG2lq6dvWmnsbHRarNrOuyYZuozqOjh+y6VZtI90yTNPqo0yx7cGEosWyXHOjESVA6T3A8Zn0lpRog9oTQj1kb+vPdUfSmra0dmpzTLw/qj8XpWf0qzXobSbGhAadZ/RJwVnjuHAP8A+PkG4GxIuB7EPy4+GcmpGUjPzEVWTj7y8s8j/9xFnCs0peDcBbXuHLKycpCeloHkpGTExsQgPCwMZ4KCdJWZl4cH3E+exMkTJ3QXTZFnJ46aBNrRw4dx5NAhHD54EIcOHMDB/fs7u21aKs+6jnsmFWbr1qyFr5ePHn+H2A9RlnXvgdLaNmTdaEBIRhmOhxRi66kkLN8bjrmbT+vulaYumX0TZhLZR2SbDLo5b1uQvhGV6Z9944qQeOEhrt5/i4fqY5GfjGQk0xdpJrNj9qaSTBA5ZrSdTB7wpSoz6d4ps2rW1tYOe2kmYzoWVb/XYy3KmGYWaTZ/a7B5TLPrcDlnLLqsEUOJZavkWCeGksoR0kWUdQ2lGSH2hdKMDAbPRJrVt6t7mkYEpd7CwcA8rD+W8JE045hmXwil2dCA0mxgvHv7DsXXi5CSnAJ/vwA9gH94eBSiY+KQkJCM5OQ0pKVlID0jCxmZ2cjIyER6eoZal47kxGQkxMYjOjIKEaEfhJmPlyc83d21NHN3O4lTJ05oeXby+AmcOH4Mx49YKs8+lmcH9u37pNumyLPtW7diw7p1uFd113zUxF7IqEe16q7x5uNWZFyvQ3Baqe4+Kd0ol+wO1d0qZdD//ggzieznsloqzXz0+EBamqkbUl91YyrS7Mq9N3oygM93NCNk+NMXaSbVY5YZMnsjz0Syde1e2dzcrLt3SsWaEdK+VJc1NTXppTwfzt0zpYu6fAYWPWrV1a++8eaJAA6ZJgKYttxcaTYI0sxQYtkqOdaJoahyhBiIsq6hNCPEvlCakcFApFlFYztybjbhTHqZntRs/fHu0syH0qynUJoNDSjNBo7cRD1//hxXr1xBanIKTvsF6HHJwsPCERkZjZjoWMTFxiM+LgHx8fGIi4tDbGwsoiMjEREWhhC1bXBQIAL8fOHr7QVvTw94qYg48zx1Ch4iz1ROubnh5InjcDtmqjz70G3TJM9MVWfdum3u2oOtmzar9zijZ/4k9kUqzZ6ofwaLNAtKLVEnmDxsOCalzGdN0zOvGqg089Kl0Au2BWONuhHd65elx01LulSNa+ZKM0ozMpLpizQTRGKJ9JLqYhnjTCTa58SWyLWurz169EifH7oir0sb9fX1ePr0qdVlmQWHrTRTX27oSrOPpdl89Zk1Y+VJq0kzQ3llq+QMPIZyyt4xEGK9CaUZIfaF0owMBi/UZcvtpg7kljzF2fRyLc02HE/A4l1SCMBKs16F0mxoQGlmPdrVDU9DQwOKi4uRmBCP4KAgLcREWIWcPYuwkFA9ZpkkLOQsQtX6M0GBCAwI0MLMz8cbft5e8PXy0tVm3h4e8PJwh5dFnp06CQ+pPHMzVZ5Jt0033W3z6Ge7bUq12bZNm3G36o75KIk9kRvG+lbpntmKrBv1OJN2S1eabTwu0uyMngCgv10zJRZpJvJt4Y4zWHs4Bvv8s+GfcAPJlx/rwberX7N7JhnZ9FWaWbBUmkn3SZFeIrp6QrpkihATGSYR4WapLLMIs8GcnMVhxzR7Y+qemXTpUac0E8Fvze6ZhiLLFskZeD4RVY4QAxHWl1CaEWJfKM3IYPBBmj3D2YwKdU9ToCc2E2k2e9NpuK71xXSRZv0Y02xi2EPMuQjMNMsly3LYhdJsaEBpNjg8qa1F1Z07KC0pQVREOCLDpaIsGEEB/gj098eZwAAEnQ7AafX4tJ8vAnx94C/R4swkz0Sc+Xh+LM+0ONPdNt065dlJkWd6vLMjH1WeSXfNPTt3IDUpSd2oya0KsTdyiy0TAZTXt6kTTBNCMspx9EyB7p65eNdZzNzgZxVpJu2IhFt3NFbPZHM66SZSr9boG9XH6oaVEwGQkUx/pZkFEWAiz6SqTCrQpEumUfWZZRIBkWUy3pllFk6pPJN9BxtHlGaiCOUz6PpD05hmnZVmB03dM6XSzNWnqN/SzFBk2SI5A4+hrLJ3DARYXzLdnAmUZoTYFZM0e0xpRqzK866VZuqeZrCkWW8jEsqyHDKhNBsaUJoNLnLTVFtTg7ontbhy8QLio6N0zgaeRqC/r4qfzmnJJ/LMVHXmq+WZh5Zn3h6mqjPPbvLslO62+aHq7IiMcbZ3L9JSkvH27eDfnJHeIaMaPVPXK3eeduBc+QtE5FTCLey8nghgqWVMs9X9757ptNIkzaSdxbtC9IlLKtnOpJYis6gON2taddco/kaQkcxApVlX5DO+paVFS7Ou4kxkmVSRiRyTwf1FlEmFWnexNpg4sjS79vAdkjpnz8wwTQRg7p7ZV2lmKLFskRzrxFBW2TNdpNdAYhFmlGaE2B9KM2Jt5GrGNKZZx4cxzYI/dM8UaTZtnS+mr/PrV/fM/kizniKCyrJ0qFCaDQ0ozWzHG3XD9KypCQ31dSjIzUFWehriY6Jw5rQ/gvz9EByglhIt0kSgecPfx6ez26auPvP0MAs0qTwTeWYSaO4n3eAulWfHj+PIwQM4dvAgMtPSbFLNQHqPnGBa1Jf7LcDFO68QU3APHlGXsdMrDSv3R2LelkDd/1/kV1/FmWwvVWoy4ObcLaf1bJxbTyXjROh5hGVWIPdmI8rq2lDfZuoiRchIxZrSrDsiywSRaVJVJqKs+zhntsIRpZmckR69hp7JN+FCNbxjrmGXdwZWHYjSlWbTV/RtIgBDmWWL5Aw8hsLKXjGLroGkqyTrHkozQuwLpRmxNhZpVt7YgexOaZb/kTTTlWYOIs2+FEOhZYtQmg0NKM3sw+vXr/TN1KOHD3DhXD4K8/MQFxmO0KBALdFEoAWbZVqgny9O+/qYqtDM8uxD9Zm7ufrsJE4ePwa3Y0cQExGO8wV5gzpWDuk/ctP4WP3TFFW/1eOM+SfewP6AHKw/GqcnA5CulVIt1ldxZumaKeOZzd9mmjlzl3e6lnJRuVU4V/YCt9WJrUldL7WaDoWQEYmWZvesK80sXTYllseylOoze+Gw0kxdml25+wYJ5x/AK/YadnqlY8X+SMzdEohpy0/0KM0MBZYtkjPwGMoqeyV34DGSY58LpRkh9oXSjFgbkWZyT1Fe347MG00ITi3DoSADaWbD7pn2iqEM620ozYYGlGZ2Rt1UvZfBoVWqbpej+Po13Lh2DbmZGQg/G4zQ4NMICTyNM6cDEOzvhyA/H5NAs3TfFHHmLjNsnkB8TAwuFBbg+bNnaLPjjRrpGRnXTCYDKFMnGSlnDsssx4nQC9jmkaJvHHW1xTpfLcCcV3nBaZVnp0CzZEo3Wea00lNvO22tN2ZvDsDi3aF6Rs79AdnwjS9C/PmHuFT1CvdemP4qxEsmMpKxtjQTQSaD+8vA/oKMcSaTwsh6y3hnRmOeDTaOLM0u33uDuMIH8Iq+0inN5mxWF9jLTsD5M9LMUGYNdnIGFkNhZa/kDixGMqy3oTQjxL5QmhFrY5Fmt7Q0a0BQSikOBuZj/VGZ3CwEM82zZ8o9zXCXZl+KyDHL8pNQmg0NKM0ch87qhPYOPHvahIqyWyi/VYrMlETERoQhMvQsws8GITQ4CCFSkRYYgLioCNy4fg3XrlxGQ3293p84NvIv9ELlfjNw6e5rJF54CL/4GzhwOkePQbZsT5jupjlzg6+WYK5rvHW3SxFjIs8+Emj6uacWbLKdVKkt3B6MVQcisd0jBcdCChGcVoq0a7WmmTPVR2KLem/b3roT4lhYQ5rJ57XMhCkzZNbV1eHZs2e6ulc+g6urq/V6QZ5LpLJYumx+acZNa+LQlWZmaeYZ9WVpZiizBjs5A4uhtLJXcgceIxHWl1CaEWJfKM2ItZHfJC3N6tqRUVSPwJQSdS+Th3VH47Fwx1nM2OCvpdk0qTQbAt0z7RVKsyECpZnj01BXi4cP7uPB/Xu4f68Kd6vu4O4dSSVqHz82b0UNMpSQjrN16t5ZTjR5JU/1hADSjXKvX5auEJPxyBZsD8bsTQFahOnKs7Ve5uozi0AzRdaJXJPtRLYtU/tuOp6Aff7Z8Iy+iqjcO8gtbcKtJ22oVe8pN62EjGQGKs1EjllmwxQ5JtVklioymRRApFlXmpubtTCTyL6ylH0G+48cjirNHsuYZvfe6gpYr5ir3bpnfhjTzFBmDXZyBh5DcWWP5A4sRvKrv6E0I8S+UJoRa9NZaSbS7PogSLPwh5hzCZhZYI5Ipq6Ph0sozYYGlGaE2B65ZHmhzjYPXgJFD98i/doThGSU41TkZS27tpxMwupD0ViyO1TLM7mZlBkxTdVncgLyhssaUxXa9HU+mKVOTPO2Burt1x6O1TehJ0ILEZRaiqRLj3TXzKpnppOb7epcCHFM+ivNZEB/kWVdZ8PszoMHD/Q2XbFUpVnEmjwWuSbyTNoUeWZ5zZo4ojTTs2eqH9u1++/0RAAizWTsRZkIQD7nXM1jmrnaQ5rl9D+G0soeyR14jKTXQENpRoh9oTQj1uYjaVbUgMCUUhw4nfuRNHOxpjTra4wElSOG0mxoQGlGiH2QGSwb24Cq5x24XPUKqVdqEJpZoW8ijwQX6BnlNp1I1PJMKs8W7wrRA/zLjeWczQGYtckfs1VkpswF286YhNmhGN0t80hwHvzii/TsnLmlT1FS06ZnrJOZO3m5REY6fZVmMh6ZdL+Uccpk7DKpFjOSXFJ1JtVnRq+JJOuObCdtSfuDMdOxI0oz+dyrUd/q9QfvtdD3iTXNnrlSS7Ogzkozm0mznIHFUFzZI7kDi5HosmYozQixL5RmxNrIlc5T9UXGaJYxzbQ0C8zrHNPMJM287SfNPhcRVZalI4TSbGhAaUaIfZCTjdSpSDfN200duHz3FTKL6hBTUIXA5BK4R17W8myPTya2nUrBBnUSWn0wGiv2h2Pp7jAs2RWis3RPGFbuj8S6I7FamB0KzIVXzBWEZ1ci8/oTXL3/BnefmwSd3LASMtLpizSTKjCLNHv37l2PFWFSZWYkxwTZT7pkGiHvYRnrzLKdNbpuOqI0k++y5i1wo/o9Ui4/1hOVmKRZtGkSlBUnB1+a5QwshtLKlskdWIyk1mCH0owQ+9LW1o7b9x4P+rAAZGQhk4uVN3Qgu7gRwam3cLCLNLNMBOBw0syS7vLKaJvPpfu+Awml2dCA0owQ+yGXLvIpJeLszrN23Hj4DgVlz/TNZFRuFYJSSnTl2YnQ8zh4Ohe7vdOxzT1FV6DJpAEbj8erxwnYejIJu7zScTg4H57RV3RXz9Qrj3HxTgsqGtpRq25S5Vael0qE9E2aGXXBNEKkWk1NzWdvSCxVZV9CKtmePHkyrKXZk3fAjUetSFafc34JN7DHN0tX1Io0k0ozV59BkmY5/Y+hvLJ1cvsfI5Fly1CaEWJfKM2ItbFUmhlLs1DMGujsmdaWZmZJNSPPOPp1o/36G4sU+1IozYYGlGaE2Be5fJHbcqkEe/hSypzbcPX+a+TfeobUq7WILbiPkMxyBCTdgGf0ZbiFnseR4Hx9Yjp4OgeHVOS5W9gF+MZdR2hGOZIuVuNc+XOU1Lbqmeqeq5OaqY6FENIXaSbjjvWGR48edc6Y2RMizz5XrdbU1KS7d0pFmzVwRGnWqiJ/JCh+3IqUKzXwSyjCXpFmB6Mxf1swpq88CVefIutKs5yBxVBg2TK5/Y+RwLJHKM0IsS+UZsTaWKRZWX0HsoobEWQkzdb6YrpUmtlbmuV/kGNG56gZKlpgGe1r7XQVZhJKs6EBpRkh9kdOPHKbLJMDSBXG/WZ1Empow7UH71BY8UKdjBqQfOkRYvKrEJpZrivQRKL5qxtOyemkYpxJu4WovDu6Sk2q1YofvdftiIyT0ZKMb9MJGXn0dyKAzyFVZiK7enMzItVmRt00LcLM0k3TGjisNFNfbj5+r8dx9E+8gb1+2VhzKLZTmlmte2ZO/2Mor2wddRHf3xjdFNgzlGaE2BdKM2Jt5DfpqfpyyzKmWWopDgbmfyrN1vnZr3umWUx1yjI5t2Z1ibpWkMhrMywSy6idwYz6HudspjRzeCjNCHEcpKZFqs6eq5NQvbqxrFYfYZVN7bhZ04or916hsPw5sosbkHa1Vku0hAsPdaSyTG5Ac2426i6ZN2ve63HMpA2Zx4+XSIR8wJrSTCrRpFtmb6rMBKkyEzHWtYJtMISZ4KjSrF596yXqM00+xwKSirHPP0fP+rtgWzCmrbDCRADqonggMRRYtoy6eO9PukoqRwulGSH2hdKMWBv5Tfowe2b9JxMBOEKlWdfqMi3J1LnIJQ1wTlXLdHXOV89FpEmlmU2rzbqG0mxoQGlGiGMhFWFyYymjHzWrJ03qicw2d089ud3YjtLaVlx/+AZX7r3GpaqXWpLJUp7fePQeFQ0dePASaFA3piLMPtyaE0IEa0ozkWXV1dWf7XJphMyUaRFkgyXMBEeUZvJ5JJ9NpU/akHG9DqeTbmJ/wAdpNkO6Zw5EmqmL3/7GUGDZKnJB3890F1QOE7lRMWeCulmhNCPEflCaEWsjv0nSm6X0STvSrz/Rk5gdCMjDuqPxWLjjbOdEAHYZ06xrdZlcG2SqiCxL7oCTjlmamavNRJzJtjPVPjYXZ5RmQwNKM0IcFzkhya20fJLJuGSNrcCTt6YKtPvNHbj7rANVT1XU8t6LDj0mWu07U7m07ENhRsinWEuaydhj9+/fR3Nzs3lN75FZNp8/f64H/Zd2BgNHlGYfLrLbkFlUr7uaHzidq2f/Xbj9TP+kmbrY7U8M5ZWtoi7O+5uPxJSjpIsgMwqlGSH2hdKMWBu5x5D7kpKadqRdfYKApJvYZ/4j2MLtZzFjvZ9p9kxbds+0dLGUc4/5fCvCTCrLpiZ0YHJcG5xTOrQwk4ozibwu4sxSlSaxqTijNBsaUJoR4vhIDYucnESgyfhkMhOmSLSnamWTOc/UdZCMiSbVZVKlxssiQoyxhjSTyrKnT5/qCQD6iqVLp8i2wbyBGTLSTF1kr5OLbPnL9KpTvZsIQC6E+5lPBJYtk9v/GMoqe0duTHoRSjNC7IuWZvcpzYj1kPuSj6RZ4ofhFubLH8HW+8FFpJl0z7TlmGaWKjN1zpVKMhFmTokdmJrYriLSDJiaZKo409KsS7WZzYWZhNJsaEBpRsjQQy555GQl3Ti7h5dDhPSMtSrNWltb+3UDIsJN9h1sHL17pkWaHRRpJpVmO9RF9pekmVwEDyCGIstWye1fDGWVPdNFhvU2lGaE2BdKM2JtOqVZbTvSrn0szRaYK83sJs3kXCXXDOaKMiepLksVcdaByfHtmJrQrp6bumi6ZKjtzGObaWFGaUaMoDQjhBAykrDmmGaOjENPBFBrGtMsMPmmuXtmnKl7Zk/STF3Q9jeGEssWURfu/Y2hsLJnDGRYbyJ/uZ+YBbhTmhFiNyjNiLWR3ySpHDdJszpT90z/bMeQZnL+lQoyFRFiLumAU1IHpiS0Y2pSux7bzDlZZJqpEk3O150TAVCaESMozQghhIwkKM1sk89KM/VFZgSWgYNPJ5smAjBVmp3FzNXuxtJMXdD2NZ8ILFtGXXz3J4ayyp7pJsD6EsvYMJRmhNgfSjNibSzSzDQRQD0Ckks6xzTT0myD/4Ck2aTwh5h7CZhVYBxDASURaSbnL3Uu1tVmGYCzefwy59QO3T1TBJp015QqM5lRU2+r9rG5MJNQmg0NKM0IIYSMJCjNbJPPSbO698DNR61Iu1aLgKTiD9Js+5lPxzRTF7L9jaHMGuyoi+7+5BNZZc+YpVd/0lWUdQ2lGSH2hdKMWBsZb7lJ/TrdqmtHRlEDTieXqvN5LtZK5fiOwZdmRukUUeq8I+czGatMomfPVHGSCQESzWOZZXSYxjNTEWkm56qPZJatQmk2NKA0I4QQMpKgNLNNjKSZTGbyRH0pftSKlCs1egwUkWZrDsVg/rZgzFh10iTNCj/Ir97EUGDZInJR3o98IqrsGbm56Ee6i7GeQmlGiH2hNCODwbMOoLyhA1nFDQhKLcXBgFysO2qSZjM3BujZM6ev88UfnW0jzSyRijE5v1kqznQ3zS4VZ5ZumxZhZpcKM0sozYYGlGaEEEJGEpRmtkmP0uxxK1Kv1MAvoQh7/bKw+lC0lmbTV52Ei8/1PkkzQ5lli6iL8b7mE2Flz+T1PUZCrDehNCPEvlCakcFAZvIvb2xH9s0mBKeV4VBgPtYfjceinSF2lWYS3U1TnX9010tzxZkWaObKMxFms9Q2RvvqnFNtqMxQmS5R6yxLQ/nV31CaDQ0ozQghhIwkKM1sk566Z34kzXxFmsVg3tYgTFvu1mtpZiiyBju5/YuhtLJH5AaiH+kuwfoaSjNC7AulGRkMRJpVNHYg52YTzog0C8rHhmMJWLQz1CGkmUWcSXdNS5dNHXU+l9eM9pulrj9mn1fL/HbMPNeOWeFl2BxxBfsz72N/WiU2Z9ZokTbDvL2hCOtLKM2GBpRmhBBCRhKUZrZJX6SZ7p5plmauX5BmhjJrsKMusvuTj4SVPSM3C31Md/E1kFCaEWJfKM3IYPCiA7htkWbpZTgcVIANxxO1NJtlb2nWZakFmjoXSXqqLhNZNjP/PWYkPsHkrd5Y7p2K4yHpCDoThaj4TETFpuJsXI4WZ1J1ZnmPz6VTjPUUSrOhAaUZIYSQkQSlmW1iJM3aVCyzZ4o080+4gX1+2VqaLdgWjGkreu6eaSi0BjO5fY+htLJX1A1CX2MkvQYaSjNC7AulGRkMmjuAyqYO5JY8xdmMchwJLsDGE4lYvMv+0uyT9CDLdNR1x4yMZkzY6oNfZ66Gs8ss+J8OR3R8JiJj0zoTHZOixdmWzBrMLGjX4suwPYN8IswklGZDA0ozQgghI4n+SDN1Xagj0keqpSQyPpfknTny2PKaRLaV2xOJPJb9Lc8t7Q0mjlppJtKspMY8e2ZisUmaHTZNBDB9hXH3TEOhNdjJ7XsMxZWtk9f3GIkua4bSjBD7QmlGBoMWlTvPOpB36xlCMitw9Oy5T6RZv2fPjHiIuZehxxbTKeiyHITMvgSM3xmEv/74M/789beYMWsh4pNzERGb/kmiYlIREpeNVTnPMW2gx0RpNjSgNCOEEDKS6K00E6klkkeEmFxNtKgVL9T9xtM2oEmlUb0oaZC8Ny2bJOo12UbyXKL2kf0kzRLVzkuV16rNt+b3UKutzoFd2+A0fhRmu0yySyb//vMXpZl/YjH2mivN9OyZK0/CxbtvEwFYJTIwsOVxbu9jJM7slrzex0icDWYmUJoRYlcozchg8FLl7gugoPwFwrJu49jZQmw6kYQlu8Mwe9NpuK71tZ40s0aMpJU5c68Dvy3Zg2+/+jO+/ssPmDZjPmKTcgylmSQ2Jgkbs+rg+oV2vxhKs6EBpRkhhJCRhEiz8rvV5mfGiDATWSbjdYgMq3kDPFRXh/fUisqnHbjd2IaKhjaUq5TVq9S1qmWrfl4hr6nINpVN7bijtq961oG7z1XU/vebO3Rbj18DdepNRK69Uu8jQkne11rs37lVV3vNcp5ol0wc/RP8PE+aj8aEfI+WMc1SZEyz+BvY45OF1Qej9EQArstPwMn7OlzURahLlg2TrZJjjjzuZbRss0csgq+Pks8SQ+k2iBmXAZwsNf0OEEJsD6UZGQy0NFPXNufKmhGWXfmxNNscqKXZ9HV+jiPNPpPZF9S5MbISf5syD99+8wO+/vMPmDZzPuKk0iwu3ZRu0iwmJhkbsuopzUYKlGaEEEJGEm3qpuHNO+lM2TMisNpURPS8U0/eqidvJGrFa7W75JXkXZeY13dGtlWRfXTMbUhb79S9y3uzLBuM25jzBTmIjTyLxNgIuyQm/AxuXFNXvF2Qn2mr+vJGfWl61Yqq+te4euc5cotqkXLhPuKzyhFX2YQ4dSUe1+y4ibd3WoZWItUxX31j+h0ghNgeSjMyGKiPd1Q970BB2QuTNAs5j81uyVi6J1xLs2nrhog0uwS4hN3GT+Nn4LtvvsfXf/4RrjNEmuUgKj4DkRZxZk5kXBpiY5MozUYSlGaEEEJGEq3tHXj59r35mTFyW9EmcqcNePa+HU9etaH6eSvuN4roacWduveoqH2Hipq3OuU1b3Tk8e1ayTudO0/e621lH0vuNbTiQVMrqp+1oralDY1v29HS2gH1Np1jn1mDzLQkBPq6IyTQ1y4J8D6Fi4X55qP5gPrxQ/048ehFO27cf4mcolokFFQhPOMWguOuIPB6LQIbgcC6QUp93xPkCGnoW4IdKL7q557/wvwLQAixOZRmZDBoVpExzfJvPUeodM8MOf9RpdlQkWaS2ZfbMWbFQXz/9V/w/Q+/4vdxU3DwqAeiE7MQlZBpEmexaYiJTdFxS7mBBfnvMMNIhPUllGZDA0ozQgghI4kvjWkmlV+NbUDVM+D6g7fIKWlEwoWHCMu+jaDUUvgnFcMn/jq8Yq7BM+YKPKIsuQyP6CvwVPGKuQrv2Gvwibuu45dwA/6JKmrf08k3EZRWitDMCsQU3EXqlccoKHuGm49bUf3S1CXUGrc1jjgRgKjK2rdAUfV7JF9+DL/4IuzxzeycPVPGNHP1uY5phTAenH+gMeg6+KUYDrZvqxiMD9ZTjAbhd4RwIgBC7AulGRkM5G8hndIs8zaOnvm4e+aQkmYXAZeoKoyfvx6Tx0+A06QpWDh3Prw8fBEdnagryxKSMhCSkAO3lGIsKHiLGepaxagtLcMsyy+F0mxoQGlGCCFkJPElaSa9yETslNa2qQvBp4grvI/AlBK4R17G0bMFOHg6F/v8s7Ts2eWdjl1eKmq50zut8/Fu7wzs8cnEXrWNRGaI3O+fjQMBOSq5OBKUD7fQ81quBam2YwvuI6/kmXrPVv3e1ujJ5ggTAfh5nTIfjQkZJ+6x+v6uPXiPpIuP4BN3Tf28MrByfyTmbj6NaSvctDST7g6GY3n1NTn9i6Fws0Vy+x9D6Wav5H0cmQjgVJnpd4AQYnsozchgIH/kk3Fec0vNs2eeMc2eaZkIYChJM4mIsxmx9zF/23Es3XoYK3Ydw9bj/jgSGIeAhAJEni/H6txnWJj/5vPCrKdQmg1dKM0IIYSMJL4kzeTK4dFroOjhW2Rcf4KQjHK4R17C/oAc7PBIxaYTCVh/NBbrjsRgzaForD4UpQey/yhq/drDMZ1ZdyRW7ROHDUfjseFYvG5ju0cK9vll4XhIoboYK0Z84X2cr2hGZVOHnhxAumoOBIetNHsnFXzvkXixWlfjiWBcfSAK8/VEAG5wsValWW7fYih/bJFugulLMarkcojkfz4TswF3SjNC7AalGRkMnncAFY0dyLnZhDPpZTgcdE5d4yRg8a5QzNoYoGfOnC6zZzoPDWk2S0TYeWBuxjPMTWvEvIynmJfehPlquTTvJVacf69l2Qyjffsb9T1Smg0BKM0IIYSMJL4kzWQ2KJnd8srdV0i6WI2AxGJ1IZiPre4puhvhsr3h6oIwBIt2nMWC7Wcwf1uwYRaq1xbuMEW2XbTzLBZL1L5Ld4dg5f4ILdJ2eKbh+NlzCE4pQeqVGlx/+BaP1OXLQK9gHFGaSaVZjXTPfGipNLuupdmqA1GYu8VK0iy3bzEUWbZKXt9iKKvsHQNJ1j2UZoTYF0ozMhhIpZlIs+ybTQhOK8Mhda0k0mzRzhDM3BgA1zU+mL5uCEkzS84DMy+oyNIckWXTjbYdaCjNhgaUZoQQQkYSvak0u98MXLrzSnfNlGqovb5ZWH8sDkt3h2Le1iDM3hSAWRv9MXODH2as91WRZbeo1+R1U/z19jpqX9l/3tZALNkVokXcTs90nIq4iIic28gve6YvQpvUvc1Aqs0cudLsRvV7JF16DN/469jtk6mlmfxcLd0z+yXNcvsWQ4llq+T1Poaiyt4xEGOfy0yVSdmAB6UZIXaD0owMBhZplnPzKc6kl+NwUMEn0kyqzYZK90y7hNJsaEBpRgghZCTRK2n20iTNYs/dg2f0ZT1OmXTDXLA9WAuwaWt94LLGGy6rveC8yhPOsjSIvN4Z2V7Fda3E9NfXOZsDtDhbfzRed//0SyjSA+Rbqs1emw6pXziqNHvyDih+3Kqr6uT73eObhdUHozF/a3D/pFlu32IosWyRvL7FUFbZO92EWE8RWWYJpRkh9oXSjAwGzR3A7aYO5JY8w9mMChwJLsCG46bumZRmvQyl2dCA0owQQshIoq/SzCPyEnZ4purulPO2BGrZJaLMaaUHpkpWmJe9iOxjitp/lRemrfPBXNXm8n3h2OaeghOh5xGedVtPQCB/vX06gGozR5RmMjNp3XvgZk0r0q/V6q6v+/yz9bhvC7adwfS+zJ6Z27cYiixbJa/3MZRV9o5ZhH0pXUVZ11CaEWJfTNKshtKMWJUWlc7ZM9W1y9Gzhdh4Islq0mzeZWD2OVMMhdNwCKXZ0IDSjBBCyEiiN9LswUvg4p2XiCm4pycB2O6RihX7IkwzPK71MQmzFR6YssK9T5naGdO+zqu8dFfOBdvP6skCZFZOXW126ZGp2uxN/6vNHFGaiQBsVF9u1bUh60Y9glNLcSgwDxuOx+uL7NlrPTHd70bP0iy3bzGUWLZIXu9jKKrsmfzex0iSdQ+lGSH2hdKMDAZyvXSvGTh/uwWRuVU4EXYBW06mYOmecD17pjWl2ediKKKGUijNhgaUZoQQQkYSPUmzDhUtzdRF4IU7LxGdX4VTkRd1FdjyvWHqwkamUPeB0yrPfkmz7pE2pMumtLt8bzi2uifrarMwqTYrlbHN2rVk6k+1mSNKM/n5ymxbtxvlL9PPEJ59W32/F7SUlFlHF2/xx+zAEriqC8n+SjKJocQa7OT1Poaiyl7J732MhFhvQmlGiH2hNCODgUzuU/0auHz3LWLP3Yd75GVs80jD8n2R6romUAuz6ev8+j0RQG+kWX9jKLDsEUqzoQGlGSGEkJHEl6SZdDe49wK4cLsFUXlVOBUu0ixZSy0tzaTSzErSTDJVtSWTCchMnGsPx2KvXxZ8Yq8j8cJDXL33Rs/kqf7rM44ozQT5+d5XP99LVa8RX/hQz6Ap1WYyGcLWo9FYFHobLgXGMuxLMZRZg5283sdQWtkr+b2PkQjrSyjNCLEvlGZkMJA/6NW1AkWP3iPp8mP4xhVht28mVh+K0bOIT1/vZ5Jmg1hpZq2IwLIsbRpKs6EBpRkhhJCRhEmaPTY/+xgtzdSXuy+ku0EzInPv4GT4BS3Nlu0N07NeTlvrbVVpJpGJAqTtZXvDseVkEo6eOYez6beQU9yIW/XtqH9vGkS/LziqNHujUvPWNBlA9o1G/TMOSimFV/QVeJzNx9r4ajjlG0uxz8VQZg128nofQ2llj6ifa29jJL/6G0ozQuwLpRkZDOSaScZeLVPXKVnFDQhOvYVDQfnYqCcDCMGsTacxc70/vnLASrO+xFB2WSuUZkMDSjNCCCEjiS9JM5kNquo5UFjxApE5d+AWdgFbTyVj2Z4wzNYD23r3e0yzz2XqCk9MX+ejZ+dcfSgau30y4BV9FXHn7uNS1UvcbzYdlxxfb3FUaSZ/mX6mLrLvvuhA8eN3OFf+AhlF9YgrfIC47HLszG7ClFxjOWYUQ6E1mMnrWwzlla2T3/sYSa+BhtKMEPtCaUYGC6mEl3HNCs3jmp2KkMmT0rHqYDQW7jirJ/n52nXXkJZmn4uhBOtrKM2GBpRmhBBCRhIizW5/SZo9g5Y5ETmVeoyxLaeSsNQszWQMMmtLM4nMyDlroz+W7A7FpuMJOByUj6DUUmRcf4KSmlbUvjONH9JbHFWaCW9VnrYBNW+AyqcdKH70HpfvvsK1289x7MpbLVmMBFnXGAqtwUpe72MoreyR/N7HSHRZM5RmhNgXSjMyWMis2E/eQ5/HU688QWByCY4En8NW91SsOxqPtUfi8N2sffg/f15uLMm6ZwhJs55iKMiMQmk2NKA0I4QQMpLoizQzDVRfqLtMLt0doqWWdKUUaTbFQHwNJE4rPPR4afO2BGLV/ijs9EzTf7GNyr2DwopmdUwdUP+ht7c8jizN5OcsF9ov1YMm9aDmtWnG0lq1wvtWByZkOoAosySv9zGUV7ZMfu9jJLcGK5RmhNgXSjMymOjrJhnWovIVYs49gH9iMU6q65fDwedUCvDzwiP4//y0zFiSdU9XaXbFWEgN1VCaDWEozQghhIwkviTNZEwzkWYFZc+1NHOTSrNu0szaVWaWOK/ywswNfli88yzWH43DgYAcdfF5AymXH6Po4Ts8fm0aE6w3OLI0syC3bzJWm/q29EW3PA6+C4zLsJMoy+t9DKWVrZPfuxiJLFuG0owQ+0JpRgYT+SNYvfpS3tCOwtvNSLlSi5iC+ziTXoGI7DsYv8oD/8ePS4wlWfdYpFmkWZoV9jPnhkgozYYGlGaEEEJGEr2pNJPZM89VNOvumVqa6e6ZoZg9yNJM2pUx02Sqdpmtc9upZN09NCzrNvJKn6KisR1NbaZxwb7EUJBmXbHcyoXfA8ZmwFhqDWby+hZDiWWL5PctRhLL1qE0I8S+UJqRwUaGXWh8B9xXF1ElT97jYtVLFJQ/x/UH7+C65TT+X98vMpZk3WMtadZTjOSVvUJpNjSgNCOEEDKS+JI004PavpBBbZs7JwIwGtNsioH0skak7Rnr/bBw+xmsPRKDfX5Z8Im7hsQLD3H1/hvdjVGq4eRYe2KoSTMLUfdMlWaGYmswktf7GEosWyW/9zESV/aMlmbl5n9gQojNoTQjtkD+oCfDLjS8A2pfAdXqekUm/lm4PwT/+7cLjSVZ99hCmhnFSGjZIpRmQwNKM0IIISOJ3kqz83omKMvsmUmds2cOtjSbqiLVbLM3BWhRJ11Dj509h7PpZci60YBbdW26G4R0ZewJSrMvJK/3MZRYtkp+72Ikq+yeAlMm5VCaEWJPKM2IrZDfMLk+kVgmL1p5OAT/j28cXJp9Lkaiy5qhNBsaUJoRQggZSfRmTLO7Wpo1fyrNNgVg2trBmT2za6T96et8MH9bMNYcisJun3R4RF9B7Ll7uFz1CtXq8kbGAesJSrPPJK9vMRRZtkh+72Ioq+wdsyyjNCPEMaA0I/Zk9eEQ/N+HqjT7XIwEWH9CaTY0oDQjhBAykujNmGZ3ngOFFS/sJs1M1WaeeuKBJbtDsOl4Ao6cyUdIRjnySp6h8mmH7vLQ0+3PUJZmMqZZ11kzrZK8L8dImtk8+T3HSJzZPQU9h9KMEPtCaUbsybCUZl+KkSAzCqXZ0IDSjBBCyEjiS9Lshbqn0LNnlsvsmeaJAE52k2arPAdVmklEnE1b64O5WwOx5lAM9vln65k0U6/UoPjxOzx513MXzaEqzWLudWBSRgdm5Vopeb3P7CGQOXaNurjvmvzeZUo2cOqW/N9FCLEHlGbEnoxIadbbUJoNDSjNCCGEjCR6I83uPO1AQZlZmoWZpNnS3aGYtTFAz2452JVmluixzTYHYMX+COzwSoVH1GXEFtzFxTsvUf36w3ghRgxVaRZ3rwPOGR2Yn+vgybFPFtg17R8n98uZk92OpfntKKyhNCPEXlCaEXvSd2m2DJMiH4wMaaa+R0qzIQClGSGEkJFE76QZDKRZiO4u6brGa1AnArBEpJzzKk/M3OCnu2hudkvUEwKEqWMSafb4tboRMh22IUNVmlU8B2LuAkkPHDz3R2I6Ps69LyfubgcKHndA3bMTQuwEpRmxJ72VZv/FXGX2n/66GBMj7g9vaXZe5YLKdWDOloOUZo4OpRkhhJCRRG/GNJPumefKXyAiR6SZaUyzpXuk0sxfV3/1KM1Welotzqu8MH29PxbsCMGG44k4HnoR0QUPcLOmDY1fuPcZqtJM/g2YYRT5QgixK5RmxJ58Tpr9519W4P/38zJT/rZUr/v78Zvx339fhylR1ZgvVViFwyDnVS6pXDRHHos0y3mF2YVvMGfjXsyd9Juh1+oplGY2hNKMEELISEJLs/ufl2YvVe43y+yZLXoigJPhF7HdIwXL9sqYZiZp1mPXzGXHVY6Zl72N8fZOy09g2upTmLvJB2sOhOFIYBZCUouRW1yLW7VP8eTpUzQ2qTQ2ofnFC/09WBiq0owQQoh1oTQj9sQizUSMWSLVZH8/YTP+2WUv/slpN/5h4lZ8szoILkHlmOJXjPmZr7HkPLD43NDJEpUFMpZnHjDXPPbnfHktvw2LUuqxKK3RlMwmLAi9gTmb9mHOtmOYO28e5jqPN/RaPYXSzIZQmhEy9HhTeefTlFfg/ZM68xaEkM/RkzQTXqtUq8uHS3dfI67wPryir2CXdzpW7o/E3C2BekwzY2mm1i13w9Q5KzF19jKV5b3PnBWGcVJxnrsKrvNXY+ai9Zi/cjOWrtuB1Zv3YsPO/diyZz+27d6PDVt24ExwkOkbMENpRgghRKA0I/Zkyd5A/F/+Yzb+wfUQ/nHmcZWj+HuXA/jlSAGcIx5hytn7mBx8F9PjmrC4EFhUACzMAxbkOl4W9pB5OcDmi8CxG8DhIrUsBnZfeYtFp5Iwf9kaLFi9xZS12zB/yQrMnfo75jqNw1yXSYZO60uhNLMhlGaEDA3e3r2HlouX8Tw9A3enzcJd15lqObszdya74rG6cX51rQivLl/F/cuX8ZYXR4R8wpekmcxIWfsOKH70HilXauCfUKRnrlx7OBbztwVj+jofY2kmXTaXn4DT9LlwUv+POqn/L3vMdMmcXmfqtDmYovab7DoLk1xmYqKzKRNUfp/ohHVrVuJJba3pm1BQmhFCCBEozYg98YnKxtR17tif8RBHCxtxpKABh/Pr4F7cCt/b6vUKU7zLAM9Sx45XDzlRDJxXl2FP3wL1r9VSXVCev1mJ6a7OmDN5NOY6jTVlqko/Ksu6h9LMhlCaEeLYvH9cg2dJKXi4ah1ujx6Pyt8noOzr71D2J5Wvv+/Mra++Rfn3P+PORGfcHTcFmeMnoir4LCoKC80tEUKEL0kzuaV42gZUNLYjp6QJIRllOHa2AJtOJGKJnkHTX4819ok4s0izGfPNomvu5zNDMs9qcVbvN3vmNBw+uB81NTX6+6A0I4QQIlCaEXvS8uoNGp4146W6tnrV8SEtreqa7P3wyYt36v+1buN4lt8sgsv4XzCnn9VkPYXSzIZQmhHimLS9eIGmsAg82roDFT/+gvLvfjKJsj9/j/Lv/6YF2Sf5Vm1jlmglarubP/yC3CnOuO3jh1sXzvNiiRDFl6SZIFcPD18Cl+++QnzhA3jFmLporjoQiXlbg3S1mZMM1t9XaaZlmcRYfvU1zua4qDbnzJoO5ykTkJyUoL8HSjNCCCECpRkh9qH0ZjFcJ46mNBvq1FCaEeJwtL96jdrDx6Dl2Ld/NYmy734yy7HPCLNuuS3Lv/wVFd/8Fdf+/ANip81A6J7duF9SYn4XQkYmvZFm71Xq1ZdbdW3IutGA4NRSHA6WarOED9Vmq71Moqw30qxTlkmMBVh/0lWazZszEzOnOWPb5g148uQJjh/aR2lGCCGE0owQO0FpNkygNCPEsWh/+RK1h4+j7JsfUfaXH8yyrHeizJKKLhF5VvntT7j+lx9x9J/+BfucnFB9u8L8boSMPHojzaS6vkV9edACXK56ZZoQIOYq9vhmYs2h6M6xzZx6I80GUZZ1l2bzVVydJuH6tatwP36I0owQQgilGSF2gtJsmEBpRojj0N7SoivMOoWZlmX9F2ZdU6VSpNo99D/+CXumTMaj27fN70rIyKI30kzQ1WatQFl9O7JvNuKsjG0WUoitp5KwfE845mwKMM+k2YM0s7Isk3QXZp+VZieOUJoRQgihNCPETlCaDRMozQhxDNpaWvDk6Akty/oqzIwkmVGqfvgF17/5K/b/3T9g9+RJeFTBijMy8uitNJNqMxmo9qG6lLh6/w0SL1bDN940k+a6I7FYtOMsZqz3hfMqGdtMKs7M0mzmfDjNmPOJ7BpIjERZ13SVZtOcJ+PatavwdHeDy8QxhkLLFqE0I4QQx4DSjBD7QGk2TKA0I8T+tDU3o/bI8W7CzFiQdY+RHOspWpz95Ufs+29/h90TJ+JhWZn5KAgZGfRWmgltKk/VPcbtxg4U3HqG8JxKnAi7gG3uKVixLxJztwSaqs10N02LNFsAa1aYGUmy7vlYmk3CtWtX4OVxktKMEEIIpRkhdoLSbJhAaUaI/XlVVIxbf/p20IWZJfd//BV56v1m/B//B/ZOnIiaO3fMR0LI8Kcv0kx4o1Kjvtx49A6pV2vhn3QTBwNzseFYPBbtDMHMDX5w0ZMCeFpVmhnJsc+F0owQQsjnoDQjxD5Qmg0TKM0IsS8db9/h0aZtuPXVN7DW+GVfSuX3v+j93f/lX+H0f/u/IisgAB28kCIjhL5KM/k/43kHUPUcOH+7GVF5VXCPvISdXmlYdTAS87YGYto6H0xd5WUVaWYkxb4USjNCCCGfg9KMEPtAaTZMoDQjxL68LilF2bd/VfnxEynWU4xkWF9y78dfkf/1d1j1n/4T9v7tJzyprDQfESHDm75KM+GtSt07oKS2FRnX6xCUWoojwfnY7JaIJbtDMWtTAFxWew9YmhkJsS9m5jy4zKQ0I4QQYgylGSH2gdJsmEBpRoj96Hj/Hg/XbEDZn7+HLbpldk3lD7/o5Zl/+3cs/n/+76i6cMF8VIQMb/ojzeQ2o6UDuN8MXKp6hbjCB/CKvYq9vplYcygG87cHY/o6PzitcOu3NDMUYl/KTFMozQghhHwOSjNC7AOl2TCB0owQ+9GuPqNujx5vlmbGgsyS7tJrQPnBtHzw11+R8tXXWPf//X+jwMMDbW+lnoaQ4U1/pJnQqtKovpTVtyO3pAkhmeU4EVqIraeSsXxvOOZsDoTr6lN9kmaGIuxLMYsyU+bruKjHlGaEEEKMEGlWeb+W0owQG0NpNkygNCPEfrS/fo3K8VNQ9meZAMBYlkk+kV4DiQgzc+799VekfvU1dv63/4Jjf/gPPH3wwHxkhAxf+ivNBLmqePQauPbgLZIuPYJfQhH2B+Rg/dFYLNwRghlrveA0cyGcpvcszQxlWG9iIMwozQghhPQEpRkh9oHSbJhAaUaI/eh49w6VE6baTpp1EWYWaZbx1dc4+Hf/HYf+639BA8c1IyOAgUizNpVn6p6j8ilQUP4cEbl3cDL8IrZ7pGLF/kjM3eg3ONLsM7KM0owQQsiXoDQjxD5Qmg0TtDR7RGlGiD14X1ePyrGTepRmhvKrv+kmzSp//AVF3/6IoH/+Zxz7+79D05075iMjZPgyEGkmSCfmWvWl+NF7pF17gtPJxTgYmIeNxxOxaHtgj9LMUIh9KV8QZhIjaebpTmlGCCGE0owQe0FpNkygNCPEfjSeCUX5D7+g7NufbC7MLLn/0ygk//sfcPIf/g5PKc3ICGCg0qxDpVl9ufscuFD5EjEFd+ERdQW7fTKxcl8onGcuxNTpc6wszIxlmSWUZoQQQj4HpRkh9oHSbJhAaUaI/XhVfBO3R41D2V9+tLksk9w2L+P/9d/g8z/+Hs+qKM3I8Geg0kx4p1L3Xl0MPWlD1o0GnEm7hWNnz2PT8Vg4z/pYmhnKsC+lU5ZZYizLLGH3TEIIIZ+D0owQ+0BpNkygNCPEfnS0tn40ppmh9Opvusixz+XOj7/iwp+/xZl/+h8IUnl2p8p8ZIQMX6whzaTa7KXKQ/Xl8r3XSLjwEH4JxdjvmwHnWYswddocYxn2pfRSknUPK80IIYR8DkozQuwDpdkwgdKMEPvRffZMQ/nVnxgIMqNU/fgrzn39F5z5x39A6D//I16w0oyMAKwhzQSZFKBJ3X9UNHagsKIZ8Req4RNzCa5zFvddmnXKMomxGOsplGaEEEI+h5ZmDyjNCLE1lGbDBEozQuyHSLPbv0/U0sxQfvU3BoLMKLrS7Ou/IOKf/wci/vEf8IJjmpERgLWkmaC7aaovFY3tuHT3NWJyb2P63CWYOm22sRwzygCFmYTSjBBCyOegNCPEPlCaDRMozQixH+1v3qDKaTrKrSXNDMRYT5HZMy9+/RfE/ss/IumPf0DL/fvmIyNk+GJNaSbIbJr174G7L4D8knrMmLcUU117Ic0+kmUSYyHWm7iq/UWYUZoRQgjpDqUZIfaB0myYQGlGiH15lpiM8j99h4rv/mYswnobAynWU27/+AtKv/srsv/w74j/r/8Z5SeOo/29uvMnZJhjbWkmvFFpVrld34xZ85diypekmZWEmYs5lGaEEEI+B6UZIfaB0myYQGlGiH1pe/4Cd11nofwvPxrLsN7EQIp9KTJz5rU/f4P0//lPyPnuWzRXlJuPiJDhzWBIM5kYQGhqbsbsBct6lmZWkGWWUJoRQgj5EpRmhNgHSrNhAqUZIfbneWIKbv3bn4yFWE/pJsJ6m9s//IKy739C4R//8P9n7zz8okjadv3HnO+c70277wZ31zXnnHMkZxAjijnnHBFBFFDJGQQUE0oUxZzIggkBERETcJ96qqdhwEZRwgzjc/323pnp6a5pxgnd1zxVhaR//xN5B/ej7tMn3d4wjGnTEdJMpUonzWZaNJNmTUQZRVuCtSaqKNMPSzOGYRimJViaMYxhYGlmIrA0YxjD8+nlSxQ6uuI+ddPUkmMtRUOItS5jcHPgYFz5qxuyxo3Fm7v3dHvCMKZPR0qz182lWQfLMjUszRiGYZiWYGnGMIaBpZmJwNKMYYyDV1ExuNe9Dx4OHqktyJpHU4a1Lg+GjsK1vr2R+tO/UbhrB1Cndi5jGNPHcNJMW4a1JlqiTD9NpJkZSzOGYRimEZZmDGMYWJqZCCzNGMY4+PjiBYrdV+B+70FfFmcaEuxbc3fgIFz7sxvuW5jh7X2uMmN+LDpamtm5LMAMS3uY2Tjp4vzdMW9lLMTjNJdmXp4szRiGYRiWZgxjKFiamQgszRjGePjw5Kkizvq0IM40BNi35sHgwbjd/U88sjRH9Z07ukdmmB+HDpVmr1/DzskV5jYOsLJ3FnH57lh/Q2zEYznZszRjGIZhPoelGcMYBpZmJgJLM4YxLj6WPFHEWa8BuN9Xb4wzDQH2bRmDh/364/5f3VBgbYmau3d1j8gwPxYdKc3evXuHHdu3wdnRHvPnzoHbwvmtyDzNLPqWLJiHOU72Upw1SDPunskwDMMIWJoxjGFgaWYisDRjGOPjQ3EJnm7YggJ7F9zvNRAPBg1XxNfQUc1EWOuSM3gYHvXoicdms/B0+VLU3LqleySG+fHoSGlG5OfmwO+YF3Zs2YDFC+ZgxZKFWP7FLGiXLF44F3Mc7WExezpLM4ZhGKYBlmYMYxhYmpkILM0YxjiprXqDt7fu4NmO3ci3ccD9Pjp5NmTk59GTaTTI/4PBI/FALM8bOhz5AwbiyfSpKN28EW+TL6G28rXuERjmx+RNdQ1yOlCaEW+rq3Hv7h1s2rAGi+a5wN1tXodn6eJ5WDR/DixnT8e1rKs8EQDDMAwjYWnGMIaBpZmJwNKMYYybuvfv8SY1DS88vVEqkjNusiLJRoxtzOAReDhouJRqecNGoXjsWDwePQZPRwzHiykT8TYhHvXvanQtMsyPTWdIM5VbN7MRGx2JxPi4Ds+ZBCWR4aF49uwZDu7bw9KMYRiGYWnGMAaCpZmJwNKMYboI4kCn/sMHVMYn4lVEFF5FxeBVdKxMucsclE2bhtLJk1G5dg0+nEnEu9gY1ERG4P3F87oGGIYhOlOaEXSSUl9f36khdu/YxtKMYRiGYWnGMAaCpZmJwNKMYbo+9Xduoz4tBbVXLqO+sEC3lGEYLTpbmhmKnVs2wnyaOFATx0WGCEszhmEY44ClGcMYBpZmJgJLM4ZhGOZH4oeRZpvXw3zaeE2h1RlhacYwDGMcsDRjGMPA0sxEYGnGMAzD/EiwNOucsDRjGIYxDliaMYxhYGlmIrA0YxiGYX4kWJp1TliaMQzDGAcszRjGMLA0MxFYmjEMwzA/EizNOicszRiGYYwDlmYMYxhYmpkILM0YhmGYHwmWZp0TlmYMwzDGAUszhjEMLM1MBJZmDMMwzI8ES7POCUszhmEY44CkWS5LM4bpdFiamQgszRiGYZgfCZZmnROWZgzDMMYBSzOGMQwszUwElmYMwzDMjwRLs84JSzOGYRjjgKUZwxgGlmYmAkszhmEY5kfizVuWZp0RlmYMwzDGAUszhjEMLM1MBJZmDMMwzI8ES7POCUszhmEY44ClGcMYBpZmJgJLM4ZhGOZHgqVZ54SlGcMwjHHA0oxhDANLMxOBpRnDMAzzI8HSrHPC0oxhGMY4YGnGMIaBpZmJwNKMYRiG+ZFgadY5YWnGMAxjHEhp9pilGcN0NizNTASWZgzDMMyPBEuzzglLM4ZhGOOApRnDGAaWZiYCSzOGYRjmR4KlWeeEpRnDMIxxwNKMYQwDSzMTgaUZwzAM8yPB0qxzwtKMYRjGOGBpxjCGgaWZicDSjGEYhvmRYGnWOWFpxjAMYxywNGMYw8DSzERgacYwDMP8SLA065ywNGMYhjEOWJoxjGFgaWYisDRjGIZhfiRYmnVOWJoxDMMYByzNGMYwsDQzEViaMQzDMD8SVdUszTojLM0YhmGMA5ZmDGMYWJqZCCzNGIZhmB8JkmYPC0p0t0wXlmYMwzAMwdKMYQwDSzMTgaUZwzAM8yNRVf0WD/KKdbdMF5ZmDMMwDMHSjGEMA0szE4GlGcMwDPMj8frNW9zLKdLdMl1YmjEMwzAESzOGMQwszUwElmYMwzCMqVIvQqcItbrQ7fKqaty8ny+uKfdRaDlBl+r1llDXUbfVb5+iv5zSmjY7ApZmDMMwDMHSjGEMA0szE4GlmeFRT6j0o0/z219Cf3v1+rdszzAMYwrQ594nkXcib8SNSnGe8ErktbheVP4G6Tcfolrc91osqxLLaJ1qvbwVqaHo2qBLNXQfrU/b0fbUJrWthh5LtkvRravf5nvRBu2buNqhsDRjGIZhCJZmDGMYWJqZCJ0hzejEgD6i6VJN89uUlmi+Hm2rv31XhPabKhI+ijQ/IaPbdFKlnw96oW3ohKt5aDndr25D7aht0X38NckwzI8Afb7S516luPJcfCg+rgbyxY3cV3XIew3cKKxAUtotFL5RlhdU1aNQpOhNPR6LZbR+sTh8KBF5Kj6UKU/0Lp+I5UViPdqGts9/pbStJk9EtqvXNrVLbdK2L8Q+lYsvAJJp9JndUd9jLM0YhmEYgqUZwxgGlmYmQkdKM/pY1pdC9Ku+GvqXoWVqtESRGrqP1pfbirMLOtGQv9zr7utqQohOkGifaf/FuRVefhIndmLBM/HHPhNnUHSS90LcfiGWl4qUiZTr5ZU42aJKhuapEMvpRIzao5SKNuiSltH99DyLqwzDMCYLfb6SiKoQn3kkqR6+rMONxx+QkVeNtEdVSM+pxrnrxQhLzEBGbo3IG2SK+yhZ+W9xraAG14veibxH9uP3uFksUvIBt0o+yssb4vYNsfx64TtkFbyV21O7aY9eN0l6ThUyc5V2M0W7Wbp2bxZ/wN1nn/CovE6KN/qMpu83sbvtDkszhmEYhmBpxjCGgaWZidAR0oxOWsR5gDwReCVuSCkkzmKevgOe6ELXSRA1SCIRkjyq6HlJl7rbFFpPbl/TmKfvxX1iXRJP9FgkhOixjR3x56BKhKQYVTTkiifpYVkd7j7/JHNP3PHgZa1InTzheyTuyxEnWLkV9TL54g+WFQyvm4YqG/JEWznl9XIbapO2K6gUJ4/icei5qhJPED0+wzCMKUKnA/Q5VyK+I+49r0VGzhucv/ESpzNKEJ1ShOjUxwhOuo1jIecQk1qMmLTHiNUlLqMYpzNLEH/1CRKyniAx6ynOXH+Gs9nPRV6IiOvi9plrz8T9T+W6tH1USqFM5JXGRIvbMalFiEkXbYucFm1Tu2euP8eFm2W48uC1FHMkz+gHE/pBqL1PZViaMQzDMARLM4YxDCzNTISOkGafRKiKqrRW+aU/twJ4UFonf12/8/RjQxRBVIv7ujwQG5DokcJHJ4zU0P20/e0nH3HryQexvSKXHpVRlxpFCNFjGnslFUk9qvii/S14DfF31MoKhNRHr5F8rwKX7lQg+W4FUh5Uyly5r1xSNQMlXZwAUq5S5UJ+jQxdp0oGeZlXLe+n9lIfvpbbXCt4J5+3vEpFPoqniyvOGIYxSehHAfrh5VF5vfz8S8x6htBLOfCLv4Oj0dkiN3A4+DL2+kTK2z5RInQZcwPHYm/ieNxN+J6+Jda/Df+EOziReBcnz9xrjLhNy+j+43G3xHaizahr8IpsGu/I603aPi7apnZp26DzDxF5JR9nrz9H2qM34vutTv549E75E9oNlmYMwzAMwdKMYQwDSzMTob2lGX0U07MupVCVeKE8q8W1/HdS4Fy6U44Lt8tkLorrJIcu33slZdFlEZJD1M0l9SGFpE8V0nQCiNaT298sw/lbL3HxtrJ9Rm617DZDVVbUxbEjfq1vT0govhYhmUjPDZ0wJWW/kJUIUSkFiEkrEidTBYgQJ1SR4na0iKyCEPfHUbVCejHiM5UKCKpaoOsJV0sQn6VURlA1A61HFQ5q5QS1n/rgtXy8QvFvQt01udqMYRhThLr0UzXzTfG9cP5WKcIu5UpptT8wFTt8L2LrsQvYciQOG/efwhafC9jqcx7bxLLtxykXscPvInb5XxJJxq4Tydh98gr2iOw9lYK9ASnyOi2j+3b5JYs2L4jtz2OzzznR3jnRnnKpXlfb3qFrm7Y/EJwO76jrCEh6gLjMEvk9QJKPPpvb8wcNlmYMwzAMQdIsj6UZw3Q6LM1MhPaWZh9EKuqVQZLvPPkkxRd1bYlNK5K/9gdfeISIy/mITi2Ul+HJeVISSWGUWiS7uJA4koIooxixGYpMUtcNu5gr2wi9mCPboF/qSbBlF39AUZXSVdOYvw5IVpWJHcx7BVwtqJFdf6jiIFCcPAWcvQ//+DsN1Q5qhYPf6dvy+ilxf/D5RzglllEFBN0+dfYegi48FMvE/bIK4p64pHbENmIdajcuvVgKx6t5NbhfWodysRNU8cYwDGNq0Ld+UTVkBS91n6TPwn0BKdjklYRVB+KwbE80lu0MxvKtPnDfHYWlIsv2RGH53mgl+6Kxcl8sVu4XOaBk1cE4rD54Gms9TstLuk1trRLrrNgXI7d33x0ps1R3qV6nx1PbpnXXiG03eCZiu+8FHArNEJ/xd2VXz2uF7+R+0w8/7QVLM+ZboJcehY6hSN6qodt8zMAwXRuWZgxjGFiamQjtKc3ooIqecepm8qC0Xg6EnJj1BCEXHsE37pYUQcdib0jhcyyGxNAt2V2FxBAt85PX7yIg6T4Czz2Q0kftJuN7WukKcyQyCz6iDVpGAi0iOR/nbryQ3RSLqurlGGokpoz1AI+qIGiQf3p+SCjGi5M6qoSgLj/ekddwJCJL5ljMDRwJv4qDQenwDM+Sfy9VS9B1NdTd52jUdRwOy4RHSIZ8bqm70SFxfX9gGnzF/SQXIy7nyao0GtvnUVmtPCnjA2CGYUwN+lyj7udU5UwD/tPYYvS5SpVgK/fHYNG2ULhuDMK89X5YuO4wXNYHwHX9KczZIC43iWwMlJlH2SSyWawrMn9LMBZsCcGCrcol3Z6/OVjeN3dzIOZsDMAc0ZaLaEs/tKyx7QDMFe3OF9u4bQ+VAm3z0XPys5t+CLp4u0wOQyA+otvthx+WZkxroNcbHTfViDdQlbhBkw3RxEJqKkXeiOV0P63Hp9wM0/VgacYwhoGlmYnQntJMHFfJAe4fi6f9xuOPOH+zVAozEj4kd45GX4dnWKaUPCSGqHsKiaDDYVdxIDBNCh//hNvwFuvROqpE8o5SRNDuU5exPyi1Qb7RWDEkmy7ceilnR6MB8J+JIzpj/lenMWtIKj58SVKxWlbKBZ17IP9O+puPi7+Lng+qjDgQlCbll3rf7hOXZZchGi+HltF9e05dEeul4mBwGjxonZOXxXNJt9OlqKSEXcyRA1fTuGaP39SjUhz4UjdRhmEYU0NKs9eQXf3DkvPkZ+cmr7NYsiscLhtOwW6VHxxWeMF15QHYrDgOm+XHYCsu7Vaq8VWySncpYk/bUFaLrPGDo4j9avU+5dJWtENt6YeW6bdtT+uLOK89gflbgqQ423b8gvzuo4pgmpGTJjCgH1faA5ZmzNcgCUazkdMs3TTBUmEVTSZUJycjekgpq0VORZ2cbIiGlaAf/UiikUCj4wg+/WaYrgFLM4YxDCzNTIT2lGZ0AEVdM2nA+cy8t3K2Mqoio4oxEmY0psxO/2Qcibgqq8U8QjOl9CEhRjkScU1cpmGH3yUpjehEwiP0qpRFe05elttTdxbajiQRibPAcw+leKIB82kMGxrongbaN1boZIjGe8upUCohaKwy6k5Jg0bT30+ya1+AIr1InklZJv727b4Xse9UiryPnisaT4ekGT0nDbJMPCck2kio0XPkFXUNpxLvyce4cu+V7P6T/6pezizHX5kMw5giTaTZpTwcCs7AusPxWLg1REovq2XHYLP0MJyX7YX5Em9YLPFqjDtFLBOx1IjV0qMNUZep65sv9mpIkzYb2m5sl4Sa4xp/uU9rPeLl5zhVm12+VykFxWvxAS0+ptsMSzOmJej1Rccj4uWGEnGoTLO43nzyUU4olPLgNZLvvlIijh2u0HizOVXKpEJPP+KR2Ihm/qYZzkm40bFfe7xeGYbpOFiaMYxhYGlmIrS3NKOuJTnlygkLdQmkgY5JbknhFZKBA7K74VV5+6C4LeVOJMmydOw+kSzlGFVKkfwhCUS3qfuKrKQSl3tOXpHdFmmbE4k0rtc9OdYZTRRAM5DRQRxVcxnrAZyUZmIfZfdMcWBKY7dRV1SqxKPnRqkquyqr7KiCbKf/JeW5oOcvOF1WmtElRVboiftIMu4SoefEU1eltudkihwfjbp+hifnym6yKQ8rZaUZSUU+wGUYxhShWZSpeyYNrh9+KU98d2RgzaF42S2SKsIs3I/CeokHHJfuwWy3IzBz89TOYnGfXsxlGsUY3Zb36dafrZcm7XyWI7BY4g3bFccwZ8MpLN0TKScKoO72NNPnrScfZTUyVQC1FZZmjBb0/U/HSXS8Ru+V208/yUmXzt0sRVzGYzmGbOjFXIRcyBHJlccRNPYsVUOezX6By/cr5ZiB955/kpML0XEXH1cwjHHD0oxhDANLMxOhPaUZHeTTVP+5FZCzWtKMjgFn78nulN5R16Qs2ydlWTp8oq5LMUTLlBnKkmXXTZJnJMtomdotkULbkRzaH0AVZjfhGXFVVmNR90wa7Jl+Gb33vBYl4kiQKg2MFbV7Jkkz2mea9IAq8ejvpudCCkaSZX4X4SGWeYRkwiM0Q4ow+vtJonlRJZlOIFIVHgm0/eJ+amPvycuyHQpV91F79BzRDJrXC9/LX4e50oxhGFOFvvULxZdAes4bhCfna0ozq8UecHTfg1mLjmD2Is9vi5suWve1MiTOLMV+OKz2x8JtIVjvmSB/VKIfgGi/SWSQ/GsrLM0YLcQhiBRm+ZVA9uMPuHinArHpxQg6p4w/6xV5HYdDxfGYeO/Q65KOQagS/mjMDTkpUcjFXCnQaCZ06lVAY/FR106qOuNjC4YxTliaMYxhYGlmInREpdmjcshB7hOuPpG/WNIg/55yDK5U7DpxuWF8M+qaSRKIxnQhkUZVZzStv1pdRZVTJMb2ivX2B6ZIqUYD4+89qUz7T5VZNGZabHqROOgrFwd/7/HsvXKyYay/eMpfd8X31aMKqoSoRnTqY3mgevz0bXFQeh37xd+0S/xte0+lygNUjzB63sTfHJAmnsPrOBBCEpEq9ej5ycbh8Cx5eUhW7GWL5/UGvKKU5YfFtv4J9xBDs2feq8StJ/Wy+yrDMIypQp+xNAslySf6/qET/7XtKc3aKWZLvOSYaq4bArFib7T43kuWP6AkZZfKH4BojCnxddomWJoxzaHjNJplvPA1kF30Aedvlcn3CY09S8Nh0LHVtmMXsNErCes9z4gkysvN3knyWI1+qDsojkPo+ITGYyXZdunuK9ws/ihnTaeuxXxKzjDGB0szhjEMLM1MhPaUZiSqaCIA+pU8q4AOxsoRfrkA/gl34RlxTc6YSb9g0gHX3sBU7D6ZIq8fEqFqABJGdJvWoWUe4VRNlgEfsR1tT9059wWmY8+pVHjrBBEJJ5JCGbk1cpywUnGWQd0EjPUrgV6RaXfzEHH+Bk7GpcM7NBn7/BOxzSsGq/cEYcWuAGw+HIGNh8Kxbn8olu86hc2ekdgiQstX7Q7EJo8IbBfrbz0SLddZfzAMO33isN07RqwXJdoJxJq9wdh17DT2+iXAM+gCPALO4HjERZxJvYbLGRkoLilRdohhGMaEIGlGFbWZedWIvJwvf4xZdzhBznpJg/Y3dM80sDSjajXLpUfhuOYEFm0Pw0avM6BZkaNTCuVs0DToOv0tbYGlGaMPHRdRpXmxeH/cKvmEi7fLESGO0ahrMP2oudXnPNZ6JGD53hgs2RkpX5eLtoXKyyU7I7B0TxRW7I/FOs9EbD1+Qf54RzN9U+UZyd5rRe+lOKOKM2P94ZJhflSkNCtmacYwnQ1LMxOhPaVZXtFjRJ1LRujZNPhFJuPgiQRsPhSKLR6h2HpYnBQcCMLq3SeweJM3lm07jvX7A7Fmz0ks3+EL9y0+2HAgEOv2nZLrKLeD5Dbr9gZgxQ4/LNroJe9bvz9ALFPW27D/FHZ5heKgXxR8guJxPPQ0kjOv6fbI+KBX5IoN2zDbxhlWjvNFFsDcbp647YqZ1nMwy2YOzO3nwcx2LmaJ2zOtXeRtc7u5Yh3ltpm4biGWzbZVtqFLC4f5cvks2Y6LbMdSLKNtLeznY/ykaRg1eizGT5yIgYMHw9/fX9khhmEYE4LGjVSk2VtEXimU3fvXkzTbGixnwTSWSjMKjYlGs2vO3RSIlftjZfU1jdNJMiP3VX2bZ4JmacaokMSiHxSpGv/eizo5eVJ0aiF8T9+SEwxt8k7Cin2xcNsRhnmbgjBn/Sk4rT0BpzUi4tJ53UnM2RAA142BWLgtFEt3R8luz9uPX5TV74FJD3Dm+gvcKP4gZ4Btq/BlGKZ9YWnGMIaBpZmJ0J7SLCQ8GmOnmmGWjTNmWjthhqUjpls4yMuZVk7y+nRze0wToevqMrpNmWnlKNdtuE3bURvmjevItmiZbNcJ46fMxKDBQzB4yDCZHj17Y8nSZbo9Mj7oFemyaClGjZ+KSdPNRSwwaYYFJs+wxOSZutBt9bp6u8n9ny/7rA3dMrl8phUGDBqEnn93R88ePfCvf/4TBw8dUnaIYRjGhCBpRlVaV/PeIiqFpNlV2cWMTvRp9kyjkmZuR+RMnM5rT8hKni0+52TVD41B+bCsHq/bWLHD0oxRoW6Z5bU05mw9MnLfIj7ziRzvlIbAoK6XK/bFYOHWULisPwWHVX6wXX4M1st8xOtTCV2n7sTUxZnG4qP1aPZX2m7z0XNy7DMSZ+dvvsTdZ7VycoC2di9mGKb9UKTZc5ZmDNPJsDQzEdpTmp0MDMXAERMwYbq5iAUmUnTiRollo9gRlw2iR5cm6zTc1ltHiqDG7abOssGIMePxN8mgnj3Rs0dP/Pzzz5g7d55uj4wPekXOc1+JcVNmY+psm07JNDM7DBk2HH379EG/fv3wyy+/wNPTU9khhmEYE4KkGVW6ZBW8RXRqkezyuOHIGdnNzNHIpBl10bRY4iW7jdKEANRF0ycmW1bs3HlWK8cIbcvpDUszRoXGen0sDkBo4P8k8foKOvdQVmFSl0yqMFu4JVRWk9muPA6rZUflDK/mFHW2WHHdwt1bTmBhRQJt+TE4rvHH3E1BWLonGpuPJklBTTNtpjyoAk0yYMyTMjHMjwZLM4YxDCzNTIT2lGYBweEYOmYKJs+ylpnSwSEZNGrcJPTq1Qt9+vSV+e2337FgwULdHhkfLM0YhmE6DprrhGbyu1ZYg5i0x3IW5o1SmoXBcbW/0Ukz88VHYLfimBxzbaPXWXhFXUNcRgmu08Q275RZqb8XlmYMoU7S9KCsXnbLpIH/vaOzsdPvElYdOC2rMF3WnYKtbqIMkmRUBUmZrRe5rEGiecnqM7uVflKcUcXZdt+Lcnbz05lPcLPkI16IFy89NsMwhoelGcMYBpZmJkJHSTMtydXe6YrSjMYUYWnGMAzTMZA0e0rSrOgd4jKKQbMwk4xSKs38le5mxiLNREia2a/0xfwtwXLCApq4gKRGZn61/DvaIh1YmjGEWn1JVWZnrj2T3TL3BabKbsuLd4RjzoZTstsldRUmKab1Om0ICTR5Sa9dL1l5Rt01qasmTSJwIJhmNc+R1WY0KRQfhTOMccDSjGEMA0szE6EjpJmW4OqIdEVpRoPjsjRjGIbpGKQ0Ex+014veS2nmHXldDnLutj0MTmv8YUnjMxnD7JkUXfdM6hJHkwGsOhCH/QGpCL2YI/b/nRyDisc0Y9oKdc3Mfw2k51TLcf7oPbH12Hks2xMtX3c0hhnJZJJgmq/TL4S2sV52DHPWnxTtRWG77yX4nb6Ns9kvcO9FLSra+BpmGKZ9YGnGMIaBpZmJ0N7SbBhLsy9Cv/iyNGMYhukY1O6ZJJ1i0x5LQbDR+yzctodKaWYlTvCNSZpJ6bDcR1b7LN8bg/1BaYhKLcLtpx/xqo22gaUZQy+hSnGO/KgcSL5XKavADgZnYN3hRNllmWbGpPHJaAwz2R1T63X6hdA2Fkuo2swPi7aHK12MI68hJv2xFNfPxRuSJwRgGMPD0oxhDANLMxOBpVnnQid081maMQzDdAhqVzR1TLOG7pnbQ+XA5VKauRuXNKNucXPWn5LjSx0Oz0JC1jPcfvoJpW2cgZClGUOnx1Ttdb+0DudvluHUmXvYc/IKVu6PxdyNgbJbJnWxNFv8fe8FkmY0SYDtCl/M2xwsu2geCslEeHI+0nPeypls6biHYRjDwtKMYQwDSzMTgaVZ50IHj1xpxjAM0zGQNKMTdXX2zCYTATSvNHPzFif+1CXtayGh0AGRA6t7w2b5cczfHIwNnmfhHXVDSrNbT2vxso3nNizNGFWa3Xteh6TsUvgn3MEOv0uya6bL+lOyyowG9f+eKjOKvjSjCQFWHzyNA0HpCL2Yi9SHb1D4RhmWgmEYw8LSjGEMA0szE8EUpdl8lmZNwtKMYZgfBVWaXc1/K8dvOhKehQ1SmoXKLmSNY5rtxqwFBzF74QHMXvC1iPW+ELPWZqFe1GWLDsFumRfmbTyB1fujsO/kJQQl3cWlW8/w8EUlSl9V4pV+KirwpqpK+WO/AkszRpVmd1/U4mx2qRxvbPvxi3DfHQnndSdgtcxHDv7fJmnm7i1n3lSkWRwOBKbJcflSH1ah4LUyARLDMIaFpRnDGAaWZiYCS7POhbtnMgzDdBxU1fK4GsjMe4uoK4XwDLuKDZ6JcnY/+1V+sHA/CuslnnBy2wRzx8WwcFrSirhrZra9m4yZ7tLccQksnZaKuGvHWS8Ny5bCes5y2M1bCadFazB36SYsXrMdKzftwYad+7F1135sE9muy9bNGxFwwl/5Y78CSzOGTo9fUffMF0qlmV98O0uzxUfEe0qRZvM2BWHNoXg5ZlpYch7SHr1BYRVLM4YxBliaMYxhYGlmInD3zM7lowhLM4ZhmI6BKs1ImmXkViPySgE8QjOx/nAiFkhp5gtz96OwWnIETovWwsLGAZZ2Tl+Jc9PYO8NCd99C91VwW7YGbktXY7G4tHeeCzNre3mflVjvs4jtG9JsmaW90qaFrRPMbRxFOw6YbeWAWbrQdcr0qZOxYe0q5Y/9CizNGKKqHnhYVo8Lt8pwIvEudvolY+meKDivOwWr5cekNNMSYl+OItmUMfl8pJBesDUU6zwTcTj0qnzvZeS9le9FlmYMY3hYmjGMYWBpZiKwNOtcPomwNGMYhukYWi/N1klBZWnv0kLmtBAXmNs6Y9nqzfAPjMSJoGhxGYVTwTHYvusglqxYL9ezsCO55qIRsVxsr962pIj1rSgOFNeGWGvEwmwWtm5ar/yxX4GlGUPQkXBeJZB89xUCkh5g98kUrNgXgzkbAr5jTDN1PbpUxjOzXnYMTmtOwG17BDZ5J8GbZs9MK0JW4Xs8eae8JxmGMSwszRjGMLA0MxFYmnUuLM0YhmE6jsYxzRRpdjjsqk6ahTZ0z2yLNDOzccLSVZtwMjgGEbHnEB6ThLDoswgXCYlIgO+pcFg7zsNsa0cp1z6L2F5GXFflWVNx1rIwo7A0Y74VtcsydZcMvZSHA8HpWOsRj/lbguXsmdS98tukmU6YLT4CS+qaucIXrhsC5eQC230vwTfuJhKynuJmySe8aOMMsAzDtA8szRjGMLA0MxFYmnUudPDI0oxhGKZjUKUZzZ5JEwF4hl/Fes9vlWbawoxCsuvw0ZOIOn0BIZGJSiISEBweL68Hi+trN+3CTEt7Kc5aCsk3fXnWIM40RJl+WJox3woNC/HsHXC96B1i04rhFXlNVoQt3hEOx7XKuGbUzfLr4qxRmMkJABq6ZvpjwZYQOXPm3lMpOHXmHs7ffIn7L2pRLg566pXdYBjGgLA0YxjDwNLMRGBp1rnQweMClmYMwzAdAkmzEp00i04tktJMTgSgmz3z69JMW5ZRzKwdsWrDNinGQqPOKLJMJCg8HgGhp3EqJE6KM5JqU2fTd5QNppvbasQOMy0dmsgzVZyxNGPaGzruoBk075fW4dyNUpxMvIvdJy5j5f5YzN0cJLstWy09KiXYbDctWUZpFGaqNLMU7yWqVJuzPgDuuyKxyStJVnbSJAApD6qQ+6pejqfGMIzhYWnGMIaBpZmJwNKs82FpxjAM0zHISrOaRml2pJk0s1zqAyt3LWmmLcrUUNfJWVb22LR9n+yOGRyRKGVZYJgiy04ExcAvIBoBoXE46HUCE6ZbYKLIpBlWMpNnKpkyS1yK76+pZraYYUHyTKlIkxVnusfh7plMe0OD8Re9AdJzqNtyIY5EZGHz0SS4747CnI0BUn5R1Zjsqrn4iE6eNRVlqiwjuUbCzHbFcTivPSHfW1Rltsv/Mo7H3UZ85hNcK3wv34c8nhnDGAcszRjGMLA0MxFYmnU+C91XYixLM4ZhmHaHTtJp/KbMvGpEp3xeadZEmtEsmDopphUpsHSh21QNZus0D96+QQiLTpKCjMY28wuIwvGTETh2IgJH/cOxcsNOjJo4E2MmzVIyeRbGTp4tM26KGcZPNcfE6Zbie8xKfD7bNhFnJPBoQgAtYWbtyNKM+T5oaIiyT8C953Wy62Rg0gMcCErHhiNnsGRXJOZsCIT9an9YLz8mxymjyQFkl01d6Lr5Ym9YLPGWVWkk2ZzXncSCLcFYvjcGm4+el7NmhlzIxaU7Fbj3og4vxYPS4zIMY3hYmjGMYWBpZiKwNOt8WJoxDMN0DOqg55m62TPlRAAkzbZ+mzTTF2aqNKPuk7Ms7bF2005ZYUZdMmnmzGMnI+DtGwqv4yHwOOIrhdiQ0ZPl96HM2CkYOnYqhouMGDcNI8fPkDKN5BlVoVE3zllWDrKbptJFU0OaObI0Y9oGVZtR9de1ondIuPoMJxLuYn9QGjZ6nZWD+M/bEgyntSdgt8pXyjPrZeK9Qu8XXayX+8Bm5XH5PnJZf0qKaBJm1C1zX0Aa/OPvyCqzq/nvUPgGEP8xDGMksDRjGMPA0sxEYGnW+bA0YxiG6RhkN7RqICO3GhGX83E4NBPrPBMUabZKkWbW3yvNRNSxx9Zv2SMrzHxOhMPzWBAOegVg2ertmDvfHQOHT0TfIePQf9g49NOl/7DxGDB8PAaOmIDBI0moTcWoCTMwboo5Js+ykl01Z1sp1WbyMTWEGUszpi3Q8GKvxf/yK6kS8y3irz7ByTP3cCgkA1uPnceqA3FycoB5m4Lgsu4knNacgMNqf1mBRpfUFdN1QwDmbw4W60Vg5f44OaHAvoAUHI+9Jbt9Jt+rxP0XdXjxSZmAgGEY44ClGcMYBpZmJgJLs86HpRnDMEzHQNKMqlzSc94gPDkPHiEZWHs4Qc7uRwOeN5kIQEOaNZdlatT7SZpRd0oawH/Jio1YtGw95ixcCcd5yzBqwiz0GTQGvQaOQY/+o/B3v5HoLjNCXu8xYBR6ifv7DB6HAcMnYuiYqRg9cZYc+4yqzWhyAKo2k4+pIcxYmjFthbpLvhL/y6usx9WCGiRee46gc4/kjJq7Tl7BRq8kKc/cd0fCbXu4rCajmWfp0m1HmBwDbdX+OFm9ue34RRwITodv3G3xXsvHhVtluFH8Uc5eWy0eh+cAYBjjgaUZwxgGlmYmAkuzzoelGcMwTMfQVJrl42BwBtZ6xGP+lmDYrTwO8y9Is+airHlUaTbbxknOgDlppqUcp2zY2KkYMHwCeg8aje59h+PP3sPQredQ/NZjMH77W0Rc/i7SrddQ/NlnuBRovQeNwcAREzF8/HQ5zhl9p82ydICFjVJppiXMWJox7QGJs0px3lxQBVwvfi9lV9SVQvgn3MXhsCzsPpmCrccuYMORs1h3OFG8fxJk1nkmysqy7b4XsTcgFZ7h13BSbBOdWoiLt8uRXfQBBa+BCtE2j2XGMMYFSzOGMQwszUwElmadD0szhmGYjqFBmj16g7BLeYo0OxQvu5TZrWpZmjUXZFpRpRlVmVF3SpoNc8yk2bJirN+w8bKS7I/eQ/Hr34Pw3z8H4qdu/fHzH/3F9QH4WYQuf+k+UKwzDD3FutSFc8joKXKiAGqLxjWT3T/F42h1zWRpxrQXn0Rei3Nnqgq7+/wT0sT75cz1F4i4XICTiffgE50Nj7CrOCDePzTu2f7AVBwQlx6hmTgadR3+CXcQejEHpzOf4Mr9Stws+SglXHktd8tkGGOEpRnDGAaWZiYCS7POp1OlmZkNpouTO5ZmDMP8CNBEACTNSAI0SLPmlWZyTLP1sLTTjR/Wmjg0qzRrkGazpPjqM2QsuvcdIavKfvpzAP7TrR/+/XtfkX741+998M9f+8hlJM9+7zEEf/Udjj6Dx2LIqMmy0mzyTOuGbp/KDJoszZiOhU6da+qB0g9Kd82bJR+Q9rAK526UIi6jBBHJ+Qi5kIPAcw8RlPQAQeKSbkelFCIh65mcJfNqfg3uv6jFY3G4XSHaEk0xDGOEsDRjGMPA0sxEYGnW+XSmNKNxcqgbEUszhmF+BEia0UQA6TnVzbpnBjWOafat0sxBuWwizXTdM0dPJmk2GX0Gj5EVZL/8RVVl/fGfbv3xr9/64B+/9MY/f6Uo0oyW//r3YCnN+g0dJ2fVpC6ek2ZYyjblDJq6x2RpxnQGVBlWVQ88F2+e/Mp63H3+EdcKa5D6sAqX777CpdvluHi7TObS3QqkParC9aJ3uPe8VnbHfP5B2Z4rzBjGeGFpxjCGgaWZicDSrPPpNGlmxtKMYZgfC5Jmj/Vmz6SZAdd50EQAwd8nzUiY6aQZxVLXPVNKsxlWGD1xJgaPmizHKPurz3D82n2QlGYkzBRZpggzCi2j6rPfew6REwVQ98zBoydjlGiDqtZmWNjD3EaZnVNbms1lacZ0CDRoP1WJkfx6Ka6U1CizbD4qq8OD0k+4r8uDl7XIewUUi/fYC7EejY1G7zk+DWcY44alGcMYBpZmJgJLs86nU6SZTpixNGMY5kdClWaZedWIvFwgx2Ba13z2zNZKM1WY6UkzdUyz5tKMulpS90waz+w/v/eVsuxfv/XFv35Vqs3+8UsvKcxIqJE0I8FGoo26Z1IXTynNZKWZ3phmzYQZSzOmo6HTaRrvjN5HVeIGzbRZLhaUfVRSIa7TWGjVuq6YNOA/CTeGYYwbRZq9QF0dv2MZpjNhaWYisDTrfOYsdJezrdE4Nu2eqWYYP61pJky3QN/+A/DXn3+ie/fu+Mc//oGDBw/q9oZhGMZ0oJN96p6pVpo1SjOqNPNrvTTTF2Y6aSa7Z4ptzKwVaTZxuqWsElOk2Rg5ayZ1z/xPt7743//2wv/+3BP/81MPcb2nvE2VZiTSaMwz6srZZ9AYue3oibMwYYalnFzA3NZZPIaLrDZrLsxsWJoxnQgJNFWiqSFJpi5nGKbrwNKMYQwDSzMToT2lmX9ACPoPHSvHZ+mMjJ9qgcHDR6Nbt27488+/ZP71r3/DxWWObo+Mk+2798N14VIsWrq6/bNsNdyaZfHyNbBzcISFuTksLS0xadIkhISE6PaGYRjGdGiYPTNHT5o1dM9spTRrLsyaSbPZ+tJswkwMHjkJvQeNxp99SJoNxH//GIBuPQajW8/B+KPnkMb0oMvB6NFvOAYMG4+hoyZj1PjpmDDFDDPMbGBm7SD2yQlOcxbAZZ5bgyxThRlLM4ZhGOZ7YGnGMIaBpZmJ0J7S7NzFy1i8fC3WbtzeKVm3eSeWrliDOXNcMXfuPBk7O3scPOih2yPj5Omz5ygseozHxSXtn8clKGoWWp5fUIC8vDyZnJwclJeX6/aGYRjGdKgWKaii2TOrEHYpFweD05tMBGCpk2bOWtJMS5bpp4k0s8XE6RZSmg0aOQm9Bo7GH72H4t/d+srxypYsXd2Qxe6rlCxRQsuWiu/KZSLLV6zDylUbsHrNxobs3LELu3bsgK3zfNlNUxVmLM0YhmGY74GlGcMYBpZmJkJ7SrO3NTV4WVaO8vKKzklFBcrE45WWljbkxYsXqKys1O0RwzAM8yNB3/r5r4HUB1UIvZiLA0FpWOMRj3mbg2G3snFMsybSTEuQaUUnzZTumSTNqNJsBgaNmIieA0ahW++h+OevvTBk1DSERSYgJPw0gsPiGhOul7BYBKkJjUNgaKwMXfc9dhwe+/fBjqUZwzAM0w6wNGMYw8DSzERoT2nGMAzDMIaEKs0UafYaIRdysD8wDWsOnca8zUFSmpk3l2ZacuyzuCqXGtJs5IQZGEjSbOBoOabZv37tLaVZ9OkLiIw9h4iYJCWxWhH3N0tk3AX4HffDgb17WJoxDMMw7QJLM4YxDCzNTASWZgzDMIypoEqzFCnNHmF/YCpWHzyNeZuCYLviOMyXeMPK3fMbpBkJs9ZJs269hspZMgeNnCKFWXj0WYRFnUFYtFbEfRoJjzkH32O+LM0YhmGYdoOlGcMYBpZmJgJLM4ZhGMZUULtnfkmaWS5prTRThZlOmok0lWYWGKk3ptnvPYfI7pmDR01tlGbfIMwoLM0YhmGY9oalGcMYBpZmJgJLM4ZhGMZUaCrNlO6Zqw/GfYc00xdmjeKMtlGkWePsmSTNeqvdM3/rjSGjpynSLIZEWOuFGYWlGcMwDNPesDRjGMPQ5aQZfUS0lO+hLdsaEyzNGIZhGFOhRoRmz5QTAVygiQDSPxvT7MvSrKkoI2lFaZRmLjCzcdRJM6sGadZn0Bj80UeZCEBWmsU1l2afC7Lmocq0iJakmZMSlmaMqVN4/x6Kb2Sj9t59fLx1G/Vv3ujuYRjmeyFpls/SjGE6nS4hzarfvpVi64MIHUireae7fK8L3a+fjyKfWgjdR+uo26rrdtWPIJZmDMMwjKlA3+2F4hw7PecNwpPzcDCYpBnNntmaiQC0hVmL0myGFUZPbOyeSZVm//m9L4aMma4nzVoXEmYszZgfkbIXL1B07hxq0zPx/koKzs6diwsWlqh0mYsKW0e8PRGAD1ez8CE1He+TL+NTTq5uS4ZhWgtLM4YxDF1CmlXUvJWDApfXAqWfgOcfgGcizz8CL0Ro2UtdysQ65eKS1qW8otTpone9Qnc/rU+hZVXiMehAXdzscvKMpRnDMAxjKtCPYkXiiz8jtxoRl/NxKDgDaz3iMX9LEOxX+cKCKs1Imrmth6W9vjRrWZi1KM30u2cOGoO/+gyX3TMHU/dMKc2SNAVZ86jCrEVpphNmLM0YU0EcOqOmuhr34uKQu/8gsqZMR5WNA8qt7FA8eTpKJk5B2aTpeDlxGspmW6Kc7rO2l9crl63Cp/x8ccDNJ/8M01pYmjGMYTB6abZwjj1K3rzFi09AwWsgp7weD0prcf9FLe6J0PWHL+vwqEwJ3Z9bAeS+AvJECiqV7QqrlEt5nS7Fcrqfki+uF4n7n9QALz8CVeJziKrQutLHEUszhmEYxlSgCvDH1UCmlGYFOBSqSrOQBmkmK83c1umkWVNZpqZladbCmGaDxuDP3kO/SZrpy7IWpZkjSzPGtPhUW4usyEg8PuiBzKnTUTptFl5Mno6yKTNkKmaYiZijTFzKiPvV+15SJkzB67Ub8DYwBLXFJaj/SH0+GIb5EizNGMYwGLU0s9NJs5yXb6UIy378Qf7qnPLwNS7fe4XL91/JQYLTHlYhVSTtURXSH71BZt5bZOiSmf8W1wpqcK3wnUyW7jpdXs1XkiVyveg97jz9JB6nHk/eAa/Fk9OVvr5NWZrR1wJV/1E+6UVd1jx0H0lP/bTUhZdC/85qvtQuhe5X16Xb9CsrwzAM0740SLO8akReKcDhsEysO5yABSTNVrdOmjUXZmq+JM16DRiNP2gigN9VaXb+i9JMS5hRWJoxpszH2lqkhYbg7MRJeDZhCiqmzUbZ9NkoVwVZa0MibfIMvN6wGW/9TqC+ivp8MAzTEizNGMYwGL00W+DigFviyDn78UdcvF2G05lPEHWlEFEpBYhNf4zoVHE9tUBcPkbC1SdIyCwR65QgLqNYpAQJWU+ReO0ZEuXlU5y5/hxns1/I2/GiLeX+pzh3oxTJ9yqkTMspq0dZndI9pKt8JJmiNKPnnqQWdZml6r9K8W/ySlyqXWxfi+uv1Uu9VIhl1PVWdtn9qKRUL3S7TNynplysT9tQqN1K0Qalebv0+BS5Lt0WoWFt6XVCAo1hGIZpH0iaFb8Frua/ld/5h8OuYr1nIhZspUozP1i4+3xRmmnJMjVW9nNg0SDNbDFhuiVGTpiBgSOUMc3+6D0U//tLTwySEwG0gzRzYWnGmA4f6+qQFhKCxAkT8XziVLzSkmFfDFWficxUQqKtfPJ0mTceR1icMcwXYGnGMIbByKXZVMx3tkfmo0pcvl8pRVnguYfwT7iLk4l34Rd/G76nb4nbd3DqzD0EJj2Q12k53X/q7H0EiGUnxPXApIcIEtvS1PUBYnlgkrjv7AO5jNoMOvdISrjkuxW4++wTSsTBOomSOt0TZeyYmjSjrwKSUSTJSHQV1yhdaKl7bX5lvQx1sy2sEpdvaMBoulRC6+S9qsOj8nrZZffhy1o8oJQql3Rb7coru/OKdfPEA+Xp2i0Q//AUartIr+0CcZtmc1PWEfsj7pNdej8pUk/sJsMwDNMO0A8mJeLz9WpBDaJSi+AZnoUNR85g4bZQOKzWlmZagkwrn0mzaZYYOZ6k2UT0HDAK3XoNwf/+tyeGjKaJAD6XZlqSrHkiYs/B9zhXmjGmxaf6OqSGhiBx/AQpzCpJfH0mxfSjE2T6kqyl6KrO3hw+grqKV7pHZBhGH5ZmDGMYjFuamSnSLPnOS5y98RKhF3OkAPOJyZa/OntFXod3VDaOx93EkYgsHAzOkAfWR0TkOuGZunWuwzfuFo6KdSnHYm7IbXzE5eHwq/AU21K7kVcKZTUbVZsVVdfLKqau8pFkatKMTphImFFXWeqae+dZLbKLPsiutlR5oHa7vV70Tnatva7rfisjllOXHuquS913U+5X4sr9V0qXXpHUh6/lfWqoSy91+6U2KdR+VoGuXRG1XfV6lry/Bjcef8BdsV+0f7SflWJ/ueKMYRim7dB3AP0oQZ/tsWmPxXf8NWz0OotFUpr5fybNtORYS6HumRY0EYA1TQTQVJoplWbD8M9fe2OIRvdMLUH2WWJYmjGmR119PdLCQnUVZtO+IsyairIvyjL9kDgbNxnvEs/qHpVhGH1YmjGMYegi0qxUSrOwi7lSdFFIhpH4Inm2LyAFh0LSG6QZTU2/++QV7Dl1BUejrsNLHGwfCE7DXnk7G8djb4r1M7BHrLPd96LchqrUQi7mIDa9WAqXp+KInbrecaVZ50PPOT33zz4qEz+QrLpyvxJJN0plt1rqoks5c+0ZzlwXufZcXj97/bnsiptwVayTUYI46r6bUijHw6HZ1+h6jDj5UlKEmNQiWV0o1xWhbr1qu9QOdeWlS+rOezZbPIZ4LOrOqz7WuZulSL77Cln578R+1uFFrdKVlGEYhmkbVLn79B2QLT7/48T3slekTpptD4XjmkZp5uS2DlZtlGY0phl1z2yYCKDJ7JmN0kxTkDVPjBKWZoypUf7yJQ6PHYunEyZ/XZjR/foy7BtSNn4yXq9Zj9ryct0jMwyjUltXh/wSlmYM09l0CWmWcrcMZ66/wMnEe7JK7OSZe/CJzsaBoDQpvXb4XZIH1CTQ9p5KwS7/ZBwITMP+gFR4hGRg94nLilQTUSXbtmMXpDSj6/QLNlWjBZ57IAUMVRNRlz8au6qrVA6ZkjT7JEJVZvRvcKP4E5LvlstKA9m1NknpUnvqjNK9lrrahorldB8tV7rePpA5EX9HVhxSF15aTttQReGx2BtyGa1DryV/sR516Q0+/0jprivalV17RWhZ6KVcsVws03XppYpHpavvI0SnFuHCrTJZcaZ26aX9ZxiGYb4fkmbP3tMEQO/ljxrekdexyTsJbtvDpDSzXKpKs/WwsnfRlGNN4qiLuE5dOS1JmtnoJgKYYYnRE2dhyKjJ6DN4LP7qMxw//dEPw8bOlNIsIibpczmmFZ0w+5I0s3WaJ2NpNgtbWJoxXYgzRzxxbsTIFsYwI4n2/aKsecrGTcK7C5d0j8wwjApLM4YxDF1Cml2+U4qk7FKEJ+fLscro4Jlk107/ZFlVti8gVV7uOnEZHiGZOBiUDg+SY6dS4BGaIUUZdd8kyUbbUMXZAbEO3SbJdkhsS+2GXcoTj/Mc6Tlv5HhWNCg8S7POh7rlvBRPPFWZpedUywkeSFLRv5FPzE1ZZegRmikrDv1O35KXJD5JpPrH35aijKoH6d/1QFCqrCxUqwvp33x/YKqUrCRK6bVBrx26TZWLdEnb0n3HxDZHRZsy1MX39G1ZqUj30+PR/VEpheI180J2Icp7BVR1oS69DMMwxspn0kx8ButLM6tvkWaqMNNJM4ql/RwpzWZY2GHyLGuMmzIbw8ZOw4DhE2QXzV//HoiRE2a3XprpCbPPpJneRAAszZiuSGV5OTwnTsQTmimTpFYzUdZeskxN2eTpqFyxGvWvaS57hmFUWJoxjGEw+okAaPbMjEeVuHT3lexmRxVCJDmOSNmhSJCdfslSftDYZIdCM7H3ZIq4zJCywytSLAvJxHbfS9h94go8wxVJQqKNKtK2+10UB+PX5AQCJGao297VvLcorALKahWB0xU+lkxJmtGsac/FE3/veS0u362Q3Sap4oukGP2bk+jcpxNfVEFIrwG6TWKL/n1VGUqi9HBYpvz3pttSsupk6X5aJyAFB8R9JMFoHZJqdD+JMdqO2qJlJOVk22IZPc4e8fqi2/SaoWozqoK7VlAtB61+I14sXaVLL8MwjLFC371PaUyzoneye2bzSjOrZcdgtbQV0kxfmDWRZi4wt3XGTEt7TDWzwYTpFhg1caasNus3dLycQXPsFAtExZ37sjRrJsvUfC7NGoUZSzOmqxEjXsfJo8ehfPrsDpVlDSEpN34K3l9OEQfhLAcYRoWlGcMYhi4gzZTZM8/fKpPdJ0+euYuj0TdkpZHaFXOPuPSKuA6qHtsbmKKMZRadLaUJVZ+RLKFunCTPSI7Q/Tv9L0nhQrc9wq9KMULd7s7feomreTXIrwQqPvFEAIZAlWbU5ZFmTY3LKJbdKqm6i4QXTfRA8oqu07893abXAwmu/YFp8AxTJonwCL0qxdjuk5elJKXbcjvxb75PvE4U6UYS7orsqqu+ZuRrRHebunLS49JrbdvxC7KLL1U80Hp0eUq8Hkm03ih+L2fcpC69PIsmwzBM2yBpRhMBXCuskeNQ0udww5hmaxVpZv21SrPmwkwvNK4ZddGcbe2oVJvNtMK4KWYYMW46Bo+cjN6DRmPKLDtExn5BmmnIMiVJiIg93yDN7F0WwIalGdOFOWhjjfsjxqBqtlXHibLmmToLr9yWoq6qSrcXDMOwNGMYw2D03TMXONsj9V45zma/RPCFHPgn3JXy40BwhhQgdCBNVUMkxEiYeOm6z5EkIfFB1WWHgjOlUKNltI2cMCAiS8oTkh8kWEIu5CLicgESrz2XU9w//6gM6s7SrPMhafZCPP8PS+vlBABxGY9x6sw9nEi4I0UX/RuS9FT/7ejfdtcJpdqQuljSvz91wdxK49aduoIjYhsSYbvFOiTQvKPFa0SsS68Xul8Z807pxkvbKUIuHT7RN6Qk2+F3UbZP61H1Ga1D61PlQ8TlPMRffSInj8gpB8preUwzhmGYtkLfA1S9SzMV09iR9OPIhiNnsGhb0zHNnN3Ww1pLmmmIMv1IaUbVZjZOmGXpgGlmyoQAJM6o4mzQiAmYYenYsjTTlGVqWJoxpoWnsxPujByDqlmW2oKrI0JVbeKy7uVL3V4wDMPSjGEMg1FJM3uLWeJA0qwh5rNmwdbGBvt9wrHHJwIb95/Eiu0+WLT+MFbtOI6V4vqyLd5YtO4Qlm/zwdpdvlghLt03eWH+6gNYvNELq7YfF+schZvYxm29B9aIdWjdpZtpu8NYu8dfLDsO9w0HsFRkxZbD2ON1Cp7+AYhJOttlBIipjWn2Qjzx91/USmlGM1WGX8rD8VhFYu0PIrGVIgWW0sWSulsq3TVJiNLEECS4qAqRqglpHZJjVFFGsouq0mhMPKVLJnXPVCaHUKrV0nE0+rpcb5c/Vagp21J3Tao2o+o22o6q0PxOK5MHnL3xApn51ch/DZSK/aaTPYZhGOb7oc/R4rfA1fy3cuxI+jGEpNnCrSFwWO0Hi5akmYYg04xY18p+DixsnWFm7YSZOnE2aYYVxk81x4hx02Bu56otzTRFGUWspwtLM8ZUqK+vx0U3NxSMGY9Xsyy0BVd7ZpY5KsTjVEyfjQoLG9SVlen2hGEYlmYMYxiMRpo5idhazJJdJJpnyixrTJltIy9pwF6KcttGuT1T3BaXU9V1ZorlInT/1Nm2ynoatylTzezFAbIZevfpgz59+4r0Q99+/fDHn3/C1t5e9zQZPyZXafYJeFRWh4zcajmjKc1kSVVkh8OVSR2oGowmeSDRRd0k6TpVkVF1IVWCkdjaK6sNL8v7VFlG4oxOvg7TdiTZqErNP1lWnR2PuyXl2G5qI0hpQ5kogGZgTcYO30vwjLgGL/l4mfK+0Iu5uHi7TO7nvRd1KPvAlWYMwzBtpbk0o8/b9Z6JOmnmC4ulRz+XZlpyTDNzFWmm66JJY5uZWTvK8c1InNExxZjJs2DjtKCpNNMUZWoahRlLM8aUuHYuCQ/MLVE5bZa25GqPzKJYKLJMDUszhvkMlmYMYxi6hDSbNN1CyQyKZSsitmllSJyNnTQDPXv2RK9evWR6ivz666+wsrbWPU3GjylJM/oaoPmSit5Q15z3OHfzJcKSC3Ai8b6UVpRjsTRr5k14R9/AvsA07BU5Enkdh8OviWRhb0AadsgJIrJwNPomDoVelTKMuvH6nr6DIzQGXnA6DoZQV11qk6rLaB2aMIC6cN6QXX0PBJNES5GzsR4U26rbHRWP7Z9wD5FXCnEmuxTXiz7gyTtA/McwDMO0EX1pRp+zUpodJmkWDPtVqjTzbJRmmnJMK3N1EdfVajNVnFFXTSsHTDe3E8cHlnB0dWuUZpqiTE1TYcbSjDElwvfsxrURo1HdEV0z1aoyrbA0Y5jPUKRZKUszhulkuoQ0a12UirNvzZRZthg3eRZ69e4tq83U/N6tG6xtbXVPk/FjStKspLQUtwpLcPl2CWKuPELQmZs4Gp6GXcfPYJNnDPadPI+DARex3ScB6w9FYdXeMOzwScTeE+exxes01uwPx1bv09h+NAE7jiVgnVhn85FYuf3O44linThsFO3s8U/Cbr+z2O17FhsPx4jtIkSbiSLxctu1ByJFuwlym12+9Nix2HY0Xj7+AfH4tA+eIZcRfv4OEtIeIv1eAbLzCpD7+LH4MuM5NBmGYb6XlqTZgq0hUpqZux+F5TdLM0WYkcCy0S2zcqCZNHXiTITEmZRnFvaYu2hZK6TZ58KMEsnSjDERnhUU4P7c+SidOA0VWuLrW6NVVaYVlmYM8xkszRjGMHRxaUbiS738vnxJmtmwNDMIuw8chsvCZXBdvAYui1bBcf4K2M5ZCivnxbB0coOt61JYuyyR180dFsHMYaHufrHMUSyzXwibOe5yPSunxXId2tZu7jJYi3UsHBfBQmxrP2+ZXM9SrEPLzKkdsY1cRu3Idt1hR+2I7akd2t5+/nK5jrXLYjjMXwbHuYsxXRzgzTK3wgwzM7i4uqKmhqaRYBiGYb4HGtuSJgL4vHtmqPaYZk3kWPPoy7LGNFSciajyjLprUvUZibP5S1YgMu4cImJJhLVOlpFgo7QozZyVWJqzNGO6DmELF+LhqLF4LY51NEXYl/KlarIvhaUZw3wGSzOGMQxdVJppC7DvCVeaGR/zF6/AsDGTMWHqbEyYZoaJIpOmm4O6506mLrp0XYSuq9G/X97WWqZ1W3NZy+vIdmfQY4vMtMDUWZYYNXYCuv/5B7p3/wu///YbhgwejCqeIp1hGOa7IWn2RDd7Zkxq0dcnAmgiyfSjLcz007Cug2vDMnNbJyxYsrIFafa5LKOowqxFaaYTZizNmK7GIUdH3BkxGlWzWinNWltN9qWQNDOzYmnGMHqwNGMYw9DFpJm2+GpLviTNrFiaGYQlK9ZirPg3oYkdjC5mSqbpMsPCHuMnz0Af8frp27cvevTogdGjR+PNmze6v4ZhGIb5VlRpdq2QpNljHGmDNFNFWKvipFzSrJoL3FdpSLMvy7IWpZlol6UZ01U56joH90eNbZU00xRg3xOSZpa2qCsv1+0FwzAkzQpYmjFMp9OFpBlJLvWy/fK1SrOu8pHE0qwT0kyY0SxrMywcWJoxDMO0M2r3TKo0i9arNFu0LQyOq/1hudQH1u5H4OK2Hlaa0uzrFWafhYSZLhZ2WtKsdcKM0kSazWFpxnRtbpxJRO6M2ahoaQZN2QWzHYWZSPmkaXh73A/1H+jTgGEYgqUZwxiGLiLNtIVXe6QladatWzdY2tqiVvdEGTsszTo4GsKMpRnDMEzHoD8RQFNpFvq5NHNoLs3aJsy0pZl2tIQZRZVmh/btZWnGdHno9PzywoUonTy9cTIA2QWzfUVZQ2aYySqz2sfFyg4wDCNhacYwhsGIpRlJrY4VZhQe08z4MDppphNmjdJMEWYszRiGYToGfWmmTgSwwTMRi7aGfEWafaMwaybL1JA0W7h0NWISLiE6/iKiTl/4LNFfSEz8Jfj7+WHnju2wc5kv22RpxnRV6PQ8JyUFOZOnyW6THSbLdCkfOxE1/qcArjJjmCawNGMYw2Ck0kxbcHVEpsy2xbgpLY9p1lU+kliadUA0ZRlLM4ZhmI7mncjjaiAjtxoRl/PhEZqJdYcTdGOa+cJy6dFm0qx9ZJkaS3sXzHVbBh//EHj7Bjfk6Jfi1xjabu++A5jntkS2py/MWJoxXZEPHz/iipsbKiZN1xRd7ZXyKTPwytoen3JzdY/MMIwKSzOGMQw/tjSbZY0pZl+WZl0FlmYdkM+E2edhacYwDNP+kDQr0kmz8OR8HArJwFqPBCzYEgz7Vb6wWHoUVu6eOmk259uEGaWZJNMKVYjNWeCuy9KvZ2FjXEWc57vJdpoLMzuWZkwXpK6+Hq9yclC1YjXKdd00taRXmzJlBirtnfAh+TLqP33SPTLDMCoszRjGMBihNNOQWx2RWUq+JM24e6ZhMCZppggzlmYMwzCdiSrN0nPeIOxSHg4GK9Js/pZg2K30hbl7ozSzdpijLcZaSjM51mLEulb2c74e8fhaoe6iWsKMpRnTlanNL2hfcTbbAq8oUxVh9j45WfdIDMM0h6UZwxgGlmZmLUszmgigTvdEGTsszdoxZkq+JswoLM0YhmHanw6TZlpyTCO2MvNaFz0p9qWowoylGdPV+ZSXj9cr1sgZLiumztSWYa2JKsymTEelg1JhxjBMy7A0YxjD8GNKM50wa4004zHNOh+DSjOdMGuUZtqyTA1LM4ZhmPZHX5qFJ2tLM0t3Tzh/izRrJsZaiqYYayk6Ifa16AszlmaMKVCbl4+qlWvxysYBFdNmaUsxraiijDJjNiomTZXC7D0LM4b5KizNGMYw/FjSTE+WfU2addONaVare6KMHZZm7ZQm0kxblOmHpRnDMEz7o04EkJn3FhF6Y5o1kWZLvkGaacgxrWiKsZbi3Lo0F2Z2zvNhaT6bpRnT5akteoyP6ZmoXLQEZZOnKl02Z5hpyrIGUUaZKdaZNE12x3y9eCk+XLioa5FhmC8hpdkTlmYM09mYvjQjOaZeauRrlWYszTofg0izb5RlaliaMQzDtD/vRVRpFnWloGH2zAVbQ5SJAHTdM78qzTTEmFbauzvm56KMMr8hLM0YU+LjjRuo3LAebzZuxSsHZ5RPmoqKaTNlXjXJLKUrpqUtqlatxbuoGNQWF9MsA7qWGIb5EizNGMYw/BjS7Av5kjSz4YkADEKnS7PvFGYUlmYMwzDtD0mzYinNqhF5pQCHG6RZMBxW+8Fyqc/XpVkzMdZSOnr8subCjKUZY4rUlZejvuIV3sXE4c32najed0AvBxuzcw9qTgWh7mUZ6j980G3NMExrYGnGMIbBtKWZhiRrHpZmxodhpBlJMJZmDMMwxkBjpVk1Ii7rV5rpS7MjciIAGy1p1kyMtZSOF2ZNZZkalmaMyVJbi/q3b1FfU6OXd415K25/+KhbmWGYb4GlGcMYBtOVZhqCTCsszYyPTpVmDcLs+8LSjGEYpv1RJwLIyK1GuDqmWWulWTMx1lI6u0umfliaMQzDMN8KSzOGMQymJ800xNiXwtLM+Og0aabrksnSjGEYxrioESkUH6Npj5TZMw/J2TPjsWALSTPflqVZMzHWUgxVYSbjwtKMYRiG+XZYmjGMYWBpZsbSzNjoFGnWIMy+vUumfliaMQzDtD9vRQqqgLSHVQi7lIuDwelYeyge8zcHKRMBNJdmzaTY16Ipx7SiE2JfSlNZpkZDllFclLA0YxiGYb4VlmYMYxhMR5ppCLHWhKWZ8dHh0qwdKszUsDRjGIZpf0ia5VcBKQ9eI+RCDvYHpmH1odOYR9Js5fGG2TO/RZppSrGW4ty6tFqWUXTCjKUZwzAM8z2wNGMYw2Aa0kxDhrU2LM2Mjw6VZjpZ1h7CjMLSjGEYpv35kjSzW3kc5kuOwlI3e2ZrpJmmGNOKc+vTamGmJ8tYmjEMwzDfC0szhjEMXVuaaUiwbw1LM+Ojw6RZOwszCkszhmGY9ofGNKPumVrSzFaVZktaJ8005VhLcf56Wi3LKBrCjMLSjGEYhvlWWJoxjGFgaWZmi/EszYwKlmYMwzA/Nqo0S31YhZALud8tzTTFWEtx/nraQ5hRWJoxDMMw3wpLM4YxDF1XmmkIsG/NFBESKCzNjIsOkWbtNIZZ87A0YxiGaX/0Z88Mu5SHA0Hpn3fPbE9p5vz1fC7MKPO1oyHK9MPSjGEYhvlWSJoVsjRjmE6n60mzZuKrLWFpZpy0uzQT/8ZqtMRXW8LSjPmRoEO0Ot0lw3Qk70WKqoH0nGpEXM6Ts2euOXQa8zcHw26lb8NEAF+SZppyrHmcW5dWiTL9aIgy/bA0YxiGYb4VlmYMYxi6hDSbNMMKk2aKqJdtzGS9TJltg3GTZ6Jnr15SnP3dowf+6t4dP/38M8wtLHRPk/HD0kwjet0xO0KYUViaMT8CJMo+iFD1Dw3Q/k7kowgfsjEdBUmzYvFiy8wjaVYAj9BMrPNIwPwtwbBf5aeTZkfg4rYBNo6N0sz2W2RZS8tbkS9KNA1JpsZeF5ZmDMMwzLfC0oxhDEOXkGYTpltiwgwRumxjJjbLJNH+mInTpSz7488/YWVtjbXr1sFt8WIc8vDQPU3GD0uzZukEYUZhacaYOrUiJMoqxPHZy09A6UegvA54I26LmyzOmA6BJG0JSbP8t4i8UgiPsEysO5yABao0W+rzmTRrtTDTiyrbGqWb9npa4kw/nwk0PVHWXJixNGMYhmG+B5ZmDGMYjEqa2VvMgpmZeUNmzZoNK2sbeB71hY/fKRz1Pdnm+DTLMdGul48vdu/ehS2bNyMrKws1NTVSetBlV4GlWbOwNGOYNkMVZtUiZeLKk/fKGFM0ODtVAJXVKpVnJM4Ypr2R0ky8wLLy3yIqpRCHw65ivWciFmwN+UyaWTvOwbcIMxuZubBxnCu2FXFwbRpHNbr7RWjdhkjBpraja7eJQPuyMGNpxjAMw3wPLM0YxjAYjTTTiu3sKVg0xx7V1dWor68XHxB1HZCm7XZVWJrpxazjZZkalmaMKUNd5EiYkbzIewXcf1GPhy/rkV8pPnPEnSTO6JXO4oxpb6j77xOdNItOKYJnWBY2eJ7Bwm0hcFj9eaVZczH2pVg7KaLMSsTSfg4s7Vyaxl6NuE8XK/04UJTtKYpoU2Sa+hj64qy5MGNpxjAMw3wPLM0YxjB0CWn2/h2NoMN8CZZmahqFGUszhvl+qFsmvYpJjuVU1OPOszrcLP6I208+4f6LWuRWACXivkqxDlUF0foU+umBwodzTFsgafZUfPVfK3yHmNQiHAnPwsYjZ7BoW6iGNHNtIsW+FBJbVEVGIszCzhnmts4ws3bCbGtHzLJyxGyKuK7ESd4nY9MYczViW3NbF9GOIthUgWbrKB5LV3GmJcwoLM0YhmGYb4WlGcMYhi4hzWre0og6zJdgaaaLWecJMwpLM8ZUIWlB45hRd8zbz+pwrfA9MnOrkZ5Thevi+qMy4NkHRZpRF076lKbumlSdRqHtSaZRFRrJNIb5Fuj180y8kK4XfUBc2mMcibyOjd5JUpo5rvaX0sxSnT2zVdJMqQQjqUWCi4QXibGZVg6Ybm4vPs/t5Gc6fY9MM6Mon/HT1ZjbNWQGxcIOMy3sMdPSQZFt1opEI4FmZe8qu3Gq1WZNhdkCGZZmDMMwzLfC0oxhDANLMxOBpFnhjyzN6GRHF/VkpzPC0owxVUhalNYCua+A7KKPSHnwGsl3y3H5/ivcLP6EgtfK/eVivTJx7CZuyso0Emf0iU0iTb1NtcIszphvgWTr8/fAjeIPOJ1RAu/I69jknQS37eFwXHNCJ81aX2mmjF/mCkuHRmE2w8JefGfYyAmHJs6wwoTp5hg31QLj1UyzwAQZS0xqmEDISq5Ls3nTdlNmKt8/JNNmWtpLeWYh2qdunPSYsuKsmTBjacYwDMN8D1KaPWVpxjCdDUszE4GlGUszhmlPqEqs9BPwsKwe1wre48qDSly5/wpX82vE7Xfwj7yAExGJyM4rQpVYV602o0u6TRVodEnLSJpR9RmJMz7MY1oDSbMX4kUopVnmE3hHqdIsTEozy6XHYO3u9WVpphuYv2HQfwdXWNi7yC6WJLjou4NE2LgpZhg9cRZGTpiJ4eOmY4Sa8dMxcvwMmVETKDOVTJwp1x89aRbGTjLD+Knmsh2SaCTPZlk5wJwqzsTj0UQBjd00WZoxDMMw3w9LM4YxDCzNTIQfU5o1ijJDCDMKSzPGVKFKM5oEgCrNbpd8QlbBO5Ea+IScw/rdPug/dDT+7tUPzvPmI7fkiRzHjD6p6ZVP4kytMFOjdtnkwzymNXxWaaYhzaxaI83Epb40o4H+qRqM5BZVi42dPFtKsaGjp2DQyEkYMHyiyARdJmLgCCWDKOJ+ymDKqMkyQ8dMlYKNRNrYKWayzenmtrKSjbpq0gQBjdVmLM0YhmGY74elGcMYBpZmJgJLM5ZmDNOeUFVYlTgmo8HYc8qBRyIBcakYMnI8/uw5ED37j0CfgSPxa7e/4B8UJA7g6qQYU8cxI+iSQrJMvc6HeUxroNcKjWmWTWOaZZTgqJ40c1pzAlbLqNJM6Z5p21ya6SrMVGkmxZnjXFn5ZWHrIscgo++P8dPMZQXZkNFTMGDYBPQZPBa9Bo5BjwGj0KO/kp4DKaPFcl0GjUFvXWj9fkPHY+DwiRgyaoqsTBs72UxWnNF4ZzRZwGfVZnMWyLA0YxiGYb4VlmYMYxhYmpkIP6Q0MzOsMKOwNGNMFTocIwFWTuLsPVAoXtJzl6zHL916yEqbqbOt5eyDI8dPwmJ3d7wsp9HNmkJtaIVhvgaJVhK214veIza9GF5a0mypUmn2RWmmE2eqNKPxzGjw/imzbGRl2LCx02RVGUmw7v1G4s8+w9Gt51B06yUiLv/orVz/o/cwGbpfRlz/q88I/N1vlNy2/9DxGDxqkhRn1F2TvqNIztGkA+rYZqowY2nGMAzDfA8szRjGMLA0MxF+PGlmeGFGYWnGmDJ0SCbFmciRgBhdN7XxsoJm47Yd2LB1JybPmIW9e/fgTRWNYMYw7QO97p7UQHYJjkml2TOvYZPXWTkRAEkzpXtms0qz5rJMDUkzJz1pZmEvXrdWGD15NoaMnoq+Q8ahe/+R+L3nUPz69yD896+B+KX7QPz3z4H4+c8B4vYA/Cpuy2XiPuX+Qfjt78FSrJFA6zlglKw6GzpmCsZMmoXJM62knKNJAWgCAjuxH7JrJkszhmEY5jthacYwhoGlmYnwY0gzWyVmxiHMKCzNGFOHDsv8w6PQd8go9Bs8GrOtHLF1524EhoZg1YZNsHd0wu07t5WVGaadIGlWopNm0alF8Ay/ig2eiVi4LRQOq/1gudQHVkt10szJVVuWqdFJMxrTjKQZzZpJY4+NnjgTg0ZNlpVif/YerhNmA/DTH/3x79/74V+/9RWXffGfbv1EaBldV26TTJNCTeS3HoPxZ58RsrsmVZtRl0+aGEBWmumNa8bdMxmGYZi2wNKMYQwDSzMTwfSlmfEJMwpLM8bUCQ2PRJ+Bw9F70Ej5Xly5bhMioqOw38MDCxcvwYXz51FbSyNQMUz7oUqzq/lvEZVSiMNhV7HeMxELtobCfpUfLEiaqZVm3yHNJs6wlIP3DxwxSY5V9kevobKSTBFmffDPX/vgX7/1kaKMLv/xS2+xrLcUZrRMLtcJtd96DJFdNmnsM6rGpHZJypE0o8kAqHumHNNMJ8xYmjEMwzDfA0szhjEMLM1MBNOWZjph1kyaaUmszg5LM8aUiY2JRb9Bw/F3v2GYMM0czvPdcMjLC74nT8Jhznw4urhKqRYYFIJTgUHaCdDOyZMBiIuLw8ePNHoVwzRFX5pFXtGQZu5H2yDN7GQlGFWEkeSS0qz3MNntUq0oU2XZ//7Sq0GY0W2Saf/QLaNKNJJs1FWTxj2jSQJodk3q9jlpppWUc1RpRvugzJ7JlWYMwzDM98PSjGEMA0szE+FpqalKM21hxtKMYTqW9+8/YPpMc3TrMQAjJ8zALEsHuC1dhdUbNsPBdSFGTZyBAcPGomf/4WKdvvijR78vpD/+1E/P/ujWvQ/6DRiMUwGBukdkmEYapFlBy9LM0t0Tzm7rW5RmNI4YpcmYZjaN0oxe1yS5SJrR2GRql0sSZiTJ/pdk2W8kzJSqMxJl//vfXvI+Wkbr/ef3fvj5j/5SuvUZPA6DR02WlWY0phlVmtFj0uNzpRnDMAzTVliaMYxhYGlmIpimNNOWZcYizCgszRhT5WRgMPoNHS0HNp88wxJm1k6wFSf+U81sMGzsFAwZPRmDRk5E38Fj0GfQaPQZ3DS0XGbI5+k3dKycsfDvPoMwfcYsvH79WveoDKMgJwJ4B1wrrEF0ijKmGUkzdUyz1kozeZ2kmTp7po0TppvbKd0zdZVmNIg/STOqNFOFGVWRqWOaNcoyqjRrrDij69Q989fug+RkAL0GjpHSbOzk2eK7ywazxXvGyn6OIs30qswcWJoxDMMw3wFLM4YxDCzNTASWZoYJSzPGVHGd7ya7ZdLYTDTbIMmG2daOUgZMnGaOidMpFrLb5oRpFvL6pBnicoYlJs20lLMTTplFsZbbkGybJjJdhGQCCRaFOPYAAKLOSURBVLhpZtaYNGUqLp4/r3tUhlGgTrtP3wHXC98hNu0xPMOzsOHImUZpttTni9KsocqM0iDN5sBMvI5nmNthgq7SjORtz/6KNKMqMynEqMLslz5SlP3fn3rif37qgf/3c0/8g6rPxDK6/v9+ViQaSTXajrbvPWQshuik2WTxupeVZup4ZrqZM0mYsTRjGIZhvgeWZgxjGFiamQimJM0Wuq/CiHHT5In4BDop1wudmBtTJs+0wahxk9H9r7/w999/o1u3bhg2bBhLM6bLs2TpCvQfNlZKahINNAOgw5yFmLNgscgS5XL+YjjNWwTHeW5wEddpuetCd8x1W4b5i5eL9/IKLFy6EouXrcLiFavhvnKtzMatO3DQ0wsuC9xg5+CIkuJi3aMyjEJTaVaMIxFNpZmcPZPGNFvcdEwzVZZpSzNX+VqWlWbi+2Xk+OniNT4Bf/cbid97DJEzYZII69ZjEP7qPVRcDsYfPYfI65Q/ew3BH2JZ9z7D0L33MPzdZ7i4Phw9+o7AgKHjMGzMFIyeMAMTpphJOWxB7xuHObB1pC6a9P5hacYwDMN8P4o0e8nSjGE6GZZmJoIpSTO/UyHYvH0vdu49ZPTZte8wtmzfheXLl2PFihVYunQpNm3ahHfvxNkew3RhAgKDMH4yzQJoKUUDVcvMc1uG9Vu248BhT+zefxAbt+2UMoyWL3RXJJnbspVYvHwVliwnSbZGSrJla9ZhxZr1WLF2g8zGbTuwc98+zF3oBj9/f90jMkwjsntmDXXPfIeYtMcN0mzRtjA4rvGH5dJjn0mz5sKMXrMUKc10Y5rpS7MROmnWQ1dpRoP6d+s5GFOmzYaFhQ1mz7aCmZkVzM2sxaW1clsuU27rx8LcRmxjC0tLO1iJWFvbw9bGATbWDnB0mIOFCxfLiQBYmjEMwzDfC0szhjEMLM1MBFOSZu/fv8fbmhrU1LzrIqnBW/EapVRXV8vL+nr+MmO6NvQ+9D8ZgCmzLKVkIOFAEwCQBCNptmHrdmzduRuxpxMQEhahnXBKJEIjouQsm/JSJDwyWiwPF8vCuCqT0USdCCCroAbRqUVNKs1ImlnpSTMbJ9dmskxfminVZo0TATSVZgOGT5TSjCrNqNvlbGtn7Ni1H5u37sKWLUo26y71b+svU27vVLJ5Jzap2bQDG0V27tiDLZu3iH2Yx9KM6TToKKROL3xUwjBdH5ZmDGMYWJqZCKYkzRiGMQ4+fvyIY37+mDB1NmZaOcHC3gWzrRxhYeeC8WLZ1OmzkHz5Cmpra8UBXN03pba2juUy0yINs2fmv0WUbiKADUeUiQCaSzOqNNMWZtrSTI5ppnbPpAkpdN0z/+c/3bF87TacuZCGiNhziGxN4r6cqPgLiIxJxLat2+Q+sDRjOhoSZNS9merd34iP2Ne1St6K6+919/EnL8N0TViaMYxhYGlmIrA0YximIygvfwlHZ2eMmzIbs22cMMvSQY7nN3zcVPzVsz9GjxmPBw8e6NZmmPaBTu6LxVe/lGZXCnE4TDd75lb9Mc28WpBmqjBTokoza5Jmts6NEwHISrMJ6DFgFH7vSdLsbyxfuwNnL2Yg+vSF1iX+y4lJvITo2DPYumUrSzOmQ6FTaJLNJMpefgRKxPun4HU9ciqU0HVa9lKsROvQunzazTBdC5ZmDGMYWJqZCCzNGIbpCOrqanHuXBKmzbbAhBkWUpzNtLTH+GnmGDFhOv77+184eNBDVqUxTHtB0qyoGsjMq0bklXwcDr2K9YcTsWBrCOxXKrNnaleaNRVmtEyRZvMapZmF3uyZIyag58DR6NZrKP7Pv7tj2ZrtSLqQjqi481/P6S8nWiQm4SKiYhIVaaabTIPC0oxpT6i6rIZk2SfxvnlTj3svanG96D3SH73BlfuvZVIfvpHdne88/YTcV3V49g6oFBuSPGMYpmvA0oxhDANLMxOBpRnDMB0Fdb+MjonFtNmWmDzTUnZzc5q7CLbOCzBq/BTMnz8fL0tLdWszTNshafa4GkjPqUZ4cj4OhWRgrUcC5m8Jht1KX1i4H20mzZrLMv0oM2haOzZKs0nTLTFqwgwMHD4RPQfQRABD8H9/7oEVVGn2NWnWTI5pRa1Ei0m41CjN5JhmLM2Y9qVWhCrHaLbZh2V1yMp/h0t3XiE+86ns2hyWnIfQi7nyfRSTVoyz10tx5UElsovf41GFIs/oKJvEG8Mwxg1LM4YxDCzNTASWZgzDdCS1dYo4m2lhK2cgpIkANm3fjcnTZ+PUyZP48J40B8O0D62RZpbunnBevB62TnM1RJmIixKqNGsuzSaqlWbDJ6LXwDH4o/cw/N+fqHvmFyrNNOSYVqjC7IvSzJWlGdM+kOh6Lc6dqdvl3We1SHlYhfirT6Uk84u/A++obBwOy8Kh0Ex5Sbf9Eu4iRNxP612+/xo3Sz7Kqs4q0Q6LM4YxbqQ0e8bSjGE6G5ZmJgJLM4ZhOhoawD869jTsnedixZp1ImuxbMVK5BcU6NZgmPZBlWYZeU2l2YIt1D1TJ82WtEKaicsmY5rZ6Lpn6iYCGDhiEnoOULpnqtJMs9KsmRhrKYowa0mazZXCjKUZ017Q0TFNmHH7aS0u36tETNpjnDpzD0cirmHPqRRsO34Rm7zPYcORs9jolYStR89jp38yDgZn4njsbYRezJOVZ1kF71D4pl5WrPGpOMMYLyzNGMYwsDQzEViaMQzTWZw7fx5xp+MRGR2Fu3du65YyTPtB0owmAsjMf4uIywXwCM3EusPNpJm7J1wWr4edljTTVZl9Ls10s2fqVZr16K/rnvnT3y13z9QTYy1FX5ZpSjOxHyzNmPaCRpEsFf+7X1onhRl1xaTqskMhmdh2/JJ4vyRixf5YuO+OwuIdEXATWbIrEsv3xcr7dvhegkfYVZw6c19WndF4Z0VvlFk2GYYxTliaMYxhYGlmInSENKMyfRorQ80nXehAjQaOpdCJDU1rTqHrtIzuV6Nuox/9NvXbVrfRb1v/snnblK+1q6Z5+9Rma9tV26bno3noK0uNukz/MSlfard59NdVH5NhGOZHgz6XqYImK/8tIq8U6kmzYNiv8vuyNFOFWTNpRmPxNUgzXaVZ/2ET8LdOmv2ff/+F5VoTATSTY1rREmafSTPqnsnSjGknqkTyxf8y82oQl1EC/4S7OBicji0+F7DqQJwUZfM2B8NlfQCc1p2UcV53Cq4bA7FwWyiW743BJu8k7A9Kw4nEu0jIeorsxx/k2Gj0/mMYxvhgacYwhoGlmYnwtLQChSUvdLe+H5I0JGxIgtGzTqX6NM4FjZlRKfJKrFBWq8zQRFOaU17oQr940u0yilinXKRChLah0CxNFGqreWTbIrRNWfO2xdGbepvapfvLRSp07apta7WrhtbRb5v2VY1slyLup3bV/Vb3V22bngcKPSeUaop4jvRDy/Ufk/aR2pLt0j5T29Sm7n79lIvQ/lFoHWqD/g3ErnF3CYZhfihUaXY1/y2iUgrhEaaTZjR7Jkkzvdkzm0gzfWGmIc1oPL7pOmk2Ytx09B8+Ad37jcDvPdRKs2bdM5vJseZp3h2zeViaMR2BOEzAc/Emuf2sFuduliHw3ENZYbbF5zxWHojDou1hcNkQAPvVfrBZfhzWy481xHalLxxW+8N1YxDcd0VhvecZ7A9Mw8mz93HuxkvcfVEnj4PEfwzDGBkszRjGMLA0MxHaQ5rRx684R5FCp1QckT17r3SPefxGmcKcxrsoeF2P3Ff1yCmvk7M0Ue6LAyzKg5eNyx6J+3Mq6pBbUY88sX6+aDS/EnL7oioR0ZZ+1LZpXdpWtiPae1Aq2hahS7Vd2bYI7Ufztgu12hbL1P1W26Z9lW3TfuvvM7Ur97uuod18tV1d2zTOTjFFPDc0+C6d2MnoblP3Bvp7aDvaP2qLnouGtl+pbYv79S6VdZXkvVLaoX8DsYn8dxEXDMMwPwRUCUyfs5l5ukozPWnmsNoPls2lWXNZpp9mlWaKNDPHiHHT0G/YeHTvP1KOafY//+neWGmmJ8ZaypdkmZqYxEuIiuXumUz7Ql0o6biE3h80jplP9A1s970oK8yoisxl3SnYrvKF5TIfWCzxhvkSLxG69IbF0qOwWnZMTqhBYo26bNKYZzRZQMiFXFy5/1oel9APgwzDGBcszRjGMLA0MxHaKs3oo5eqy8rrFPGT+4rGyajF7Se1slz/euE7XBPJyq9BRm410h+9QYo4sLpyvxJX7lXK8TQodDvl4WukPqxC2qMqpOe8kevTgd1Vitj+WkGNbE8Ntau2nZn7Vm6X8kC0/UBp77LuMeh6qlhO98u2RfTbpu1pTA79tmX7BUrb6WLd1Ie030pbDfstrtMytW1ql/Y7M0/Xtq5dud9F75FNKX6PG8Uf5KxTt558kqHrN0o+iOfrvfx7aDv5XIm2KGniOZPt51Lbbz+P+Nsz6PmixxbX6bHuv6gVB8aKxCRxxl+RDMP8CJA0kxMBiM/Q5mOaNZFmbhtg5/w1aTZfzp7ZXJoNHzdNVpr16D9SVpr9n393VyrNLn5dmrVGmEXH66RZszHNHFmaMW3ktTgYoB/7Lt2pQND5RzgYlC7HKXPbEQ6X9adgu8JXvkdIkpkt9sJstyPykqLKM0v3o3K9ORsDsXRPFLYcuwCvqGzEpRXjujiOefZBqWhjGMZ4YGnGMIaBpZmJ0FZpRl0AK8Xnb3ENybJ6KZtIfF26U46z2S+QeO25HO8i/uoTOXZGdGqR/PWfTmYo4cl5MnQ98kqB7E4TTUl9LH8FjcsoltudFqEBZxOyniGRcu2ZbFdp+6l225dF2yL6bVNixHqx4uCO2qZ2T2eKiP1LFG01tkuXzxCf+QSx6cVyoFxqIyKZ2s6X7Ybp9juqoe0iuQ+0vrrP1HYCtS3aPUO5/hxnRZJulOKcXs5SrovnSzwmbUd/O7XVELVt+ZyUKKHH0SUmXTxfIrRtknjeSR7eKP4oq9ao+yidSDIMw5g69FlXVA2k56izZ2bqZs/UjWn2HdJMTgRg2zh75gh1TLN+I/F7j8H4fz/3wMr1O78qzVorzBqkmVppJvaBhBlLM6at0A+cd57VyuMQGvx/p18yVuyLwdxNQfL9YSXeH1Rhpgoz/ejLMxJn9qt85dhnqw6cxu6TV3Ay8R7O3y7DQ/EgVVzizjBGBUszhjEMLM1MhLZKM6piovHDcsohq6Qu3CqTEoeEUmDSA3kQ5Z9wRxyc3cbxuFvwibkB76jr8Iq8Jqc2PxKRhSPhWfAS173FsqPivqPR12WXAVr3eNxNuZ0vRbRBbZ1IuCsHnz0hritt35HrHI3OVtoWbVFk2yLytmib7qP2qd1jurZlu5TTurYb2r2rtC2WH4u9qbQt2tBv11PsN/0NtJza9o7KluvR+g37fFrdb2WfT1LO3EPA2fsIEM8PPUeBdF2EltPfRtvR/vmItqg99VJel/t9S4l4HHos/dDzHHTuoRSDF++Uyyo2OoGkX5f5GJZhGFOHKp8L30BW6IZdysOh4Ays9YjH/G+QZva60HUa18zaUZVm9piomz1z4PCJ6DVwDP7sPQz/+KUnVq7f8UVp1iphRmFpxnQgL2shjgs+yR8yj4rjLBr8f8nOSDnQv82K43KiDHMNYaYfVZ5ZLfOB05oTWLwjDBu9zuJw2FX542Jmfo0ceoInBWAY44GlGcMYBpZmJkJbpBl97NIsTHRwdPtpLZLvVsgqMRJlJJAOhWRgf2Aq9py6gt0nL2OXfzJ2+F3CtuMXsfXYeXGwdg5bRbYcVbLV5zy2Hbsgx9dQQ+vvFNvtOqGEfs2k9hoibu8+oWtbrE/b67fZ2PY5ed+2443tN7Sta3/3CWozRRfdPou26ZfYxrbFfn/WtrLf1DaF2v1sv0U7att7A1KwLyBVDqB7IChNPkd0m5bvFffr/z3b1f2lS3m9sW0Z3WMpyy6J7a/gcGimlH2RKQW4cv8V7j6vkwP/0skkwzCMKaMvzUIv5slZAdccOi0rYmgsJpICrZFm6nVFms2Fha0zZlraY/JMa4yZNBtDRk9Fv6Hj0WPAKPzrtz5YvaHlSrNvFWYszZiOgI7Z6EfO7KJPiE0vwZHIa9jofQ6LtofDcc0JKcH0u2V+LbSu7YrjcN0QiBV7Y8VxSLL8AfJsdinuvqiVExjx6TnDGAcszRjGMLA0MxHaIs1ohqRKETpBySp4L7s1njp7Hx6hV7HL/zI2H03C+sOJWONxGqsPxsmBZlfuixEHVzFYticK7rsjsXRPpLxUry/bHYXle6OV7IuW3QZW7o8R28bK7akdOgGirKbLg6flcrp/hVhvmdhu6e5ouO8SbVKobXEp2xaPuWxP07ZpG6XtWDlz1JpD8Q3tr9LtM0W2LbZdqmtPbbd52xTZbotti4jnY41HAtYdjsd6z0SsPZwglifIaoi19HfR37Rf/D3q86BGt+/qcyKjPpZcFivbIBm5LzBVHrzGiQPjzNwaOTHBK/E9ybNaMQxjyqjSjIYJCL2YK3+coM/UeZuCpDQzX3IUll+QZvpVZhQ5g6bjXFjauWC2tSOmmdliwnQLjJwwE4NHTgaJM+qiuXbzHpy9kNYuwqy5NKMuoizNmLZCp8o0zumNxx/lMBJUKU8D+dMEADQrJnXN/FqVWfOQhLYX2y7aGirHRjsQnIGQi3lIfVQlq9z5xzqGMQ5ImhWxNGOYToelmYnQVmlGIoZml6TxY2gcMp+Ym7JKig6eSPAs2RmBRdvC5Mxl87eEyF/76eTFdVMg5mwI0MgpzN0YiLnifhpjg9adtzlQbkfda6gNamuBOEBbKKK2S/fN26ys7yq2n7NetEWhNtVLEbrvW9qmwaPnb6b9DpLbzdmoa2/9qSaPQb+0qm3LdnVtz6e2de0rbTe2v0gcqLptD5NTvNNBq4zucefR3yPakM+FGtpvcdm43xTdY8llwbKt5XtjsNErCQeC0hFw9gHO33wpxzChGTX5AJZhGFOmodJMJ83oc1C/0kxKsyWen0kzVZY1j/64ZlRtNsvSAVNm22DcFDOMmjADQ8dMlRMCrN+6D2cupH67MGsmy9ToTwRA4o6lGdMe0JhmNFHT6cyn8I7MxkY9aWa59Girq8zU0PrWy4/JSQSW7o7C1uMX5TASNE7srScf8fIT/1jHMMYASzOGMQwszUyEdpFmFfVIeVAlB12msb6oyyIJM5I/rhsC4Lz2BBzX+MuDMhpTRokvbFce1wyd2ND9jVG2oZnPKNSWfqjdxrZ95fayrRVtb5uirvNZ203aV+7Tb9+B2lXTQttO4rmh54cuaWwQdTmtrz6eftS2G/dJaV9dTu3M3xwkxRl1G6Ux2GiSgozct8h/rUzawGObMQxjqqjSjGYepjHNWpRmixulmZYsUyOlmvM82DrOg5X9HJjZOMmxzabMssb4qeYYPWkm+g0dh007DiLxfKM0a4swo5A0i2ZpxrQzleIA4N6LWiReeyHHTt2i3z3zO6QZxcLdG3biOIR+7Ft9KF5WugcmPUTyvVfIqwSq+RydYQwOSzOGMQwszUyEdpFm5fVIuf9anKDkyun9Nxw5g8U7w+Gy4ZSUOjbLj8F6mY8s/afQr5k08xIdaKmh201C6+iFDubU7SnUnprG5br1W2i74bq6nmzzy22r7Tdso9G2/mPot9+atin0/KjPEUVdV328lttutq6I9bJjUrqRsKQuSXtOXsGpM/eUarPntXJsMx6cl2EYU0WdPTMjtxoRydpjmulLMy1RpmSBLrpumlRtRt00deJsurmdFGcTZ1hi+Lip2Lbbo0GatVWYUWJZmjEdAAmsnIp6nL9VJicoonFS3XdHyYkA5Jhm3yHNGiYFWHdSTiqw+eg5HIm4jui0x7j++L2scv+ke3yGYQyDIs3KWJoxTCfD0sxEaC9pduV+JUIv5sjB/2mcLuom6Lj2hJRBJHtoCnMKHZC1JWo7WtFa/1ui1SZFa93viVbbMqqE01umtX1rQtvSc+5CB6+7IuS4ct6R1xEjDl6v5r+VFRjifJIH52UYxiQhaVYsPuQy894i8nKB/E5ae0iZPdNulSLN5EQArZZmC3TVZvPlgPxWDq5yfDMzayfMtHKQ8mzs5NnYsdcTCedS8L1jmOknRoSkGXfPZNoben8UivcH9Q4IPv9ITkC04kAcXDcGydkzaXB/LTH2tchJAVb6yaEvVu6PkxMrnUi8J+Xcw7J6OYM3H3cwjOFgacYwhoGlmYnQnpVmoZdycTA4A+sOJyhjZKzxl5VTqgSiXyPNxMFVm6K2o4sqi9retqdoQ1zqpaFtzfW/I83abSlyPa3tWxHaniQlddWksdRoooT9AdRV4gEu3a3AQ/FvRd0zuIsmwzCmCFXSloivfinNrhTI6ue1HgnfKM0ahVljdOLMca4c34wqzsxtXWTV2dTZ1th90BuJUppd+HKaCbLmIWHWsjRbxNKMaRN03PZMvEmuFb5HdGoRDodnYf2RM+KYLUwes9Hxg5YU+1roGMxyqY/s5um2I1xOMOARmoXwywXyvUizrHOVO8MYDpZmDGMYWJqZCG2RZiReGsY0e/gGYZfzcShUkWbUPfB7Z2PqnHiabMwXe0tZ6bJOGZh327HzOBZ7E0k3aBr4OpR94q4SDMOYJlKaiRN0qqyNvFKEw2GZynfSlmA5XACd2H9ZmjWTZXN0EddlxZmTTpyJ2Di6ystZVg7Yd8gHCUlfkWZ6cqyltCzNFrE0Y9oMnS5XiIO3+6V18pjA7/Qd2UWTZv6mSY1oiAcSYNrHTS1H/ogpK92Pw3VjAJbti8EOv2Q5i/eZ689x93ktKmq52oxhDAVLM4YxDCzNTIS2SDP62H0tkl8JpOW8QcTlfHiE0AlKoqw0o7G1jFeatTbaYsqYQxVnlu7ecjKBReLfYeORMzganY3Ea89w88lHOb4I/+LLMIwp8lHk6TuqpKmRlTSe4VnY4HkGC+mHnC9KMz1Rpi/L9KOKM2dddNfNbByx3+NYy9JMT4q1FFWWNZVmZ7B1yzbYisdwnLtIhqWZ6UHHUvQjJFWBUehHLXodU96LO2V0t9V1tKK2Q6HrLUFDNMgZZsVxW+glGvcvQ1eNGSIH9KdqTO3joa/Hcgkde/iL91uYPBakMQVDLuQg9eFrFInHrFF2gWGYToalGcMYBpZmJkJbpVmViCrNIq/k43DoVU1pRiJH6wCr60RbUBljZDfNJV5ydk+q+NvodVY3rlkxsgrf4bF4W/CBK8MwpggJB/ph4Jr4rItJfYwj4Vnyh4NF1P1MnMxrSzNFiDWJljTTT8O682Fp74wDnse1pVn819NcmCnSLFmRZlu3wVY8Bksz04OOoUiEvRVXXtdBVmJRJfiLD8Bz8Rp+ShFf1jLvxOtapFTcVyo2orwUofUrdKkU278WqRKpFu3RTLL0fiCJpg/9aPZCbHv7yUckZj3Hsdhb2Hb8Atx366rNln9ftRmFtqPtXdafkhMMbD12HkdjsnE684n80Y72mwQfwzCdC0szpitDr1r1RyH6Dmme5t9zxgRLMxOhPaRZwWua3r9aDrrsGXYV6+lXfZOTZs2jLayMJSTNqCsSSTOSmFQBGJ6cJ/6d3siZ5ehgmmEYxtQgSUDSLPvxe8SmFeNIxDX5w4GcnIbGbPpMmukLMF20JJkuDrro37ayd/kuaaYly5RcZGlm4tABPlV8kUSiiSvyK+vxsKwWd198wq0nH3Gj+AOyRa4/FpfitUy3bz1R7rv19CNui9x7Xov7L2rxoPSTkpe1yKmoQ55oq0CkWBwCU/tvxMGauJCPScdt9B4RdyNfHLulPqxC6MU8HAzJwDrPRHHMoMrl7682o0o1Gj+QxhFcfTAee06lIDDpIS7drUSueGCawZNhmM6FpRnTFSEhRpXW9L1BPwpVii+wVyL0Q1G5+GIrE6FLuo+sD32/GRsszUyE9pBmheJ/GblvEZlSqHSF0f2qTwPCqlOYm540U6MtrQwZeq4tlnjBbqUv5m2mg9bT2BeQImfKSs+pkr9Yc/dMhmFMETpgokodkgxx6SWyynajV5KmNLN3nvddwqx5WpRm8S1HW5ZRLsqwNDNd6NiJhBlVkj18WY/sxx9ktf7le69w4XYZzt8sw5lrzxGf+QTxWc/E7Zc4d6MUSdmlOJv9AhfvlCP57itcuiPWv1UutlFuX3nwWs5kfuVhlTwmu1HyCfde1KKgqh4vxRuDKszVX+rp6PipeJ/cfvpJjjnmd/q2HINsxb5YuG4MVGbSbEO1mdXSY3BaexJLdkZik/c5Ka+jU4tlBShJbZJ4DMN0HizNmK4GfU+8El9Y9J1BQwrkvlJ+XHpQVof7L2txr1TkxSfcL/2ERxX1sidVufiuM7ZzXJZmJkJbpBkhXsNSmtHsSFEphTgSrvyqT7MnOa5laWaIKNLMW3bPnCMOflfsjcHeU1cQcblAHrA+f2ecJp5hGKatNEqzjzid8QRHo66Lk/YkuOmkGVU/tyjN5rQcLVmmxsp+zufSLP7L0RZmFJZmpg6dCFD3SBJmGTlvcSb7BWLSHiMm/bEcGzbo/COcOnMf/gn35HhgtIx+9Ao89xAhF3MRl16MiCsF8r7g8zmyUiw69bGcLTZcrEs/YNIYpudulOHyvUpcL/ogK8wrxePSyQT9ck/vkypx7ix/9Myrlu0dDstqPH6jHz2XHgXN5q197PPl0KQAtit8MXdTEFbsj8Mu/8s4kXhPCsGH4oSHuqMyDNN5sDRjuhL0HVUuvicKxHfUnee1yCp4h9RHb5AsvtMu0g9Gtytw/lY5zonvlAu3KnDlwRtcK3qPh+X1ePHeuMQZSzMToa3SjH4tpcFdswpqEJ1WBG9dV5jm0kzroMr0oi2xOjskzah7pvWy43J8kuV7Y+RgvLHigJy6eTyp4UozhmFMExICNO7TzeKPslKHJkHZ5C2+k9RKs2XHpDSb01yazWk5WqJMP59Js/gvR1uWURRh1iDNYptKMyeWZiYBHTfRr+ZXC97LyrHwZJ0oO3tfznTtFZUtL08m3oNv/G1ZBXY87pZY5yFOnhHLTt+CT8xN+ETfUORa/B34xd+V6wSceyDXI8lG7Z69/lwcn73H/Zd1ssqcqs3UU2Z5UiLeMA/Efedvl4m272P3yRSsOnAa8zYFy2p1kl/axztfj6U4/iP5tmh7ODYcOQuP0Ktinwrkj6wl4vCcj0MYpvNgacZ0JcjgUOXYzZJPuHzvNRKyniEqpUj+SBR07hECk+g784FMoLgdfrlArPMcqQ+r5ezQNOYnHQ8aAyzNTIT2kGY0bgYdlNH4Md5R17HZ+xyW7IyA09oTcvryH0eafSmq1NK/3jGR0kw85/Tcz90UiDWH4nE4/Cpi0opwraBG/nvRgTPDMIypQSKApBl1z6TBx/UrzZzECfxn0myOtiijaAmyz7OwUZqdS0F0grYoo5AYi9Vdfi7LLimXCSKJFxF7JhnRcWexbdt2OUsnCTOWZqYBjSf2qBxIefBGngiQ3PKNu42j0TfgFXlNJ89uyS6Nh8OzxAkCyTKxLO4WvKLEsrCr8D19W25D3Y9pPDK6HiC2I3HmJZb5J9yVFWkJV5/i4p0K8X54j8dvPu8WSbdp0oFscX+sWN87MhtbfM7LbpVOa0/BSrxfzBZ/nzgj4UbdPKninX682+57SeznLSRef467zz+hoq5R4DEM07GwNGO6CvQKpW6ZD8uAKw+q5ER2AWcfiu/Im/AIzcKBoAzsD0zH3oA0Gbp9JOI6TiTeR2xaiRRnNH4mjedpDLA0MxHaRZqJ/10rfI+4DFWaJTWRZtRV0HS7Z35PtGVXe4akGXXPpIF45UQAYZmIvJyPjJxq+Qs3SzOGYUwRkmbPP9BEAB/Ed1LJZ9KMJED7SbOFMlYOc3DwiC8Sz6cq0ksjsS3mUtMkKjmddAXh0QlYvXadfCyWZqaDKs0yc2tkNSRVj1HVGFWbkezyjs6W48PSBD7HY2/hRMI92XWSBtQ/FndTrH9XVlB6hGbikPhup0v/hDtSlpFoo22pKyd13Yy8UohzN1/i3ouPeP5RGVC5OXQcR7OgX3lQKfdhX2Ca/LFt/pYQOaGQhbuPOK7QOpb5emhSAJpYYMHWUKz1SMD+4HTZrZQmIKCuoe/4/J1hOgWWZkxXQfYYEN9Xt57W4mx2KQKSHorvtWvYdeIKNh89j3WeZ8T3SSLWUA4lYL3nWWw9dhH7AzPgF38P8VefyWNAGguNjgkNDUszE6E9pVlsRrE8kFMrzZzXnYLNcpZmLedz2dVeUaUZTQRAB78HgtIRdilXOVB9o33gzDAM09Whyhk5e2aRrnKmyZhm+pVmG2Hv0rI0+1yQNY8izCg2znOxfssuHD56QlacNc/BFuOr5Mjn8fD2x859nnCep8gylmamg/gKlgMapzyokmKXBBd1MTmhE1/euu6ZJNDoNn1/U9dGClWYUaWZKsf84m/L67QNxU+04XuaclsKsNOZT+WkADTzJlWaac2cTScoNFEATQpAlW/02NuOX8TSPdFyiAeb5cfl4P7axzFfDm1nLY4D6XjQfXcUthw7L48TqQr0VslH2YWGhzdjmI6HpRnTVaDvJBqbNpvGphXfYcfjbmPXyRQpy5bvjYXbjkgs3BYuZ3tesC1M3I7A8n2x2Oh1DgeCM+R336W7r5HzCkYxWzNLMxOhPaTZY/E/6p5JXQFkpdlRpdKMpdnX8rnsaq/IiQBWHpeD8K46EIe9ASny192M3Go5lgidWDIMw5ga9NlGYzddL3onhwwg6bDRW2/2zHaRZo3CzMG1MTTumIOIOv7YV+PqJi5F5jWNo3pdrOMo2tXfhqVZ14cG4M8TB/M0thfNiBmdUgi/+Ds4kXBX6WaZ9AA+MTdwKCSzoXqMThpIlnlFZssuKjTOGXXhpGo06qZyIvGu7MLpHS22C81EwNkHiM8sQWx6CZJulCI95w2evqlvsTskyTQ6lkvPqUbYpTzZ5XP94URxYqJ737gfFccWWscxXw5JM6o2s1vph3lblNm89wakIjDpoZwtNP81V74zTGdA0uwxSzOmC0DSjIYNuP74A2LEd5hX5A1s9rkgu/lT1fKcDYHSMTiuPSlyCs7rA2Rl9DJxP1Wc0XckyTYaD630k+GHAWBpZiK0VZrRL6Y0EcDVfHGCkv5YkWbNK82WHoW5OGgyW8xpkiVqvNs15qJNi6U+4iDVH3M3h8hBfQ+KA+vIlCLcflaHcuWfjmEYxuSQlWYtSDPqJmapmz3zS9JMW5Sp0RZmrd9ezedt6IdkWXNhxtLMNHgrjuCLxXETzfBKEwGQ4KKZJWlmTBqTjL6vqWqMumZSxRiNdXYwOBP7g9KlWKMKNBJpB4Mz5MkBiTSSah5hV+X2yvhmNEDyfTlAMnXPvPOMqrrqWxwYmU4qaAwZGkA56cZLKfF2+iXLX+9dNwXKyvU2VZstOy5ObE7BfVcUtoiTHx+x3zRo890XdXjN5/AM0+GwNGO6Cqo0o9kwo8VxHHXN3OB1Fot3RkhhZr/6hPhO8oP18uMytiv9pECjyrM1NAxAUAZCLlDvqmoUVht+0hmWZiZCW6QZfew2SrMaOdA8STM6IHLfHQOX9UHihewPMzcPzHTdiRlzd3H04/q1iOfsOzJTbDtr3m5YLNwHh+WecNtyAtuPxuNEXBaSsgqQXfAEhU+f4ElJCUpEHj9+jBcvvl+cMgzDGAtyIgBxsKVOBOBDQwYcPQe3HWFwXO0HS/eWpZm23GqehUr0BJd+VNn19SgVaVppLsr0w9Ks60OVVXTclJFbg8Rrz+WMklQlJrtiBmfgUDBVit1XxjeLzMbh0KvwO31HVp/5xt3BkfAs3YyZd+R2NLg+3U/jvkgBJ7Yj4UZdPs+I9qnK7FEZUP6VwV1IOD8R752rBTXyRzbq/kmzodOJipwNfanPt/UaWOyliLbF4voiD7H9ETiv9YP7zjBs8T4j/obbuFHyCZXKwzMM04GwNGO+BL0qtNIS+utQF3v962ro9vcgu2eq0iy1WI7pSV0zqfLZae1J2KzwFd8nx+R4m1TJbCmu26zwg8uGQFltRpPOHBfflWeul8ofZugHIUPC0sxEaI/umSXvaEyzj4jLECcoMbewYncQnFccgrXbHpgv2INJ5vMxetwUjJkwwwgy3Xgy/ssZ3cbQ3ztu0ixMnGqO6bOsYW7lAEtbR9g6OsPJ2RkODg6ws7ODmZkZNm7cqPyDMgzDdGHo2IjkwO2ntVJIkFDYdvwC3HdFiBN2ceLvrnTPdKGJAPSkmbYg089CJa7a0RZjWlmkZK52tESZfliadX3ox0YaeJ+GtThz/TmCL+SIY6ebcpZrn5hsbPe/hK2+F7DaIx7b/ZKx6+QV7D51Rf7SvuX4RewLSsPugBRs872ITT7ncTA0Qy7bG5SKjT7nsO7IGewPSZeVZ8dols2EOwi5lIuMB09wP/8J7uU15m5uCR4VPlN2TEBdR3Mq6uWMmyTuaPKBVQdPy/FR7Vf6yaEfNAVZk3jJqveZCw5i2tw9mDJnF0abL5cZa7kSE23XYIr9Oti770NQ0h1cuVuM27lFeFujNeIawzDtAUszRgs6ZnovQmN/VYkbr0XeUMRtyltxvYYum6Vatx6tX1kLvBKpECnXhW5Te/SpLq5+k0ATm8kxzRql2TUpzWj8Moc1J2R1mSrMqHcVxWrZcVltRmKN1j0UehXhlwuQmf8OT8ROGHJYIpZmJkJbpVnFx4+IvZABv4iL2H88Buv3BWCGmR1Gj5mAMeMmYfTYyRgxYhSGDxmM4UOHdFLosTo59Pd9JcM6PYMwZPBADBrQHwP690P/fn3Rs8ff6PF3d/zdvTu6i/z111/46aefYGFhofsXZRiG6dpQdy+anfDi7TKcOnMfu09cxop9MXDdECAPtppLM21Jpp+FjXHVjrYga55FSuZqR0uSNQ9Ls64PSTMa04zGD6PZLalrJXWlpC6aewJSMHbuPoxy2Y2RIuPmHcD4+QcwxnWvWLZH3jdh4UGMoXXm7MFosXziwkMYN3+/vE7LKBMWHMT4BQfE9vvl9hPFNtPdPTCjWaa6HYLFSi9cvZMn941OVkrFyQpVaiqzz2Zji895OYg/DblBM6K33E1TqSybueAQprjswmiLVRgybQGGTluEgRPnyAyY4KK7nIMhk+diqsNamM3dDDPXjTgRegYfP32lHI5hmO+CpRnTHBJJVIX1VHzmF1XR91IdcitExGVeZR3yK+tRKA6oCqvqZXW0fmg53Z8j1n9YVov7pbW4R3mh5MHLWtkejaNdJj7WyciQPGsN8ntI7ByNaaZ2z2wqzRqrzFRppo6dOWdjkJwsYIffZfgl3JXDDTwsq5OzVhvqlc/SzET4VmlWXFyCqKgonD59GomJiTgRHIxJk6Zg7LgJGDduIsaOnYDhw4Zh2BCSV0NlRgwbjhHDR4qMaGOoHQOE9l8vww2aYV/NkMGDMViXgQMHol+/fl/Mn3/+CXt7e92/MMMwTNeGur+pg5qHJ+fhUEgG1nkkYsHWENiv8oPNUu8GaaYtydQsbBpX7WgLsuZZpGSudrQEmVZYmnV96OCdxg5LvvsKkVcKpDCjrpZHwq5id0gmJu2Ox8Q98ZgsQtcn7T6NSeptuUzcFsvpNmWi7jZlirhNmbSHtjkt7qf7lEzYFfdZxu+Mw6itMVgtHluF3j+F4gTqyoPXsgqOxlJbezhBDsAsxwUUJyefCbPFXpi1yBNTXXZgtOUaDJo0V4qxfuOd0G+cs7h00UW53l/cR+k71gn9xe0BE1wxerY7jgfFI/3aXT6xZ5h2hqUZow8JLKoIK3gD3H5eK8cmT334Bpfvv8Zl8dlPn/8p4nZaDqUaGXlvG5Ke+1YuS31E61fi4p1XOH+7HOduNoaWpTx8jWuF76RMK36r/KBJQuxr0CuUZlbOLv6AGJ00W+95VpmYZm2jNFOFmRqrZcdktdmi7eFYf+QsPMKyEH65UFablYgvNkONbcbSzET4FmlWWfUGm7buwsjREzFh8nSRGRg/aTpGj52E0eMmycqyseMnY9zEqWL5NHHZNOO/GrGdMWVS18kEkYmTp2HYsOGaYuxLYWnGMIwpQQeDNGPSzScfEZ/5FMdibmLrsfNYujtSVsvYrfCBi25MM21ZRlnYNK7a0RZkzbNIydzPoyXGWsw8N5ZmXRw6GaAuLCTN6GSDTghoJkyKT+Q1eCXlYdHteiy6VQ+378hiNaKN1sb1Zj22P2isAVD38c7zT0i49hzH4m7JMWJorBjXjYGwWXlcnKB4N1Sc0eWsRUcw3m4jBk+Zh/4TSI45oe9YZ/QZ69SQ3mMcZXqNVi5lxPK+45x1Es0VQ6bMx1S71Th9Lh319XxyzzDtBUszRh8aXol+XLxR8hHJ9yoRf/UpIlMKEXIpDyEX8hB6MQ9hlwrkmJsRlwvlOJdRukReKZLL6L4QsV7Q+RycSnqIk2ce4KSchOYhgs7lyO6RNIsltU/jVxbXKBVnX4NeoWUflX2j2TM9I65jwxGa0ClcSjErKc2aCjOKnARvlZ/4ngrCin1x2KmrNjub/RL3xHcudRk1xKufpZmJ8C3S7O79hxg1cRYmzbDG5JlKpsyywdTZdphqJqJemn+eaV0m9o2xUDLdyDODYmmPmdaOGDp8BPr06aMpx1oKSzOGYUyNNyJ5lZBiIuj8I+wPTJWzKs3fGgKnNb6Ys+QbpJmrdrQFWfMsUjJXO5pyTCvz3FiamQCqkHrwsh6X7laIE5Nc+MffRaA44fCNzsb+2HtwuwssvvPtWSK2+57Muw3syVX2T4V+kS+mas3ct+LEKB8eoZnipOUMFu+IkLNgyl/6pThTxjgbZ7sRAye5ykoykmAkyXrpBFmv0Q7oMdIef4v8NdwWfwy1Rrchehlqgz+H2aD7CDuxjoPYzgljzZch5kyqeML4BJ9h2gNFmpWzNGMk1C3zYVk9rtyvkl0gaeIYmo2ZqrNoBmeKR0iW+OzPkgPxe0Zcw5GI6w2h6i9al8YOowls9gWmYc+pVJm9AWlyBkvaxk98v5Fgu3TnFe69qMPLT62rNqPvyVtPlfHSj0RkY6NXK6SZWCarzdacxKJt4Vh3+KzYv0yEXsqXlXHUrZTGb+tsWJqZCN8ize49eIRxU8x1osxWO2afZ1qXiZ0SPYk23cgzw6IxM60cWJoxDMMIaKyO5+LM/2YJVZvRJDU3sJUmBNgTjbkbTmGu+6bWSTNX7WgLMq20UZapYWlmMlSIMwaa0YukWWy6crJC45odCUmHV1Iu3O4Ai24Dbq3MYjXNJFprM/cWsLeZNCNogGc6qTp/q0zO0rkvIBVrPeIbu8gs85FdNSc5bMbAiYowo66Yvcc4oddoJ/Qcpciy7sPtpCj7dZAl/jvAAj/3N8d/+jbNT/3M5fL/DrDE70Ns8NsgawydugDRiVd0e8MwTFtgacao0CuA5NWtp3U4m10qZ14+HJaFnf5XsOnoOdm1cb3nGdklkiq8Nnqdw0bvc+K+8zKbj16Qt2k53U/jjdGPkqsPxeuSIJdt9jkvBdqx2NuITn2M9NwaFL5RJgf4GlQVRtXO1FvAKzJbPt7XpJkqzmh2zTkbArF0dyy2HbsEn9hbiL/6DLeffZLfv62Rdu0JSzMToV2lmZl2tAWVMabrCjNFmlGl2UiWZgzDMAKaCZBmKUx58BqhF3JwIDgd6w4nYvH2YMxftqUFabZQiat2tMWYVrRlGUVTirUUnSxjaWY60C/oj8rrxeuySnaJCTj7AIHnHuJU/G14nslplTBrqyhTs0RkXgvSjIbkp2n/qYtMfNYzHD99GztPXMbKA3GYvyUEzusDYbHoAIZPWyBlWd9xLugjq8sc0GuUA/4eYYc/dbLs5wHm+E8/M/y7r7kuFk3Tr/H6f/qZ46f+FvhXn9noO2EOwuIuKTvEMMx3w9KMURFfQXghB9r/hLiMp1Jq7TxxBWvF8RF1w3fbEYlF2yNk6Ppiys5ILNkVJeO+O1rcjpLL1XXpxxQa91KN244I2dYGryQ5LmbA2Yc4f6tcVlm/Vnbji1TWkTSrQ0LWc1kBt8n7vGzTaS1VOiuzZ2pJM4rlsmOwX31C7EcY1ngkymM/6kaa+qgaj992frUZSzMTod2kmZl2tOWUMaZrCzPqosnSjGEYphF50i8ODG8//YQz157DN04cGPolY9X+KCxcuQ12zs2l2cLGuGpHW5A1j7Yso2iKsZbSTJixNDMN6IThUVk9ku9WIim7FKczSqQ0OxZ1HYfiH2hKMv20hyyjkDCT0ky0t1eZPPMzqCKAumnS4M80lo131A3s9L+MtR4JWCROkibbb8AAGuhf7ZI52hE9R9lLYUZdL/9LVWVNZJkl/t3PSiyzxn/6U2zwnwG2+M9AO5mfZGzx0wAb/Czyzz5m6DHaCaExF5UdYhjmu2BpxqiQNKNK/OtFHxCdWowjkddl9djSPTGYvyUUczYEyPFfnUSc14vrIi6UDYFNo7uP1iOZRTNbUqgajLantpbvi8U230s4pqv2uvnkk5yA4GuvwpakGbVrs9xXSrOWqs0o1mIdl/WBUtxt902WP/qcuV4qxzajKurOfBewNDMR2kWamWlHW04ZY+yUmHcRafaZMGNpxjAMowUdBdA4Fhm51Yi4XADP8Cxs9k7EkjU7Ye88t2OEWXt0ydQQZs4iLM26PpUiNKV/Rs5bXLhVhrBLuTh55p4c0+zYxYIWu2e2V3UZRQozvTHNWpJmBFVs0v7SbGrUxeZE4j05lo3b1kAMmuSqzIIpu2WSMFMqzH4fbIWf+1HXS1WYKbLs3wNIktnhp0EO+HmIE/47dA5+HTEfv41agN9HL0S30W4ii/D7qIX4feR8/D5ijly/19i5CI3lijOG+V5YmjEqqjS7Vvhe/hhCn+fUJZOkFMkwqtKyWeEnuzlSbFfqxw92InRJt9V1SFJRBZj1MhFxSQPyk7SiSrRN3uekmKNB/a8//oBS8dhfexVSRfbtZ7VStKnSjKrdnNcFyMf7mjSzXHpMCryF28OUmTRDs8QxYBGuFrzDy/cszRrC0qz1tFmamWlHW04ZW3SyTE+YaUoqI8vnwozC0ozpWPgwi+mK0NgV9KsmzVZIYzPRpACHgtOwYuNe2DVIs4VdQpixNDMNaJIKmrWMpvg/m/1CHMjnywkBTp2+jf2n73WoMFOry5pPBPAlaUYnWJXif3mvanGt6B3OXH+BgKRHcN8eiL5jHKQ0U6rMHPD3SDt0G2wtxyf7tyrM+lni31RVNsAO/xnsiJ+HuuLXEQvw+9jF6DZ+Gf6YuBJ/Tl6N7lPW4u+p60XoUmSKWDZpBf6a4C7Wn4e+kxcjIiEVtbWdPSINw3R9pDR7ztKMUY6Lnr8HsgreIfJKoRwsf61HouxiSRVjJKVIOjXGp+G61bLjMvr30+D7yjpK6Da1QW3ROGQbjpyVkwLQhAPXij7Ibv+tkWY3n37C6atPZYUzibeGSrNWSDO6n8Se66YgrNgfh90nUxB4LhcZeTVSmnUmLM1MhDZJM7OWoy2pjC1NhVmXkGYaskwNSzOmo6CTJvqOocHVu9LpCu03ddGjSz5M/HGh1+6TGnEAVvwB526WIfDsXazddhB2Tq5NpZmrdrQFWfMsUjL382iKsZaiJ8r0w9LMdJAzu76qR9qjNzh/8yWiU4vge/o2DgenY1voNUWU3el4WdZaaUbQ56d4C8mumtklHxFy/hFmzdmC/tQ1c7xLQ5UZDfjfKMxorDLqgmmL/wxykFVlv4xciN/GueOPCSvw1+Q1+GvKevw9fRN6zNyCXrO2odfsHehttgN9ZLaj92yxfOZG9Jy2Ft3GumPQjJVIunJD7hPDMK2HpRmjQsfEz8SB0dX8GjmzJc2UueZQguxOSTNP2ixXpJjFEhJT3lJOydvuihSj24q0UqJIKm9xn7Kc1lWk2Uks3BYuZ76kGTepUpm6hL4UJxNfehXSfeXi4J0mcqLZMxsmAvhGaUYVb7S++64o7DpxGUHnc5Ep/uZS8fideS7D0sxE+G5pZtaVZRnFtIQZSzOmIyFZRid6FBrjpqtIKNpv+hagdDXhx7Qf9FqtFv8rFi+E7OJPOJv1BFv2esNWSrOF7SDMROa2gzCj6Imy5sKMpZlpQN0z815BToEfl1Eiu2Z6hl/Fsejr2B93t6HSrF2FmYYsU9MaaUao76OnH4DoK7kYMN4FAybOQb9xijSjbpm/DLDUqzCzkuOV/TTYEb+MmIffxy7BHxOoqmwNulNF2bTN+HvmVvSYtQM9zXaht+Ve9LU6gH42B9Hf9hAG2B4U2Y/+1nvQz2IH+s7ejF/GuMNtix/ev6dPdIZhWgtLM0aFjuGfioP5zNwahF0qwIFgRZrN2xwCB+qauVypNLOQAoqkmSLL6LoaVViRLGtcRuspgo3aoPHOFu1QpBlVmpEAu1HyCWWfvi7NysRHfHbxR8SK70jq2rnxSJKccIDGS1MnAviyNDsqK94c1pzE0t3RstKMJgNIz32Lp++VH9Q7C5ZmJsI3S7Op5pgyW1uaacspY4tOlpmYMGNpxnQk4hxJDl5dLiLO9WTFQWd+4XwvtN9VIrTPJPzoNouzHxM6CKOxmUrEYcHNx2+x30sceDnMaVGYaYoxzSxSMvfzaEoxrcyjfFmWsTQzHV6J1+HD8npcvl8px9mjLsMnEu7hmDgx2BN9q8Mry5qntdKMoPcRffan3ivGQDmemQv6jHWWXTP/GGKNn/pRlZnSJZMG+f95sBN+HbUQ3cYtxx+TVsvKsu7TNuHvGSTLdqKn2W70stiHPlYH0NfGA/3tjmCAgxcGOh7FIOejGExx9MIgew8MtN2LPmbbMMR6G5JSxR/HMEyrYWnGqNBnOB0LpedWI/RSHvYFpWP1oXg5KzJJMxqXrFGAqZVluujkmP5tS3lbCV0nWUVdI0ma0Zhmm33OwyfmphzUnwb3px+OvgYNq0EzN8emP4Fn+DU5LtnC7eFSglH79Fhaskw/JNeoi+iyvbG67pk5SHnwRs6gydJMF5ZmrefHkmamK8woLM2YjoK6t9GJ3gvxLfP8o/gyq2us3jLWwy/aL7nfIqXiy5dSKRaS8GNx9mNC/+70miitqcWxgAhFmrm2RZotUjL382jKsZYyr3XCjMLSrGtDn0t0MkAnDjSwfkLWMwSfz8HR6BvwCr+K3ZE3NSVYa9Mgyygagkwr3yLNVO7lF2PgRFf0H69Isx4jHfDLQEv8Rw76byHHMKMKMynMxlNXzLXoPm0juk/fgh4zd6Dn7N3oZb4PvS0Poq/1YfS3PYIB9t4Y5HgMg519MWSOP4bOO4Fh807KDJ3ri6EuXhjicAh/iTbWHIxCdQ29mxmGaQ0szRgVOnancTWp2jn0Yh72BaZj1cF4zNscrEiz5cq4ZdMWHMZY5z2YsuAQpi06jOmLPDFt4WF5faq8VG7T9YbbItPdjmDmEi+YLfOBPXXR3BmBdV5JOBB2FQEXHyHpZh7Sb7WcKzdy8KjsrfyejE0vgWf4dTkuGo2PRoP7K9JMW5Tpx2bFcTmxAc0KusPvMk4m3sfFO5VyciiqtussWJqZCO0lzbQllbGlCwozkabCjKUZ07nQ4RV1yawQV6icu7AKKK4BSj8Br8Uyqt4yxkMw2icSZCT4noj9pgMEKslWhV9n/srEGBcfa+twKiwOVvba0kxbkDXPIiVzP4+mGGsp81ovzCgszbo29LlUIT6D7pfWI/VRNWLSHyP4/CM5plnw2fs4ej5fGc9MREuKfSnfKsvUfI80y8kvxqDJc3WVZk74a7itbiwzpcrsp0H2+HXkAmXssinr0H36Jvw9cxt6zN6JXuZ70dvyAPpYe6Cv7RH0d/DBAKfjGDTHH0PmnsLQeQEYtiAIIxaGYKRbKEYtFnELxsgFJzF87jEMcTyMIfb7kXbjG3eaYX5gSJoVszRjBCTNaHzK1EdvEHIhF/sC0rBy/2nM3aRIMxJm1L1yqN12/Gv8Yvxtth69LTair/UWDHXahSFOO0XEpcMOke0YrItye4e4rlxShjruxDCx/nDnXRjhsgejXPdizNy9GPuFDBfrb/I9C++4bGzzT8ah4Eys80jAAin1/FstzWhGT5ptc8muKGw9dhF+8Xdw8c4rPBUnAZ35LmBpZiK0hzTTFlTGFp0w60rS7DNZ1rIwo7A0YzoCqs6hT9IycYXE06My6loEFFQpA4nSCaAxVm/R/lCXTKowo1+VcsQ+51aI6+JveCGOGKi7qbEKP6Zjocn3QqITYaVRaaYtyJpnkZK5n0dTjLWUed8mzCgszbo+1GU8p6IeGblvce5GKeIznyAqpRCh5x4gMOO5FGDfKs2+R5ap+V5pNnjyvIaZM/8YYtPQNZO6Zf4yfC7+GL8M3aesw99UXSbHLdsju2L2tjqEvrae6Gd/VCfLTmDwvAAMXRCMEW5hGLk4AqPcozB6aTTGLI/BWBlxfWk4RrsFYuQ8X9HGflzKytHtDcMwX4OlGaMiK83EcXHKwzey0nnvqVSs0Ekzu1X+sFzmIycDGGK7Df87ZiH+PWEJ/j1uMf47cSn+nr0W3Smz1mKg4w4Mc92LIXP26ELX9eIilokMpjjvwSDn3RjktEtstwsDmoWWqaHbQ1z2Yqhoc8yCQ5i/Owr2mwIxe5UvrFb66sY00xZlaqj7pto9c/HOSGzxuYATCfeRlvMGpeLchaWZLizNWk9bpZm2oDLGdDFhJvItwozC0ozpCKiEmU7ynn8A8ivFh//zOjmjza0nn/DwZb2UUFR1Ji46tdz5a9C+kBijQatp0O27z+rFfn8S+18rT1hLaoCXYr/pW8KY9pvpeGrF0VJ4XBKsHFy+Q5otUjL382iKsZYy73NhRtESZfphadb1oc/Kwqp6+Vl6teA9zt0sldKMJqiIv/9GSrDWSrOG6jKKhhBrTUia7ftGaZabX4IhUxdggJRmzvh9iLXSNbOfhRzHrNvYJeg+eS16zNiCnrN3oJf5HvS2OoA+NofRz85bnBQdwyAXfynLhi0IwYjF4RjlHo2xy+MwbkU8xq9KwPjVZzBhzRlMXEtJxITVpzF+eRTGLA5Cf0dvxKc+0O0NwzBfg6UZo9IozaoQpJNmKw+chuumIDkWmTKQ/3EMtd2Gf4xdhP9MWIL/jFdC8ozyz9ELMfVQEhyi7sA29FabY6OLets6+KbIDRkr3aV12E3Y7YyBtW5GTy1ZpobGYrOlSrO1p+C+OxrbfZMRnlyAG8UfZY+TzoSlmYnQFmmmLaeMKTpR1gWFGeVbhBmFpRnTEVA3Rhq0kyTTw5eQXzjpOdVIe/QGWfk1uP3kk6zgevZBkWvGUnFGIuyV2BmqjntQCmQ//iD3Oz3nDa4VvsOdZ7XIe1Uvu2zSfrM4+3GgU4bI+POwtG8qzbQlWfO0gzCjzPt2YUZhadb1oc8aGteMqnWzH7/H1fxqZIjPpmu51TgjLlvTPbM9ZBnFXWT+d0gzqjQbMnUhBk2aiz7jnPHrICv8u48Zfhpgg99HLsBfk1aix4zN6GW2A70t9qKP1UFZXdbf/igGOvtisOtJDJOVZeEYszQa41bGY+LqM5i87hymbLiAqRsvYeomSrLu8qJYfh6T1iZg/IoojFwYgMUHzuDlK1KQDMN8DZZmjIp+90z9SjPXTSFSmlnppBlVmjWXZjIkzUYtgFNSMdY+AVaI74/2ynJKrnZWPAZcj6XAys3zi9KMZv00W+yFGYs8Yb7UB3M2B2PD0XM4Fncb8def48aTShS/fIWnIk++kOIXFaiqpgFq2gZLMxPhe6TZ1Nk2Oill7PlclnUJYfaNskwNSzOmIyBpRoPpk3y697wOmXk1uHSnQlZHXLj1EikPXuN60Xs8KlMEFJ3CGIM4o/2mrqM0Btudp3WyK9SlO2U4d+MFzjfs9zs8KK2XY55RV05jEX5Mx0KnDFEJjdJMW45ppR2E2bxvF2X6YWlmGtSIFyF1E3/8tg654gP2YRmQ8+ITsitqvyjN2irJKCTKZO4pmS/a3Jev27FW8vxFOewWbsegifNk98xfB1nKCQD+O9gRf4xzR49p66Uw62O5F31tDqGfvRcGOCnVZUPmBWL4wlCMdo+SVWWT1pzFtI0XMWPrFczekYbZOzNgtjMTZrszxfWrmLUjHTNFZmxLwbRNFzB5bTwmLI/AhKUhePhYPHEMw3wVlmaMCh0fP6mh2TPfIoQmAqAxzQ7EY+7mENk9k8YMk2OafUWaOSQUYFUhsOxB+2dp89wXy/MA16OXYe12RDdjp7Y0I+k3znkvfp+6At1nrEYv8/UYM28/Ji8+jOnLvGG9wQ/OW0/CecsJJZt1EdedxKUaq7U+OBR8Hvklpbhf8BSPHj9XnsBvhKWZiWC60uzHEmYUlmZMRyArtkQK3wC3n9Qh7VGVFGZxGSWISy9GQtZTXLpbgeuF75FToXTVfC+3NCx0UEDVHNSl9GbxJ6Q+fI2k7Bdyn2PSHiPh6hNcvFOGq3nvZDdTqpSjbww+nDR9vk+atb8wo2iJsRYzn6WZqUCCnsZUpMlUyj4Cz8WHTw1Vn4kPTy1p1h6VZQ2yjKITZt8rzegE/PS5dPQdp8ye+SvNnNnPCr+NmIvuk1ag98zN6Gu5B/1tD2GAvRcGOh3HYNcTGDovSFddFoOJqxMxbeMFzNqWAsvdmbA9cAP2HrfhcPgu7EXsPO7A5tBtWB24BfN92TDbnYWZ21LFNucwaXUspq+JQW4JfTsxDPM1WJoxKnRc30SaNcyeGQL7Vf5yAH2SZl+rNOtIadY8JM6Wie8pVx+dNFvasjSzXnYcI+x34v+Omo9/iv3/J43LNp66lbrhH6MX4pfJy/DnrHX4Y+YacbkWvay2fJbeIj0sNmG4y26YrzqK6cs8YbnGB+ev3kfm3Xxcvv4Iz8qoH87XYWlmInyLNLv/4BHGG70008kyDWFm9NKsiTBjacYYB3RyR2OD0dhlVLFF5dxJN0qleIq8UiDH4km89hRX7lfKcc6oIo1OBA19WCZln9h56gJFY5lRZdmZ688RnVqE8OQ8RF4uQHxmCS7eLsc1caZKXUzLxEYk2xjTRpVmVvYuGnJMK8YhzJznL2ZpZmLQ5xRF/bykyVWaS7O2yjJKS8Lse6UZcf32IwyevAD9J7jit0HW+HmQHbqNWYS/p65FH/Md6GdzEAMdvTDIWSfMqDvm4giMWRaLiWvOYvrmS7DYlQ67gzfg4n0fC/zy4XbqsUgxFp54jLl+hXDxyYOD1yPYHr4Pq4O3YU7ibGsypqxPwKxNZ5D3hL6dGIb5GizNGBX9SrPQhkqz05i3JbTp7Jlfk2aJBVhV9Lng6qgs/wZpNspxF/4xZqHY38UyJMzU0O2fxd/004TF+O+kpehpsUGmh/l6DLDbJmcGHey4U2ag/Q70sdkq09dmG8bM24dxCw7IdTb7xOFc5j1EJ9/ApWsPUV9f3xB9Hty9w9LMFPhRpJmmpDKmWChhacYYG/TRT10uqesldWXMzK/BhdtliMsskdIs4nIB4jKKceFWmZRPNOg+zbRpaPlEso+6XJa8U7qVypnqbpYiJv0xwi/lIexSPqJTH0uRlvqwCnef1clumvytYfp8mzQzAmFGmb+YpdkPwHOdNFukL8soOvn1PWlJlqn5Xmn2/OUrLN3ohT5jXdBtiA1+GeqIP8UJVc8ZG9DPcjcG2HtisMsxDNGNX0azYo5ZHqcTZsmw2J0JB49bWOCbh2Uhz7Au5hU2JbzBxtNvsCbmNZaFlWFhwDO4+j2Gk08ebI88gNX+G5i9Mw3TNibBaV8Kil/yJzbDtAaWZoyKHNNMfHSm5VQr0iwwTak02xIC+9VUaXZcDqI/1G57ozTTF2d60mxNEbD8oZJlFA3Z1V5RpZnVd0iz5tEXaPrLuk1bhb/N1uGvWWulSBvosKMhgxx3or94TvpRbLfJZUOdd4nvuu2Y5OYBv7hU+Mel4WjkZeSXvMSn2jp8FLmZnQ3r6ePhaDEdTpbtK85YmnUipiXNtIVZV5FmbRFmFJZmTEdB3YhothkaH+zWk1qkyi6aLxF/9Qli0x/Lywu3y5GV/w455cbRRZMOC2m/qXosX7ffVG12VtdFkyrkYsXl2evP5fLb4n46iBCrNlR9MKZJ66WZsQgzCkuzHwFVmlE6Wpap+V5pRpy7fA0DJsxDtyG2+H2EC/6auAy9Zm1GP+t9GOzkjWFz/TF8QRBGLg7H2GWxmLD6LKZuTIbZrkzZFXOBXx5WRbzE9qQaeKTXwutaPTwy6rE7uRYbE95hRcQrLAx6AVf/Yjj65MHG4w7M92RiysYL8EvKxbuP9PMIwzBfg6UZoyJnz6ymiQCqEXIht2FMM9k9U5VmK5pVmrVCmnW0PGuUZp5SmmkJM0prpFlLUWUa5eeJ7vhzxhr8MWO1TF/rLRhot11Wo1H622wR33X0faekt+Ummb9nr8einQHYdzIRe04lYd3uo7CaOQU2ZjNl6PhIy199T1iadSKmI810sqyZNNMUVMaWNsoyNSzNmI6CDrFqRF5+UsYIo26YNNtb8r0KnL/5UlaZkXi68fij7OZYWqsIK0Oj7jcNuJ1HY5uVfEL6ozeySybJs6QbL+SkBlSFRtVoNEPoG7ERH1KaNvTv+3Vp1g7CjDKvjdJMT5i5iFixNDNpSJo1dMvUE2DfmgZhRtEQZfppizQrq3iNHYcC0XO0M7qNdEX3ySvQ22yrOJk4gKEuPhgxPwCj3MLkGGbjVydi8vqLmLUtTVaMzfF5hGUhz7HtbA28rgHBOUB4IRAoLr2yxes3GVgb/w7u4a+wIPA5XHwLYXfkPiz2ZWHypmRkPuJJABimtbA0Y1To+LzoDcRx+/9v773/ojrz//3PP/H95d3f792YYpJNdtOT3Wyy6dUSTewdO1ZAEOya2DXGXrCh2Hvvohhb7AWRZm/YUBEVnt/7dc8cGIYzwwwMZ8p5Xvu4dvrNmYHMnLm8zzkFWLztHMYbm2fqaCabZzoPBODnTDMzAxnQJJp1mZGGlr2mej16pkSzrztULZq56xrRXm/YF2/8lITXGyTg722H49v4ZHwdN8PpdHwVW+anPafgo26T8FH3yfi8529oGDNKOUbbrl1bdGrZyLRh+SujmYVERjSrGMvsFsxERjNSkxgBSsKZzDg7c70ERy8W4VBOofIRjl4owtkbaqVMve3eVXcO9uaZBjIPQT4JZPab7N/sjFpGWdYDWQ+x//wDHMp+hBNXnunNSiWuyXMkkU3l0SwAwax7NUKZ6BLLjGAmtmzeFEMHD3A8kUpgNAs/dDQ75dAshnnT10jmbnWimXDnXgE6xI7Ga192xnsNk/Bh8+H4V9REfBE9G9/0XoTv4leiTr8N+GHQNjT6ZY/eL5ns6L/n/FwMWH0Hv+4pRsoZYN1VYHO++m/zCjBXLdf434GhW56i7+oC9F58E13n5qH99DNoPv4Quk0/gnNXZAN8QogvMJoRA9kSRNbj95y9h9St5zB2QToSJ6xDt6GL0C5pLtokJFdrplllVjWkOaLZbkujmatGPKv1eRd8ljQPvfbfQPTOa6V2NXOH47TzzpvovEu5+yY69YxBx6Y/mDYsf2U0s5Dwj2bmwSwsolkAg5nIaEZqGlnVkg/bO88cO6yWf6mS2HT+dgmy1akEM9kcUsJTKK2WSTgrVMqBAeRLaZ5aWchUy3zuVgky80t0TLtW5DjgQajEPlJzeI9m5sFMNI1jZnYvH8xE0zDmSR3MxPLRTMZu364NFi1McTyRSgi3aFbV9wx5nKH8t25oXFddzMYPxLgGxtiCvK9WJZpVNZiJ1Y1mwuK1u/FRwzi880NffNhiBD5pPwlfdpuDb2OXoG7iGtQfuBk/DtuFpqN+17PMOs7IQMzCyxi0rgAT0oEU9SVq7TVg4y1g5SVg9hm1TBLNthUjce1D9F7ijGbTzqDxmENITbuEp88C+VsgJLJhNCMGOpqp9fe0s/ewcGsGxqbsReKv6xA9dDGikuaidfwstO07G5+3q/5MM2/6G8/8iWZV3TzTF2t91hnfDF+BQVeBxPNl9nUzwcW+mc7rs9RziEtAhyb1TRuWvzKaWUh4RzNnLAvTYFYWzcwjmL8ymhErkNUtCUsSxuQomfnPgFvqinylzDCT6+VLZSgiyy3x7L5zuW88ccycu60WWA52IPt5IJGP/A2bRzPzWCZWCGOe7C4GLpgZM8zE9l16oE9sbxQU3Hc8kUoI9Wgmvwf1n6FegX+oLjxw+khZKKrrRbldNieR/z5dlevkdnlsgfpv+L6oBrzrVC7L9Q9EdR+5n4wt4xmajWuMLbfL/eXxxvj31LiinHcf13VZPY1rKLfrsV3Gl8dmqTdQf6JZaSwTTYKYL/Y6CYxXX0bU09LvkbJ8cuqq63Ibr4s8b8M7RU8xds5a/LPJAD3T7JP2E/FF99n4Nm4J6iWtQ4Mh29Bo+B40H3sQbSadQKdZ5xGTehUD1hZgTFoJZh4HUtUyLM4F5p8Dph5Vf797gcFbipGw+gF6LrqhN89sPekUYuacRsYlzjIjxB90NLuej2K3I/sR+yHv4/KPxbvPOKLZmPl70PfXtYiWmWaJc9Aq3jnTzH3zTCOcBSiauepLQAv2TDNDiWZf/7wM/dVzjz/j2T7uqucgdomNZzQLR8IzmjlDmYdgFvLRrDSWBTea/f3vf8d7772H119/HW3atHH+lgnxDVntki9Zxpcp44tWOKyOqe+n5ZZb5GqkfZDf9coN29C8TQe069TNaXe062xulK92EXuUU0KXX3btWWoHF/Vt6mesXrXK8SR8IJSjmfwOJL4Ysz9llqqsxIsyE/RCgVJdJ8ptcnh8mYUlXiks85K6TWa85tyTWa8letZr5u1iZOYr1alcl33PMZtUj63ue/GBY8yLakw9rhrHGFtrjK1uk+UwxjbGP6/GPa8WXPbvKLfJZi4yruxYWcaVx8m4MoaMJ89PNMYvHVvdX5Yp+64aW3lBLeehmyU+RbNysUw0iWGVGe9UotnoLOcyqmWT0+tu6uegbpPnJcttvObZ8tqo10F+T5n5zzBwynp82GwYPon6DV9GJ+M7iWb91qPh0O1oPHIvWow7hLaTT6FzchZ6pV5F0up7+HnbUz2rbOoRYNoxYNIfwFh1edgOoP+GJ4hbfhfdF15GJ/WYlpNOYd6ea/pviBDiO4xmxECimXxupTmj2dj5e5wzzRybZ5ZGM/fNM2swmrlqFsxEiWZdZ6ahVe/gzzTzJZq5WhrN1PPrEsdoFpZEWjQzjVShZEuHgQ5moi/R7MMPP9Sh7N1338Vnn32GunXr4tNPP0XPnj2dv2VCCIlsJJqu27IL0b3i0Ds+SdkfvRMqGuOPfcUBFYz1x8Qy49yMSeiH+H6DcPeeWtP1kVCOZrLSfvOZ48i2p64+xR95j/UBOfZlFmj3Zz3EgZxHOKiUfSYeznuEIxcfO7zwGH9cKFSPcexPUfZPuO9cgT4YyR71JWDPmbvqy4BD2WeLHO033Tnu7+cf4ED2Qz3uwVw1tlLGOqrGFUvHl7HVbXps9bi9Z+/rsYzxxb0Zalz1c+Ww/b8r92c9wEHn2PLYw2qMoxeVl9TYl4pKl19+nh47+5FjbDXOHuXvavwNZwoqjWbVjWWiEczEGOXwjGIcUa+xPO8javmOqeU9frkIx5Sy7MfkOajnclgtt/xu5DnLczeWXTycW4T1By6iTpfx+KTdeHwZPRPfxaaiftIa/DhkG5qM2ouW4w+j3ZTT6Jycje4LryB++W30X1+IYdtLMCINGLlHLctuYKi6PGDjEySsLkCvxTfQdV4e2s/IRP+ludivllFmusl/x4QQ32A0Iwby+Sv/8LFHfa6lbjvnsnnmIkT1m4dWCR42z7Qomol65pkYIdFMy2gW3oRfNHOJZW7BLOSjWYVgZl00++CDD/DOO+/o840aNdKxbPr06di/fz/S0tJw7Ngx52+ZEEIim8LHT3Ds9HkcO34Cx0+eUp429YSVnqpEdZ+T6rToicyL9I1QjmayibTMsjpy4Ql2n76DzYevYc2+C1i5JwcrlKv25mF1+gV93drfL2Ld/kvYcPBKqesPXNbKbavT87AiLQfLdmVh6c7z2iVOl+7MwvLd2Viubpf7rNyTq+8v467Zd9ExthpHxtzoNv7a3y85xlbLs0yNsXRnplM17g6l+nkytoyrx97rHDvdOa5aZhnHMfbVimOrZdBj71Jjq7FWqLHn7rngNZpVJ5QZlgYz54p8nFqRH3LyCdbJMqvlWrdflvkqNh66ik2HHacbRLXccp9V6jnK67h8t7wu6jWX112pX6Nd5zFgyibU6TYZX3Sdjm96p6Bu35VoOGgTGg/fhRZjD6LtpJPoOPM8ouddRO9FNxC/8i6S1j/CgE1PMHDzE/TfWISkdYWIX3UPvZbcQHTKRXSenYP4Beo1OnATp68+1X87soksv/4T4huMZsRAopnMGN6bUVAWzeRAAMPcZppFBWemmbtGQJNoFj0rDa1jpqplnGUazMRQjmbx6nkwmoUp4RPNnJEsHGOZWEOhzFUjmslmlzKjTOLZ+++/r2eVNW3aFG3btkVSUhIyMjJw6tQpPHr0yPmbJYQQ+1Dw4BFyL99wXopcQjWayQwhOZrtqevP9GwwCVipW89i9rrjmL7yMKYuP4RpKw6p839gxirl6j8wc/VRJK89jmR1H+3aY5i15ihmqetnrDyiHzN5yQFMWrxfO9GpnJ+89ACmLDuIqcsO6fvJz5gu4646osY+gplrjmDW2qPq5x/Ty6DHVpdnqttmqGXQYy89WDp2mQf09ca4U9UyT1txWD9GHivOWiNjHdfjOsY+Xrbc6uc7lluNvUQt56J9GLf6BOLUyrWrnvaL4qt6Rd1VtdJeeqrskwn0P/YYM53LrZdPvQbJ605g9npRlvuEvk5+D/J7mbr8sOM1Ua/tJHndlRPVc9Cvg7qtz7g1aNp3PurGpqBOnyX4YcBa/DR0K5qNSkfrX4+g3ZQz6DQrG9HzL6HXomuIXZaPuBV30WflXcQuv4PeS26he+o1dJ1/EV3nXUBsynlMXnsGq9NzsfXoDRzKfay/9HEthhDfYDQjBvJPb7LrgfSMAizanolxC9KR5Ixm7fvPR+uEZJ9mmnXcnIOBF4DEcw7NglcgTcwxotk0Hc08zTYLlX2aVdD5uctoFqb4G82+b9AMDZq0RsOmbSy0bUWblSkRL+RtLqGxZmNjo5bt8ennX5aGsjp16iAhIUFvenngwAFcvXoVt2/fdv42CSHEnjx4WIjsi5G/X6RQjWaywn7lMXDkYhE2Hb6GhVvO6tgyLmUPhs/egWEztmHY9K34edY2/JK8Hb/M2o7hyhGzd2LkHKfq/Ihkh3Lbz+oxQ6ZtweCpm8ucsqn0vNw2VI0pDpupxp6pxk3eocbegeHqdIT6uaPm7tKOnL1L/yxZFvnZw2ZsLR17kJuD9bhKdR9Rlt1Y3uFq7BF6bLW8c3c6xlbLrpdbXSc/21huPdakjRiQvBtxu65r+ziNN9wt3kBCWnn7inscp67Xy331Y1zHKB3HaZpy7w0kbs3DcPWa6GWW11aWWS2r4zXZ7Vhu/Zo4llue55BpW9VrIq+LQ/0clPKc5PYBkzchaugyNOy7FD/0W4Uf9WyznWg+5ne0mnAEUdNOo9PM8+g6Jxfd5l9C9wWX0W3BFXRPuaxjWvT8C+g+5xzi5pzGsPkH8NuidB3sFm3LwJYjN3Ds8hN91GPZlyYhxDuMZsTA2DxTNq8vi2br0X3YYr15pkQzjwcCED1Es9J4VkMBjdGsooxmFuJvNKv3U0tHoDGbTVVjti+zZUXNZl2FlK0cNtF2qDlbd8QXX32Dfv2SMHToUCxduhQP1X8DBQXqnZEQQojmwaNCZF9iNKtpPUUzWWGXHfgfzH6MNfvy9Mym0fPSMHjqJiT+uhZ9xqxC3OgV2vixK5WrHI5bjb7jy0wwVNf3GbMSsaNWIGbkcvQesayCcr3cHqvGjFX3lfuXjqtMGLcKfX9dU+b4NXpcuS1OLY88treMbaIxtrHMfdRjxLKxncvsMq4xtjzXsrHVssrp2NWlxoxbg1j1GMM+v65DnwkO439br034bQP6TtygT43r5PY49VrGqMfoscY4NcYtHXutNk7GNl4T5/LJayvLLL8TOXVd7jjn6+36OhjK6yG3x8vPGL0SHYYuR6tBK9F06CY0+Vlmm6Wh5bj9aP3bEbSdfBIdpp9Fp1mZekf/XebkoOvsLPRccBHxqXmInbhT/ey1SPptHQZO2ahDpsxwW6y+6O08cQcZ+SV6U19CiHcYzYiBfAbnyj7NykUz50wz12hmdiAAH6KZq2bxq6pKNOuWnIY2sY5oZhbMRMfmmWNrPpqp524axzzJaBbe+BPNbty8hdTFy7F46UosWbbKIleXd3mYucLhUguUnzd33nzcuXMHJfxQJDXIk8JCPHn8GEXO06dFRfrU3ZJiOb5maOG6fEXG+aKy6wyLn3H+QqTCaGaNnqLZY6X8K7fsPH/F7iy9+aTMLJPI0vOXJYgekoougxegy6AF6KpOuw5Z6DQV0UMrqm9T9+us7t9pYAo6DpyvlNMy5frOg0Q1roxdbtyF6mcqy427qHTsLkp5rIzhcL7LeYfG2I7xy8bVGmOqLyRa52XjdmO5ZdyOA9TY/eeV2lld7qyu16rzXQeJKdpo9RzEbkMWoLsaR5Tzcp3c3kXdt4ssqxqnY7+56Nh/boWx5Xat3F9eF/V4x3Kp5dPLuUh/kRIdy+x8TdRzlOWW5TU0ez0cr7W6vxyVbehKtBm8HFGjt6Pdr/vRbsJBRP12GO2nHEOnaScRnZyB2IW56DYxHb2m/I6EqXvU70U9P/Vz5ef3GrFcBzSZySebwa7ce0FvpimzzULvk4aQ0ILRjBjIZ7AcPVMObJO6texAAN3U+7Rj88zZ1ZppZmYgZp+VRrOYaT4cCMCCaHbRGcJEs0jmLqNZeONPNCOE2JOHBQW4d/s2Hj54gGM7d2JWfDzm9O+PuQMGYP6gQVg8bBgWDhqsr5vdz3H97MS+2LEgBQ/u31ePzXeOZD2F6nPgbn6+fg4Zhw4iWS2XXs6kfpjbfyAWDR2qHIL5ssxq2ef0H4A5iYnYMH0GCu7dw1217MVqZZNEDoxm1ugpmhUqZUfuckTKJTvOYULqPgyctBG9hi/VoaV9v7lqhX223qeKnLoalTSngsZtbfsmo01isv5XcnfbiOp2uY9h2bhz1TiiydhJ6nalPNZsXNH72PJ453j9nBpjO29vo56n6Ziius1QXo8Kr4nL2PK6GefltraiPFaPOatsTC9jy2Mqjj3XMbZzXD228VhPY4vO++jl0OOp35/6/XQYsgTtf16DqJ9XK9eo8+vQYfh6dBm9GT1/26n+Bhaqnze79Pno5VDnJcb1+GWJnhExZt4ezN90BjtP5iPrtvqMcvxpEUI8wGhGDIzP4N2n72Lh1gyMmW8cPbNs80z5TPwigNHMVbMg5ov+zDSzYvPMARcdR/UsDWeGZsFMlNvU82A0C1MYzQgh3rh/+zZmJiRiVOsoTInugSFffYsW//nfaPxf/4N2L7yANrVqoc2f/4wW//O/+Onf/1P5X/jxP/8HDf7tP9D1nfcwoXM0RrdsieM7djpHtI6HBQ8wb/BQjGjVBhO7dsewuvXRVi178//+X/z4H/+FNs89h3Zq+Vv/+U9o/J+y7Ep1+w9q2du/9leM79QVI5u3xIE1a5wjkkiA0cwaPUUzWTPLuqtW2E/JCvtZvS8zCSHdhy1Ch/7zINGpVZ+Z+l+SDeWyq63jHbrer0XcDK+27ONuxbGNccuPbT6eq57Gdv0ZruOWjW2+3C0NXe7nyVYypjG2U+M2+QIh4wRq7NLb9Lii25iuuoxTXrl9unoN3J2hT9uoL0MS4kRjvzXysyVMdhqUgphRy/X+42T/ZnKUUtm32R3+uwYhXmE0IwYSzeQzeOfpO0jZcgZj5qchYfwadBmSCjl6prz3yj+MfBaAzTO9aRbGvOmIZntCLpoZVhrO5Hr1PBjNwhRGM0KIJ+7dvImU+CT0ee5lDBKffxkDX34N8X97E1GvvIKOr76KqNq10fr559GqVi20r/U8+rz8V3Su/Ro6KBNf/hv6qcf1/9/nMOGLr3DvunXvNQ/v38fCob+gR61XkPinFzFELfvwV/6K4W+8i5jX/oq2arnbv/wy2r74Itq88CJa1noOMS+9ip7qPm1efBW9Zfn/rJb9/17Ar//8GBlbtjhHJuEOo5k1eoxm6jvb+dsl2HniNhY4V9gTf12jN/+TmUWtJZTEzUDz2OmmtvBwvlnMNK3rZeO8L7qO5XrZbFx/x3bV/ecEYmxjzIpjlz/verlayjjGWMb5qowdZ5yfoZbdqfrda9X55i5/B/JlSGY/dP95EfpNXIfxqelYvOM8DuQ8ZDQjpBIYzYiBRLPsu8COk3f0jN1Rcx3RTDa/l80yW8XLjOk5NR7NPGkWzEQjmrVVnweOf1AxD2dWbZ7pHs3cLRfRRPUcGM3CGEYzQogntk2eghHP1caG9z/Gnk++wpg330P0X15H1Iu10eqFF9DiuefQ8rlaerZWlxeex8CXX8bMN9/HqDfexQR1ukoe9+nX2PvJl1j02l9xJyvLOXLNs3vJEvStVRsL3ngf6Z99g12y/G+/j+jX/4p2L0noewEtZZZZrefRQT2Xbi+9iPl//wjT3/sIw//2Lua98yG2ffQ5fv/iO6z521tY8OmneHDzpnN0Es4wmlmjp2j2QH1ny9TRLB8pm05j9Lzdegf5sq8s2fRPZmFJ/DECEvXVsjBmKCHL9XxY6IxkZtfLZkOdBqfoAy3IUT1Tt53DobxCRjNCKoHRjBiYRbP4cWv0/icd0WyWPv08SNFMNNsHmkSz7sl70TZuhg573qJZMGaaebM0mqnnxWgWpjCaEUI8sevn4Vj70mu4VKchVn7yJTrX/gs6vfQXdHmxNjrVegHta9VC9AvPI7F2bQx/+WUs/evrOPyPj7H8nb9j83sfIfPbenjUoxcKWrTGyX9+hId5ec6Ra549ycmY9XxtnPnie+S374hFH3+Oji+9gk61X0XXF19Bl+df1Mvf/cUXMPDl2hj3Sm2cr/8D9n76JZa+9QEO/usr3I7qgMLOXZHz0Sc40K0bCu/dc45OwhlGM2v0FM0K1He2c/nF2HEiH/M3ntbxQ47KKDuNb5soK8KO2UXmYYiaWxbHXK0QnsJZ9TchX+Y6DJinj9w5dv4eLNudjUO5hbj+GGA3I8QzjGbEQA4EkK1WZ3eeuouUzWchR6/W0cw500xme3vdPLNuzUczV42A5k80C4WZZhVkNAtvGM0IIZ64sm8fspq1xLZ/fY6hf3sX4994D3Pe/hBz3/0Hfnv9DQx+uTZGvvIKZr36Cla99w6yvvoS9+vUw6EvvsKZz7/GwwaNgD59gLZtcW/4cDy9f985cs1z/fRpHG7TDre+/A6bmzRBwutvYfRf30Hy239Hyrv/xNQ33sLQl1/GKLX8KW+9gbRP/4WCn37E+e/rYP8nn+Oqehy6RgMxMbj7zTd4fOyYc2QS7jCaWaO3aJZxqxjbj93CvI2nMHLOLj1zSA4CIPutckQzszBEKxqhgczM2Onqb2OmPjpq/LjVGLdgLxbvyER6xn1cfAA8cf59EUIqwmhGDIqU+kAAZ+5iwRZHNNObZ8pRjn3ZPLOuI5p12pyDQReAJJfAVZMm5bpunhme0SxBPQ9GszCF0YwQ4o2iw39gyj8+xsK/vYd9n3yJzPo/IbPej9j94cdY8OqrWPXmmzjw+ae4MKAfHm/ahOL163FXeX9+CopbtUJJ0ybA+HGAhcHM4NGpU3jQozuG/+U1JL/1AXZ+9BlO12mI7PqNsP9fn2HxX/6CtX97Dad79UDBxg1q2dehYN063Fq0CA/Vshc3agSMGYsnctvt285RSbjDaGaNlUWzbcduYu6Gkxg5eyfix64si2Z6P1ZmgYiWGcEzyjwZO0PPgOik/k4kmskMxZTNZ7Dr1G3kFTCaEeINRjNiINFM3jP3nL3nPHrmHvT9dW3pPs1kM3ivm2fWdUazLTkYdBFIynTqFrkCrUSz7mG0T7MKMpqFN4xmhJDK2NWtOw6/+w/cadwczwYMxLPOXZH34Uc49PWXyOneDQ/S0lBy9Yrz3k5KioGD+1GSthsIYnAqycrEquYtsOvdD3G1XkM8SUxCce9YXP3sCxz97mtc6tUdRbk5znuXUXL4MIp37QKuXnVeQyIFRjNr9LZPM0c0u+WIZnMkmq0ujWayE3jzUERF06BkA1vETVdfhpLRaeB8xIxegeHJOzBn/UnsOn0HVwvVe7bz74sQUhFHNLvNaEb0PzBcLADSzxZg0fZMjElJd0SzoYsQ1W+ejmY+zzRzjWYumkWv6irRLDo5Da17O46eGU77NNMymoU3jGaEkMq4e+YMrnXphuKGjYCuXfUmi3eiu+J+2m48u6Q+NUKc/NOnkdU2Co/r/KA+rdTy9++Pgl698GBfesXYRyIeRjNr9BTN5OiZciCA0n2a6c0zGc3cbe6i47J5TLKNsbIfm1no0H8+eo1chl9mbdfRLD2zADdkJz2EEI/oaKa+8zGakafKSw+A9HOOaDZuQTqSJqxH9LDFaN9vnvocnq2PVPx51MgqR7MKugWwqqij2ayyaGYWzERLotkvjGa2g9GMEOILzzLO4cmAAUB8H2DbNhTfCK/3jSenTqGof3+UJMQDaWlq+W84byF2wxHNIv9zL2SjmTLrTgl2nryNlE2ndDSTze0cBwKYrfdbZdcDAbhGMtfLDk1Ckp0sjWbz0HvkMoyYs1NvWnQw55GOZkwBhHiG0YwYPFNeVh/E+zIfYPGO8xi/cB+SfluPbsMW63+UkGjm0+aZ/kQzV91imK+6RjNPs8xEKzbP/OaXZRh4yRnCRLNI5i6jWXjDaEYI8ZWSBw8c+yYL05WucF9+EhgYzazR20yz83dKsEtHM8dMs/hxq7xGs/LxKHJt4bT85elUdIlmcaNXYlzKXizblY3DuYW4wR2aEeIVRjNiINHsyiNHNFuyMwu/pv6OfhPXo/vPS0o3z6zRaGboFsUqMxSjmRzVszScGZoFM1FuU8+D0SxMYTQjhBBiJxjNrNHbPs1k88ydJ/ORsvm03qF7ZTPNmqqV5Ka9p0akzZy6ni+veg2o+jtwHD2zvTOalR4I4PRtZN95igdPnqLIxMdFsjESIfamuLgYlxjNiEJHs8fA/vMPsXRXNiYs3o/+EzfoaNa+/3wdzaIS5+KzdgHcPLMSzSKZuxLNusk+zdQ6QShFM1e9hjO5Xj0PRrMwhdGMEEKInWA0s0bv0awYO47nY74x02yszDRbiHZu0UxmW/3UczK+6jgaX3ccQ0PRTtb5TeexqNNtAhrGTEHzpFnoMGwheo9fhYEzN2DE3A0YbeKQaaux48Bp518fIfaE0YwYFCuvFQEHsguxfHeOjmb9Jm5Aj1+WosOAlIAcCKA6mgUzUaJZjzl70cZ59EyzYCZasU8zT9GsXDgzZDSLDBjNCCGE2AlGM2v0FM3uq+9sGfnF2K6Pnum6T7OK0ayFOm3QfSLebzEYH7QcQkPRVhaqf+Zg/ffwXvNBeLf5QLzddADeatIfbzbujzeUcurqXxr2xbfRY5CRyyMhE/vCaEZckU3aD+U+xvI9uZi4eD8GTNqko5nMNJMg1bbvbHxu4UyzCroFMyOa9Zqbjii1jhDK0czVCgFNPQ9GszCF0YwQQoidYDSzRm/R7MzNYmw9cgNz1p/AiNk7HTPN9NEzzaOZxJK/txpKqfYffvhh62F4pX4Cpi/b6fwLJMR+MJoRVySaHc4twsq9eZi45AAGTN7omGnmPBCALzPNOm/JweBLQL9Mh6bxK5DmAjEp+9FRLZ+EMU+baIZSNCvnOaV6HoxmYQqjGSGEEDvBaGaNnqLZPWc02+KMZsOTd6DPmJXorKNZMlrGzSgfzbr9hvdbDCqb2RQRysy5MFNm+4Wp7zUbhM/aj8DqHYedf4WE2AtGM2IgfwHX9UyzIqyQmWYSzSZtQs/hy9BxQIr+HHYcCMD7TLPSaHbeRffQFUhzgfhFhxA9cD7aJc3zGs2CtU8zrzKahTeMZoQQQuyERLMcRrMa12M0KwbO3HiGzUeuY/a64zqaxY1ZiU5qRbhNQrJa6Z2hgxlnmtGA2XoY3moyEJ+0H4E1u4/wAMrEdjCaEQMdzYqAQzmPy0WzHsNln2aOmWY6mkV5iWbf9kTnrSbRzCWeBTyg5aoxlx9FzM+LddyTfa8xmplc6Y+MZr7DaEYIIcROMJpZY2XRbIszmv0yawdiR5tEs15T0CJxLtol/44fp+zAT1N2lrNRdZ1aDaf5Z2PD6f7ZJIg2dXdGGDtzJ5opf5y8Fe1S9uHwXYYDYi8YzYiB/AVcewwczCnEijTZp5lEs42l0Uw2zXTMNPOyeWZl0cxV9/hVRRNzgKFrTiFxzEp0HboIbZPmmM424+aZfsho5juMZoQQQuwEo5k1etun2Vnn5pmz153Q0cxsplnTHpPQclAqYk8BcWeUp8vbx1Dd5o/x4ln/dT8Clj/qlWVRrTD7Y6KoHqdPRfUFxFeT3M3yz37uZvtnf0+qLz7+OMCTuf450Gmcei2mXXT+MRJiExjNiIEcPfNqIbDfefTM3xbvR/9JG9HTefTM0plm3jbP9CeaGarPMLMY5qsSzUZuzsSwyRvRe+RydBiYgtZqWRnNqiGjme8wmhFCCLETjGbW6CmaFajvbBm3irHt2E3MdR4IoM9Y5z7NTKJZzPESxJwEYk44jDVU1/ljnKFEOAlvcuqDfVw1Ip1rtPNgvLsS34xoV4kJrhqhTnSNdyb2NdMIdq4r7x5MdFeCnRHtjPNelCOeVdD40qO+NGmNyx40NuupoPHFy4h4xmUP9vdgH7VMM9WXHULsBKMZMXim1NEs6xGW7c52RrMN6P7zEkT1m4c2gZ5p5knne7vZ54CZCdnAhF0X8OvcXUicsA7dhi1GVNLcCrPNrIpmgy6rz031eeLr5yujWZjDaEYIIcROMJpZY2XRbPvxW5i74WS5o2fKYe6No2eaRbNqBzPRGcN8sVws88NyscwZwny1QjDz0QqxzGyl3Yseg5mPeoxlPloukLlq9mXLi2ahrNQs9ftRY85UX3YIsROMZsRA/gKuFblunrnfsXnmL0vQ3nn0TIlmX1Rnn2b+6ny/N/tsMExQ798zDlxH8orDGDZjO+LGrELnQQv18sp6g2s0s2KfZhLNXD8DKw1ocpt6HoxmYQqjGSGEEDvBaGaNvs00c4lmgxeibaLnaBbpwaxcLBPP+m51glnAY5no9mXHF8uFMkOzL1deNA1lovqyZchoRuwIoxlx5eZT4I+8J1iVfgFTlh3CkGlbETNqhY5Q7ZLm6h3tf9lxNJ6X8GRFNHPR7PNBjFe3LTh5H8u2ZWD8wn16k1IJfVH95qJVfNlBAYIVzQw9hjO5Xj0PRrMwhdGMEEKInWA0s8bKotnWozcxd4Nj80yfo5mcKktnnTkve7LSWObl9qpEs6AHM7MVdS9WCGaiy8p/ZQYimFkVyxjNiJ1hNCOuyLFQTl59ho2Hr+l9i46el4Z+Ex37CpPNHnsNX4ZvO48NSjTTOj8LXD8r5L17VdYTbDt0BTNXy5G3ZdcOq53rDnNCJpoZVph5JufVc2A0C1MYzQghhNgJRjNr9HgggGLHgQC2Hr2BOetPqBXfHWrFt/JoFnPcZL9mrqr7VGZpJKtM13jmDGKVWZVYJlY1mJWLZaKxYu6jdotlhoxmxI4wmhFXCpXZ90qw99wDvYnmtJVHMGpeGobN3I4Bkzdi6LQtaNB7Mmp929NrNBtySb2vqvdcs/fngOn8fIhTnzNbrgJ/nC/Akp1Zel9sA6dsRq8Ry/UBDIzZZqESzQxL45mongejWZjCaEYIIcROMJpZo6dodq8YOH39Gbb84Th6po5mYxwHAii3T7Oek9ByYCp6HSlBr2NAr6NuynXK3obHy4yVwCaq67UnXDRuU5Y+Vu7jcr08Pk7d19doFpAZZmd9tzrBrDqxTKyRWCaafVnyYoVQZmgSylxlNCN2pLi4BJdu3GE0Ixo5gubtp+qz+EYxdp64g+VpOZi/6QxmrTmOyUsPYeaqo2g9YC7+9FV379FMvZfq91bn+6/Ze3WglGi29x6Qc+sZNqv1hznrT2LU3N1IGL8W0UMXo53eTHOWjmZWHQjA7DPSkxLMGM3CGEYzQgghdoLRzBo9RbO7am391LVn2HT4mlpBP6ajWdwY2ZfKfLRVK7vlZpoNTEWPwyXocQToccjNww57Gv5RZi9D9bgKutxe+lhlL1GuPwr0VsYeUyvpJ+FxE81yoUx0hrDKLBfKxLO+W9VYViGUiSYr9Z6sEMpEtfLvq8GMZO4ymhE7wmhG3HmqvF4k4ewZ9mc9xI4T+dh46BrW/n4ZW/64iR6jluN/v4j2LZqZ6XyPNns/r4qx6nPnyEPgjlrm/dmPsDwtV++PbajeH9tKPVtdjqYZlTQP33YKnZlmparPnkT1PBjNwhRGM0IIIXaC0cwavUezp2rl/CpmrTmKn2duQ+yoFeg4YD7aJMjmFTPQLGYamslMswGp6La/BN0OANH7gK7p6nSvUzmv7KauF6N/V6eG+4Huonqcu8Z9ZDz9WBlDxlLn5TE9DjoiWu8j0LPUZNNPs3DmbywTAxbMMnw34MFMrfj7aijFMkOJZrMYzYjNkGh2mdGMuCHh7O4z4NJDx75G5R+0jl4qwrn8YvSfvgn//XmXqkczQ+d7ttn7uz/GqM+fEwWOWXKZ+SXYfvw2UjafxfiF6fron73VeoTsjy16yGLUjZ6A52XTUrfgFQgZzWwKoxkhhBA7wWhmjf5HsxS0jp+FFrHT0dwlmnXdU4Iue4BOO4EO25VbS5TqdJvDjuo6rbpd7tNph3IX0FncXVF9H6V+jOvj1ePkMV3Vz5KYJvFMZp7FHHVsqhmsYFYulokZvhvQWCaqlX5fNQ1motsXIW+Wi2Sumn0xq8QBTuPVMjCaEbvBaEa88Vh5X/1p3HkG3CgCCtX5UQu24T8+CUA0c9X5Hm72fl+ZRjQTrj8Bjlx6gnX7r+jNNMctSMeQ6VvRd8I6JE3YgMax01Drmx4VglcgZDSzKYxmhBBC7ASjmTVWGs0OG9Fse1k0S5iFFnGOaNZcoln/VHTcXoKorUDbDcVovfYJWq1+jFarlHK6ugit14hP0GbtU7RZV2bbDc+07dyU6/R91GMcjzUe/0Tf1n5LiY5qMputxwFnODsGPdusNJZVJ5id9d1gBDPTWCaqFX5fDaVYJhrBjNGM2BVGM+Irz5ynE5dsw78HOpoZOt/Tzd7/PekazeRABhceAAezH2LDwatYuPWcPpjBuAX7MHnpQbQflILnvu5eIXgFQkYzm8JoRgghxE4wmlljZQcC0Ps0W3vMazRr0T8V7TYUo9Wap2i+tABNU/PRKOUGfpp/HY3EFOWCG2i84CYaL7yFJqK6j9h08R1ts8V3y6mvT72NJgtuqcfd0OPJ45sszNe3t1rxEG3XP9Wz2KL3OMKZbKqpZ5sZ4cwZw3zR6mBW1VhmGKmxTJutfidqvFlXnH+MhNgERjPiL1OWbMO/1VQ0M3S+x5t9HrjrGs0EqTyyWanMONtx4jY2qnWKVXsvYuOh60iYuB7/92V0heAVCCWafTt8GQarzxGzz1CPqs9DRrMwhtGMEEKInWA0s0Zv0ezMjWfYcuQ6Zq89jl9mbUfc6BXoNLBsn2al0axfKlqtLETTxXfx49yr+GFGLupOzsT3k846nOiwzuRz2rpTMlF36nltvalZqDc9G/Vn5JR3eg7qTcvS960zOUOPU2fKOXXdeTSYmYdG6uc0W3IPrdc+1ZtvyoyznoccBwYw9m1mFsfMDEgwy/DdCsFMNFt5N7FCLBPVSr4vVjeWieUimatmX7Qq0SyWGTKaETvCaEb8xZJo5qrzPd/s80F0j2bCI/XnfLUQyLpTjIybz3D62hOcV+fHL96L//6sa4XgFQhdo5nxGaiDmFo+r8p91PNgNAtTGM0IIYTYCUYza/QUzQrUSq7scHjbsZuYu/6kjmaxo+XomSlo29clmvWajOZJC/Tsrx/nXkGdKZn4ZtxxfDHyED77+Xd8OmwfPh2ajs+G7lOXxd/x+S8H8Plwh18MP4gv1X2/HHW4vCMP44sRB9V99+vHfKbGkfNy32/GHkOdSRlomHxR/9y265+h8w7HAQJijpQdFMDbbLNyoUx0hrDKLBfKxAzfDUYoE6sby8rFMUOzL1M+6C2UucpoRuwIoxnxF8ujmbvOzwTj88IsmglyMIMi5aNitX6nlMsLNh3Ef8qyuwWvQGgWzdw1jWhynXoejGZhCqMZIYQQO8FoZo2eotkD9Z1Njsylo9mGkxgxeyfixqx0RrPZaNlnJprLwQAkmiUuQJMFN1Fveg6+HnsMnw5Lx0cDtuPDhM34e58N+HvceodyXozfiH8kbHLYdzM+TNyi3Ip/JjlV5/V16jZ9H3V/eZycl9v+NXC3DmrfTzyDH2dfRovlDxC1uURvptlLZpsdd0azM54NSDATMyq3qrFMrE4wq5FYJpp9capEX2OZIaMZsSOMZsRfKotmXbblYKh6L5X3XbP35oDp/HyIVZ9RZtHMjOXbDjgOYuAWvAKhL9HMUIcyUS07o1mYw2hGCCHETuhodpnRrKb1FM0eOqPZ9uO3MG/jKYycvRN9PEazFDSadxXfTz6nZ4P9s982vB+7Fu90X4a3Oi/Cm51S8WZnVxfhrS6L8VbXJXgregne1i7FO92WlSqX5fq3uqr7qfvqx6jzMuYHMWvxUb/tOpzVVT9T9nkmm2nKgQH0bDM5kqaXTTQDEswyfDOgwcy5gu+L1YllYrlI5qrZlyUvVohlokkkc5fRjNgRRjPiLz5HM+P9Vb0Hm71XB0p/otmyraERzVyVYMZoFsYwmhFCCLETjGbW6CmayT5Izt8uwY7j+Zi38SRGztmF+HGr0GXwAtNo9tPcK/hu4ll8OmSvnhX2drel+FuH+XitTTJebTUDr7ZUyql2Jv4itp6Fv6jb5T7atrPxets5WuM6fR+tun+bWXi93Rwd3t7rvRofD9iBr8ccQcNZeWix7IE+oma3dOcBAU4C8SazzfyNZWLAgpmovlBUZoVYJpqs3JtZIZYZqi8BvmgaykSTL0eVWZVYZshoRuwIoxnxF7+jmYtm79vVNVZ93oRzNEtSnz1J6nkwmoUpjGaEEELsBKOZNXqKZnKo+PN3SrDzRD5SNp/GqLm7kTBuNboOXoi2iR6i2W9n8MngNHwQswZvdlqoY9fLTSfjxUa/4cWfJjhOnb4kNlY2maitXepkp47LLzUWy+77crOpeK11Mt7ssggfxK3DZ8PSUXdShj4iZ7v1xei6G+h52HEUTdd9mpWbXSae9c2qxDKxKrFMrGosEyMhlhkmqJ+dzGhGbAajGfGX6kSzUtX7tNl7eVWsWjRzLG8grW4068poFp4wmhFCCLETjGbW6C2aZd8rwe5Td7Bg8xmMnrcbfcetKYtmrgcCSFyARvOv4vvfzupo9n7v1Xij4wK82nI6Xmw0AbUajEOt+qPN/WGM9vlSxzotu864r5x/oeF4vNxkMl5rOwdvd1umN9OUAw/8NO8KWq8pQqcdQI8DasX9GEpnmoVDMKsQywzNVupNDHgwc/si5IsVYplo9gXNiwOdMpoRO8JoRvxl0qIt+P8+7IDaEouqGs2cmr2v+yujWUUZzSyE0YwQQoidYDSzRk/R7LEyV634pp26h4VbMzB2/h4kjl+DrkPcZ5pN0kfPlAMB1J1yXh/l8oO49XqmmWySqaNZ/dH4c50RyuFO5bzTuj7o8rha9UbhxR9/xSstpuMN9TPkIAFfjTyEBjNz0WLFA3TYWoLu+xz7NetzEtULZWKGb1YllBlWJZSZRjJRrfD7omkoE92+AFVmdSOZaIQyVxPUWMlXHX+LhNgFRjPiLynr9uLtJv3wSv0+eO6bnqgtAaqK0cxMs/d9b/ofzbqqZWU08yqjme8wmhFCCLETjGbW6DWa3Qf2nLmHVGc06+uMZu3colmLfgvRbMld1J+Zhy9HHdJHvny761K81maW3rzy+fpjdPD603c/O/z+F/80HqeUeCYzzl5uNhl/7TAfH8Su1Zto1puSiaaL76D9Zsd+zcrNNDvruwEJZuK5yq1KLDOsajAzDWWi2xefyqypWDYwxyGjGbEjOprdZDQjvnMj/x6Ons1Dr1Ep+KLjcLzwfQxqfdsLL37XGy980wOdt+VgyBX1vq3eX6ukei8W+/lojPosCqVoNkR9jph9hnpUfR4ymoUxjGaEEELsBKOZNXqKZkVKiWZ7z97Hom0ZGCczzX5di+ihqWiX5B7NUtFyxSP8OO8avptwCp8MStM76pcDAbzSbKrepPK5eiPxp+9+wf+5BDDX856U+7j65+9/Qa0fRusYJwcOeLfHcnw8cJf6uSfRZMEtfTCA0plmfkazgASzc75Z1WBW1VgmBiKWiTUdzBjNiF1hNCNV5fa9BziddQmdhiajw+BZ+KLDL/jfz7qg09YcPdvKLHD5pHpv1rpcJ1HJk73V59lxH6PZ0i378e//qtnNMyWaGZ+BZp+pFZT7qefBaBamMJoRQgixE4xm1lhZNNtz5j5St57DuJQ9SJxQFs1axc9Ei7jpaN5zElr0T0Xb9U/RdMk91J+Rg69ktlnfLXg7WmabJesd+Mt+y/5UZ0Rp/HINYmZxzLjONZ7p898P15t7vvTTBH0Ezre7Ltb7Nfv215NosjAf7TeVIHqvWnF3HgzAl00zy8UyMcM3qxLMKsQyQ7OVdzcDHsxE9eXAH6sbzCqLZYxmxM4wmpHq8uDRY+2GPUcRPSwZ807dxOrbwIobgXW5BxddAy7KVHUfWL7tIP7t48544dveeOG73qbxq6qaRTNDs8/XUuV29fnDaBamMJoRQgixE4xm1uht88wcY6bZ9nMYt2Avkiasc0azOaXRrFnPSWjZP1XvS6zV6qdoNP86vp94Bp8O3YsPYtfp/Y7Jvs0kcskMMb2Z5vfD9WaXf5bTOo7zhuVuV+dlc0zjspw+p66T/Zq98OOv+EurGTrMfTxgB+r8dgZNFtxA23XP0FmOoHkQiD0OfQRNs1BmaGUwE6sSy8SqxjIxnGKZIaMZsSMSza7cvMtoRgJCSYj/HZ3NuYKGvX/FS9/H4PUG8Xjh216o9U1PvWmpWQjzR2/RTNRxTH2WVlCuV58/jGZhCqMZIYQQO8FoZo3eZprlPQD2nSvA0p3nMWHRPvSfuB7df15UMZoNSEWX3SVotxlovqwADZIv4Ouxx/Bx/x14r+dKve+xv7SajtqNf8PzDcY6j5g5utz5WvVHoVYD59EylcaRM5+X2+qp2+RUHqOue6HhONRuMhmv680zV+DjATvx7fgTaDTvGlqvdjuCppdoFpBgds53qxLMKsQyQ5eVf0+axjJRfSHw1RqJZaJJKHOV0YzYEUYzYjdOZV3C3FW7MW9tGj5pOxTvNumHvzZMwJ+/7qFjmlkQ88XKopmr5T535bL6/GE0C1OuMpoRQgixEYxm1ugpmj1VXioE9p9/iOW7szFxyX4MnLwRPYcvQft+c0v3aSbRrNXAVHTbV4JOu4A2splmaj7qTcvClyMP4Z/9tuHd3qvwRqcFeK31TLzSfKr25aaTUbuZsukkdV7ZZBJekevkfLMp+na5Tnb4r0/lsnaK3k+a7M/szc4L8UHMGnwyeDe++/Ukfpp7Ba1WFZZGs7jjQB+JZiabaPoby8qFMsNzlVuVUCYGM5SJ1YllVYlk7vZVP5PRjNgNRjNiZ9KPnMOOA6cwbu56fNhyEF77IR5//qoHnv+2F2qbhDFv+hPNyqk+exjNwhhGM0IIIXaC0cwaPUWzYuX1J8AfeY+xet8FTFt+GENnbEXMyOXoOGA+WsfPQguJZj0c0azHoRJE7wM6bANarX6Mxik3UH/KeX00Tdl8UjbVfKf7MrwdvQRvdknFGx0X4G9K2XxTzsvpm6Xn1W0d1KlxfefU0tv0eeXbaqz3Y9bgX/134MvhB1B3Uob6mdfRbv1TdNnl3DzzGNDnZPloVi6WiRm+6W8wqxDLDDMrtyqxTDSNZaL6AuCr1YllYnVj2SCnjGbEjjCaEQI8KizC8Yw8JP22BN90GYnvlKWbbn7fG7XrxGjNYplhdaKZHPigax9Gs7CE0YwQQoidYDSzRk/RTL6y3X4GnLz2DJv/uI45605g5JxdSBi3Gl2HLES7xDlo2WeGY6bZoFTEHClBz0NAlzSg/Vag9SpHOKs39Ty+HnMUnw8/oPdz9q+Bu/FR0jZ82HczPkzcin8mbcVH/bY6L29Rl7fhn3K92E+dF9V95DY5uIC+XV3+ZOAufDYsHV+NOow6E8/gx9mX0GJZATpuLUG3dKCXWhYdzU6VRbOqxDLRn1hmGJBYJpqt1JsYcrFMdIlhvmgEM0YzYlcYzQgp417BI1y8lo8T5y4gauAMtB80A59GDcOfv+qu93smAc3TJpyMZjaF0YwQQoidYDSzRk/RTHikzLonR9C8hyU7M/Hb4t8xcPIm9BqxFB0GzNOzzRzRbCFij5Wg9zGg+0Ggyx6gwxZHOGuSehs/zr2ChskXUX96Nr7/7YzytN6c8vsJjlPx2/HHnacn8J26XkLYd+p+ct9vxzvu8/2EU+r0lL6uzsSzqDclEz/MyEWjlOtoubwAURuK0WW3Wob9QK8/yh8IoFww8zGalYtl4jnftDKYmcYyUa34+2qFYCaqLw2+GshYxmhG7AyjGSHmFDwsVOuFj7Fm52H0HDEPcWMW4I2f+up49sJ3vbSus88YzWwKoxkhhBA7wWhmjd6i2TPljSfA8ctPsPHQVSSvO65nm/Udv8ZxFM3EOWjea4qeaRZ7ogSxJ4HeRxz7E+uaBnTcDkRteoo264rQelUhmi++i6aLbqPZsgI0W3ofTRcrF91FsyX39WV9uuSePpiAqK9bek9f31Rdb5xvvvyBGkOdLnuAVquL0G5jMTrvVD9zr+Nn91LLEHsKiJc4dk6ZCSQqbRHM1Aq/P4ZaLDNkNCN2hNGMEN948uQZZq3Ygd6jU/BK3Vj8rWECXqoTozfh1JtyMprZE0YzQgghdoLRzBq9RTNBZpvlFDiOoikHBJiy7CCGTtuK2FEr0HnQArTtMwNthy5G3MkSxJ0CYk8Avf9wbB7Z7XdlOvTsLwlo7bc8Q4etxYha9wDt1hag3ZoCRCnbq8va9eq89qG6j3Kt3O9+6e1R6jZ5nDw+ap3c7wE6bnqELtseIXrnI3Tb/RC90h+i94GHiPtDeeQh+hx9iHjx2CP0PVtiGsjcrUowq0osEwMazES1wu+LAY1lYo5/moWyUnPV70GNyWhG7AajGSH+kX+vAPPWpGHxpn1o2meiPvLmW42S8N8ftceXw5ZgkPockX84ExOcGpddr0+Uz0/12aPNA7rGJzCahSM6mtngywMhhBAiyDT8nMs3nJcil1CPZvLV7U4xcOZGMXYcv4UFm09j/MJ0DJq8ETGjlqPLwPnoNHIF+pwsQZ8zQNxJRziTTSN7HwV6HXZsLin2OKRO05+gef+paBIzAk1jx6BpXJnN+qhT0eU618v6dpfzzZynzeOVCQ5bJiqTnPYbg1bKlokj0XrIRCSceqJXjM1CmRiQWCaqFXBvBjSUZfluhVAmZvtudUKZaRxzVX1RcZXRjNgRRjNCqs7prMvYkn4cSzfvx4dNEtFy4npMuAmMyXM4WlSfL+6OuQD8kvkECYdvou+RfPQ9ehtdY2LRoekPpg3LXxnNLITRjBBCiJ1gNLPGyqKZ8ER59TFw9EIRNh68gnkbTmJC6j4MnrYZ8aOXI2biRvQ55YhmsuN9mXFWGs+OATFHlepUrut1oBA/NmmF+t98gx/q1FPWNTl1v87T/Ry31Vfn63+vTr83Tl3P10W9b77DDw0aodfWTCRmwbHJZkZ5AxLMMis3ZIJZtu9aGcsMGc2IHWE0IyQwHD+bi4zLt3H5KXBJrb9483IRkHYqE+17x6Jr3yRlP3SKaoWOLRubNix/ZTSzEEYzQgghdkKiWS6jWY3rSzQTZDPNCwXAH3mPsfHQNSzYcgaTlhzA2Dk7MXTBvrJodtolnLko18ntsX8U4qfWHfFDvQZo0LCxZcrPa9FnSOk+zjwGM3W7L1oVzExjmZjlu1UNZhVimZjju6aRzNAklLnKaEbsCKMZIcEh48RRtKz3Jdo3rufYLLNlI9N+VRUZzSyE0YwQQoidYDSzRl+jmSBra5fU//2RV4htx25h1d48LN1+DrN3ZOtoFifBzFAimetlpeyYP+5oIX5q1RE/1G2ABg0aW6bMOmsc1c0RyjI9BDPxXOVaFczE6gSzqsYyMZjBTExUP282oxmxGYxmhASHUyeOo1WjeugQoNllrjKaWQijGSGEEDvBaGaN/kQzQdbYLj8CMm4+w4krj3E0twDbMx8h/jTKRzM35faEDHWfY4Vo2KI96n5XD/Xr/Vip9QJknW/qoFGHnqXRrEIsE89VbkCC2fnKrU4sEwMazHJ81zSSGZrEMXcHO2U0I3aE0YyQ4MBoFiEwmhFCCLETjGbW6G80k69yRcqHxcD9Z8A95Zn7jigW6xLJ3IOZjmbn1OXjhWjWvhsa/9QUTZq2sszGDRujZfcEx+yyTKWfwaxCLBPVON6sEMvE85VbnWBWIZaJ2b5ZIZaJOb5pGslcdQljnjSCGaMZsSs6mt1iNCPEahjNIgRGM0IIIXaC0cwa/Y1mZlx/AiTI/srcNsk0YplW9nd2Fuh76immL1yJ5NkpmDU31YuLMGveIiT76WwPzp2TgmlLNuhAVm6zzHOV628sE/2NZaahTMzyzXAMZa6RzF0dza45/8AIsQkSza4ymhFiOYxmEQKjGSGEEDvBaGaNgYhmt4sqRjP3YCbGKRNPF2PnodP4/cBRpB847uYxp+r8wRPY54+HTuD3wyc9eujQcWw9klkWzc75phXBTAxYMMv23RoLZrmVaxbKSs1Tr70ah9GM2A1GM0KCA6NZhMBoRgghxE4wmlljIKJZvls0MwtmrtFsc/pR7E7bj517Dpp4SLtrr3/uTj/s1b17D2LD/lOOaHaufBgzMyCxTDxfuVUNZuVimWG2b4ZqLDNkNCN2hNGMkODAaBYhMJoRQgixE4xm1hjoaOYpmPkWzRzBbKdJFPOqSSRz159oViGYiZnetTKWiVUNZlWNZaJpKDPM9a5pJHPVJZgxmhG7wmhGSHBgNIsQGM0IIYTYCUYza6yxaOYSy3yLZjUXzMTSaHbOezQLSDATz3s3oMEs2zcrBDMxxzdNQ5lhrmdNA5mrbrHMkNGM2BFGM0KCA6NZhMBoRgghxE4wmlljIKNZnBHNXEKZq56jWc0GM7HK0SzTu2EbzHJ80zSSGeZ61zSSuWoSywwlms1hNCM2g9GMkODAaBYhMJoRQgixE4xm1hioaNb3NBDnJZiJptFsb83GMsP09IPYeOC0DmNm0SyUY1mFUCZmV25VQ5loGsnEXO+axjFXTQKZ4RAXk9TPYjQjdoPRjJDgwGgWITCaEUIIsROMZtYYsGgmUcyHaJZkEs0khO12jWLeTHfs9D/NLYp5dJ+6r3Kfh2jmbywT/Y1lYsCCWbZvVjWYmYYyw1zPmgYyV51hzJOuwYzRjNgVRjNCggOjWYTAaEYIIcROMJpZY0Ci2ROg79nKo1kfpUSzLelHkJa2H7v2HsRuP01LP+SXe/aJjmi26UD5zTMrBDMx07v+BrOqxjJDf4NZhVgm5vimaSgzzPWuaSgT87zrHssMGc2IHWE0IyQ4MJpFCIxmhBBC7ASjmTVaFc1kn2dyKptnzjuUh4UHs7DwULZHUyuYg9TDnl1k5h9irnaJujz36OXSaOZvMKsQywzPe7Y6waxcLBOzfbMqwcw0khnmetc0lBnmedcslhnqaMbVXmIzGM0ICQ6MZhECoxkhhBA7wWhmjVZGs1LVfStTxis1o3ITXT1Xuf4EMzEgwUzMqlyrYploGsrEXO+aRjJX87xrFspKvaBeczUGoxmxG4xmhAQHRrMIgdGMEEKInWA0s0Yropl7MIv3Yrl4llG55eLZucoNSDA7X7nVjmWG2ZUb8GAm5nrWNJIZ5nnXNJIZXiiT0YzYEUYzQoIDo1mEwGhGCCHETjCaWWNNRjP3WFaZls4uy6xcf2NZhVAmZvlmtUOZmFO5poFMzPWuaSBzNc9c0zjmrkssYzQjdobRjJDgwGgWITCaEUIIsROMZtZYU9GsXDAT1e3eLBfMRGcY82S5YCY6w5gnywUzMdO7VgWzcrFMzPZNf4OZaSgzzPWuaSQzzPOuaSQzNIllhhLN5nK1l9gMHc3yGc0IsRpGswiB0YwQQoidYDSzxkBFMwlfMaccR8gUJZwZ57XqdjNdN8t03UwzPsNc080yxXMVTXA5XyGkZVa0r8v5CiHtvHfNQlq/rMqtENKyfbNCSMvxrllIKzXXu2YhrdQ875qFtFIveDZRjc2ZZsRuMJoREhwYzSIERjNCCCF2gtHMGgMZzWSmWU3PMBMtnWEmmgUxF6syw0z0d4aZv7PLRNOZZYbuAcxN05llolkAc2o6o8zVC54d6mI/9XM404zYDUYzQoIDo1mEwGhGCCHETjCaWWMgotnDZ8BG9atar5RTf9zk6s3gutnMW36aX7lb3L1duVtDxTue3VYNt7u5Wf2swwXOPzBCbAKjGSHBgdEsQmA0I4QQYicYzawxENGMEEJI9WE0IyQ4MJpFCIxmhBBC7ASjmTUymhFCSGjAaEZIcGA0ixAYzQghhNgJRjNrZDQjhJDQwBHN7jGaEWIxjGYRAqMZIYQQO8FoZo2MZoQQEhowmhESHBjNIgRGM0IIIXaC0cwaGc0IISQ0YDQjJDgwmkUIjGaEEELsBKOZNTKaEUJIaMBoRkhwYDSLEBjNCCGE2AlGM2tkNCOEkNCA0YyQ4MBoFiEwmhFCCLETjGbWyGhGCCGhAaMZIcGB0SxCYDQjhBBiJxjNrJHRjBBCQgNGM0KCA6NZhMBoRgghxE4wmlkjoxkhhIQGjGaEBAdGswiB0YwQQoidYDSzRkYzQggJDRjNCAkOjGYRAqMZIYQQO8FoZo2MZoQQEhowmhESHEI8mjXQ0azw0SPn4hJPXLt5B3lXIv/LAyGEECI8LCxSn3s3nZciF0c0q2MatKywaYNvGc0IISQEkFZ27fZ9lKj/EUKs47SOZnVrJpp1atMM1TGqRSPERHfE3bt38eTpMzwuekJNlNcm7/J1ZOZess/r9CTQPg15i2gQfRIBmj0vajef+OvT0PTps2LcuVegP/eePntmeh+vmj3XQGr2M/1Unlex+l406uchaNX4B3RU60XBsPmPdZE8Y6peaZR1jHD0aZhq9lwCovw341T+zqhhMaUh67PiYv05fuHaLRSp/46fmdyH2kWz9y/qrutnnUfdPx9NFI4fO4Y2TRqgU+umpt2qOv6/7p2iUB27tm+DPr264/S5HORevomsC1eDaraZF4OvzDA7cOQk9h44gryrN03vQyvzWsibU5mXrPI6NTHXVy8Hx7zLN3xXvacE15uWesEf1XtsoLwYcG8FXrVyXhUvVdXrvnnl5h1k5FxQn3t/4Ko6f+l6fo15uYK3K/eGb17xojyvW3cfYNSIn9GhTXPT9SQrjGrVFDOmTcXdh0X6dZfl8t+75b1lrdcCaf69cl4PtLet9Uap92vGOw5verQg8N4ND29V2wfB8R4Nhvn3H+r/Zg8dO6X/m8q/99D0fgHX7G8gpDX7b8X8v8GI0uy90EJvVOZtQ7fPiBr0eoAsKHyK3w8cRKc2LUzXk6rr/+vctjmqY/uWjRHTrSPy8+/gUWERHhY+piY+elyEnAtXcTbrgj5vdp9w8xENYYtodVT/jdLQsjBifBL+FvmmzDjOV18a5HNPzpvdJ1CWm+VssTKrYPQvQ9Ba/nVTrRcFwxY/1UPyjCkoelpsuoy++bS86nlFiq4zOWlVfBZ4n4aHZjMaKPWmfCbJP4TKe4/Z7dSzZv8NRpRm74UhqdnnQGj75Fkxjh09ijZNG+qZYWbdqjr+v46yzWc1bNdU9mkWhceF3KdZZVy/dVfPXCCEEELsQGFhkfrcu+W8FLnIPs2a/1hH70cjGDb5gfs0I4SQUED2aSazdrhHM0Ks5fTJ42gpB2Vq0ci0W1VHHj3TQnj0TEIIIXbiIY+eaYk8eiYhhIQGcvRM2SycR88kxFpC/OiZjGa+wmhGCCHETjCaWSOjGSGEhAaMZoQEB0azCIHRjBBCiJ1gNLNGRjNCCAkNHNHsPqMZIRbDaBYhMJoRQgixE4xm1shoRgghoQGjGSHBgdEsQmA0I4QQYicYzayR0YwQQkIDRjNCggOjWYTAaEYIIcROMJpZI6MZIYSEBoxmhAQHRrMIgdGMEEKInWA0s0ZGM0IICQ0YzQgJDoxmEQKjGSGEEDvBaGaNjGaEEBIaMJoREhwYzSIERjNCCCF2gtHMGhnNCCEkNNDR7DajGSFWw2gWITCaEUIIsROMZtbIaEYIIaEBoxkhwYHRLEJgNCOEEGInGM2skdGMEEJCA4lm12/fRwmjGSGWwmgWITCaEUIIsROMZtbIaEYIIaEBoxkhwYHRLEJgNCOEEGInGM2skdGMEEJCA0YzQoIDo1mEwGhGCCHETjCaWSOjGSGEhAaMZoQEB0azCIHRjBBCiJ1gNLNGRjNCCAkNGM0ICQ6MZhECoxkhhBA7wWhmjYxmhBASGjCaERIcGM0iBEYzQgghdoLRzBoZzQghJDRgNCMkODCaRQiMZoQQQuyEjmZXGM1qWkYzQggJDRzRrIDRjBCLYTSLEBjNCCGE2AlGM2tkNCOEkNCA0YyQ4MBoFiEwmhFCCLETjGbWyGhGCCGhAaMZIcGB0SxCYDQjhBBiJxjNrJHRjBBCQgNGM0KCA6NZhMBoRgghxE4wmlkjoxkhhIQGjGaEBAdGswiB0YwQQoidYDSzRkYzQggJDYpLSnD9DqMZIVbDaBYhMJoRQgixE4xm1shoRgghoYFEsxuMZoRYDqNZhMBoRgghxE4wmlkjoxkhhIQGjGaEBAdGswiB0YwQQoidYDSzRkYzQggJDRjNCAkOjGYRAqMZIYQQO8FoZo2MZoQQEhowmhESHBjNIgRGM0IIIXaC0cwaGc0IISQ0YDQjJDgwmkUIjGaEEELsBKOZNTKaEUJIaMBoRkhwYDSLEBjNCCGE2AlGM2tkNCOEkNCA0YyQ4MBoFiEwmhFCCLETjGbWyGhGCCGhAaMZIcGB0SxCYDQjhBBiJxjNrJHRjBBCQgNGM0KCA6NZhMBoRgghxE4wmlkjoxkhhIQGjGaEBAdGswiB0YwQQoidYDSzRkYzQggJDRzR7AGjGSEWw2gWITCaEUIIsRMSzfIYzWpcRjNCCAkNGM0ICQ6MZhECoxkhhBA7wWhmjYxmhBASGjCaERIcGM0iBEYzQgghdoLRzBoZzQghJDRgNCMkODCaRQiMZoQQQuwEo5k1MpoRQkhooKPZXUYzQqyG0SxCYDQjhBBiJxjNrJHRjBBCQgNGM0KCA6NZhMBoRgghxE4wmlkjoxkhhIQGjGaEBAdGswiB0YwQQoidYDSzRkYzQggJDRjNCAkOjGYRAqMZIYQQO8FoZo2MZoQQEhowmhESHBjNIgRGM0IIIXbCEc1uOi9FLoxmhBBCBEYzQoIDo1mEwGhGCCHETjCaWSOjGSGEhAaMZoQEB0azCIHRjBBCiJ1gNLNGRjNCCAkNGM0ICQ6MZhECoxkhhBA7wWhmjYxmhBASGjCaERIcGM0iBEYzQgghdoLRzBoZzQghJDRgNCMkODCaRQiMZoQQQuwEo5k1MpoRQkhowGhGSHBgNIsQGM0IIYTYCUYza2Q0I4SQ0IDRjJDgwGgWITCaEUIIsROMZtbIaEYIIaEBoxkhwYHRLEJgNCOEEGInGM2skdGMEEJCA4lmNxnNCLEcRrMIgdGMEEKInWA0s0ZGM0IICQ0YzQgJDoxmEQKjGSGEEDvBaGaNjGaEEBIaMJoREhwYzSIERjNCCCF2gtHMGhnNCCEkNGA0IyQ4MJpFCIxmhBBC7ASjmTUymhFCSGjAaEZIcGA0ixAYzQghhNgJRjNrZDQjhJDQgNGMkODAaBYhMJoRQgixEw8LHyPvKqNZTctoRgghoQGjGSHBgdEsQmA0I4QQYicYzayR0YwQQkIDRjNCgkNYRLPCR4XOxSWeuHbzDvKu3HBeIoQQQiKbR4+LcOHaLeelyCUUotmcmVOdS0MIISRYSCq7dY+TSQixmtMnT4R+NHtcyGhWGddv3cUFG/yLOyGEECIUFj3Bxev5zkuRy5hfhjCaEUII0eTff+Q8RwixijOnToZuNGvf4id0a98aG9euwo4tm7Bt03pq4vbNG7Fq1UosX7EC27dsNL0PpbT6bqWUhoTbNm3AxvXrsHLVKn3e7D7h7rbNG7Bz62YkxfZAm6YNTIOWFbZu8gN+HpSEtB3bTZeTUkqpRW7cgHXr1WeeOjW93QfN1m8ppZ7dvWMrFsyZiXZNG5o2q+pa7WgmSs1r0/gHtG5cn3pQV8/WzdCpbQt93uw+lNLq24pSGhK2VJ917Zr/hC5RrfV5s/tEilEtGpnGLKvs2Lqpfq1bNTJfPkoppdbYukkDdI5qo0/NbvdFs/VbSqkX1fpP2xoKZmJAohmtXAmL0R3aoFundjUyZZBSWqbZl0pKqbW2V591ndu1QI8uHfR5s/tQSimlkaT8I0aPLh31qdntlWm2XkspDa6MZhbJaEap9ZqtjFBKrZHRjFJKqd2sTjQzW5ellAZfRjOLZDSjNDiarZRQSmteRjNKKaV2s6rRzGwdllIaGjKaWSSjGaXB0WzFhFJa8zKaUUoptZtViWZm66+U0tCR0cwiGc0oDZ5mKyiU0pqV0YxSSqnd9Deama23UkpDS0Yzi2Q0ozS4mq2oUEprTkYzSimldtOfaGa2vkopDT0ZzSyS0YzS0NBspYVSGngZzSillNpNX6OZ2ToqpTQ0ZTSzSEYzSkNHs5UXSmlgZTSjlFJqN32JZmbrppTS0JXRzCIZzSgNLc1WYiilgZPRjFJKqd2sLJqZrZNSSkNbRjOLZDSjNLQ0W5GhlAZORjNKKaV201s0M1sfpZSGvoxmFsloRmno6b4yQykNnIxmlFJK7aanaGa2HkopDQ8ZzSyS0YzS0NR1hYZSGjgZzSillNpNs2hmtv5JKQ0fGc0sktGM0tDWdYWHUlp9Gc0opZTaTfdoZrbOSSkNLxnNLJLRjNLQ133Fh1JadRnNKKWU2k3XaGa2rkkpDT8ZzSyS0YzS8NBsBYhS6r+MZpRSSu2mEc06MZpRGjEymlkkoxml4aHZChCl1H8ZzSillNpNRjNKI09GM4tkNKM0fDRbCaKU+iejGaWUUrspsYzRjNLIktHMIhnNKA0vzVaEKKW+y2hGKaXUbjKaURp5MppZJKMZpeGp2QoRpbRyGc0opZTaRWO9kdGM0siT0cwiGc0oDV/NVo4opd5lNKOUUmoHXdcZGc0ojTwZzSyS0YzS8NZsJYlS6llGM0oppZGu+/oioxmlkWYT/P92gGOc9z0t4wAAAABJRU5ErkJggg==;" vertex="1" parent="1">
          <mxGeometry x="-680" y="130" width="1229" height="622" as="geometry" />
        </mxCell>
        <mxCell id="epqBVLBEWbcsxhhhyzYF-2" value="TV" style="shape=callout;whiteSpace=wrap;html=1;perimeter=calloutPerimeter;aspect=fixed;size=10;position=0.57;fillColor=#fff2cc;strokeColor=#d6b656;" vertex="1" parent="1">
          <mxGeometry x="-680" y="440" width="60" height="40" as="geometry" />
        </mxCell>
        <mxCell id="epqBVLBEWbcsxhhhyzYF-3" value="sofa" style="shape=callout;whiteSpace=wrap;html=1;perimeter=calloutPerimeter;aspect=fixed;size=10;position=0.57;fillColor=#fff2cc;strokeColor=#d6b656;" vertex="1" parent="1">
          <mxGeometry x="-490" y="520" width="60" height="40" as="geometry" />
        </mxCell>
        <mxCell id="epqBVLBEWbcsxhhhyzYF-4" value="chair1" style="shape=callout;whiteSpace=wrap;html=1;perimeter=calloutPerimeter;aspect=fixed;size=10;position=0.57;fillColor=#fff2cc;strokeColor=#d6b656;" vertex="1" parent="1">
          <mxGeometry x="-580" y="380" width="60" height="40" as="geometry" />
        </mxCell>
        <mxCell id="epqBVLBEWbcsxhhhyzYF-7" value="chair2" style="shape=callout;whiteSpace=wrap;html=1;perimeter=calloutPerimeter;aspect=fixed;size=10;position=0.57;fillColor=#fff2cc;strokeColor=#d6b656;" vertex="1" parent="1">
          <mxGeometry x="-500" y="380" width="60" height="40" as="geometry" />
        </mxCell>
        <mxCell id="epqBVLBEWbcsxhhhyzYF-8" value="coffeeTable" style="shape=callout;whiteSpace=wrap;html=1;perimeter=calloutPerimeter;aspect=fixed;size=10;position=0.33;fillColor=#fff2cc;strokeColor=#d6b656;position2=0.13;base=10;" vertex="1" parent="1">
          <mxGeometry x="-510" y="450" width="60" height="40.01" as="geometry" />
        </mxCell>
        <mxCell id="epqBVLBEWbcsxhhhyzYF-9" value="dinnerTable" style="shape=callout;whiteSpace=wrap;html=1;perimeter=calloutPerimeter;aspect=fixed;size=10;position=0.57;fillColor=#fff2cc;strokeColor=#d6b656;" vertex="1" parent="1">
          <mxGeometry x="-450" y="150" width="60" height="40" as="geometry" />
        </mxCell>
        <mxCell id="epqBVLBEWbcsxhhhyzYF-10" value="glass" style="shape=callout;whiteSpace=wrap;html=1;perimeter=calloutPerimeter;aspect=fixed;size=10;position=0.57;fillColor=#fff2cc;strokeColor=#d6b656;" vertex="1" parent="1">
          <mxGeometry x="-458" y="210" width="45" height="30" as="geometry" />
        </mxCell>
        <mxCell id="epqBVLBEWbcsxhhhyzYF-11" value="chair2" style="shape=callout;whiteSpace=wrap;html=1;perimeter=calloutPerimeter;aspect=fixed;size=10;position=0.33;fillColor=#fff2cc;strokeColor=#d6b656;base=6;" vertex="1" parent="1">
          <mxGeometry x="-540" y="170" width="60" height="40" as="geometry" />
        </mxCell>
        <mxCell id="epqBVLBEWbcsxhhhyzYF-12" value="Fridge" style="shape=callout;whiteSpace=wrap;html=1;perimeter=calloutPerimeter;aspect=fixed;size=10;position=0.33;fillColor=#fff2cc;strokeColor=#d6b656;base=6;" vertex="1" parent="1">
          <mxGeometry x="-150" y="310" width="60" height="40" as="geometry" />
        </mxCell>
        <mxCell id="epqBVLBEWbcsxhhhyzYF-13" value="kitchentable" style="shape=callout;whiteSpace=wrap;html=1;perimeter=calloutPerimeter;aspect=fixed;size=10;position=0.33;fillColor=#fff2cc;strokeColor=#d6b656;base=6;flipV=1;" vertex="1" parent="1">
          <mxGeometry x="-170" y="570" width="70" height="46.67" as="geometry" />
        </mxCell>
        <mxCell id="epqBVLBEWbcsxhhhyzYF-14" value="coffeeCup" style="shape=callout;whiteSpace=wrap;html=1;perimeter=calloutPerimeter;aspect=fixed;size=10;position=0.33;fillColor=#fff2cc;strokeColor=#d6b656;base=6;" vertex="1" parent="1">
          <mxGeometry x="-150" y="390" width="60" height="40" as="geometry" />
        </mxCell>
        <mxCell id="epqBVLBEWbcsxhhhyzYF-16" value="Mircowave" style="shape=callout;whiteSpace=wrap;html=1;perimeter=calloutPerimeter;aspect=fixed;size=10;position=0.33;fillColor=#fff2cc;strokeColor=#d6b656;base=6;flipV=1;" vertex="1" parent="1">
          <mxGeometry x="-134.99" y="470" width="44.99" height="30" as="geometry" />
        </mxCell>
        <mxCell id="epqBVLBEWbcsxhhhyzYF-17" value="sink" style="shape=callout;whiteSpace=wrap;html=1;perimeter=calloutPerimeter;aspect=fixed;size=10;position=0.33;fillColor=#fff2cc;strokeColor=#d6b656;base=6;flipV=1;flipH=1;" vertex="1" parent="1">
          <mxGeometry x="-120.00000000000001" y="540" width="44.99" height="30" as="geometry" />
        </mxCell>
        <mxCell id="epqBVLBEWbcsxhhhyzYF-18" value="NightStand" style="shape=callout;whiteSpace=wrap;html=1;perimeter=calloutPerimeter;aspect=fixed;size=10;position=0.57;fillColor=#fff2cc;strokeColor=#d6b656;" vertex="1" parent="1">
          <mxGeometry x="-40" y="190" width="60" height="40" as="geometry" />
        </mxCell>
        <mxCell id="epqBVLBEWbcsxhhhyzYF-19" value="bed" style="shape=callout;whiteSpace=wrap;html=1;perimeter=calloutPerimeter;aspect=fixed;size=10;position=0.57;fillColor=#fff2cc;strokeColor=#d6b656;flipV=1;" vertex="1" parent="1">
          <mxGeometry x="40" y="330" width="60" height="40" as="geometry" />
        </mxCell>
        <mxCell id="epqBVLBEWbcsxhhhyzYF-20" value="consoletable" style="shape=callout;whiteSpace=wrap;html=1;perimeter=calloutPerimeter;aspect=fixed;size=10;position=0.57;fillColor=#fff2cc;strokeColor=#d6b656;flipV=1;" vertex="1" parent="1">
          <mxGeometry x="460" y="340" width="60" height="40" as="geometry" />
        </mxCell>
        <mxCell id="epqBVLBEWbcsxhhhyzYF-21" value="bookshelf" style="shape=callout;whiteSpace=wrap;html=1;perimeter=calloutPerimeter;aspect=fixed;size=10;position=0.57;fillColor=#fff2cc;strokeColor=#d6b656;flipV=1;" vertex="1" parent="1">
          <mxGeometry x="480" y="616.6700000000001" width="60" height="40" as="geometry" />
        </mxCell>
        <mxCell id="epqBVLBEWbcsxhhhyzYF-22" value="Recliner" style="shape=callout;whiteSpace=wrap;html=1;perimeter=calloutPerimeter;aspect=fixed;size=10;position=0.57;fillColor=#fff2cc;strokeColor=#d6b656;flipV=0;flipH=1;" vertex="1" parent="1">
          <mxGeometry x="430" y="530.0000000000001" width="60" height="40" as="geometry" />
        </mxCell>
        <mxCell id="epqBVLBEWbcsxhhhyzYF-23" value="officechair" style="shape=callout;whiteSpace=wrap;html=1;perimeter=calloutPerimeter;aspect=fixed;size=10;position=0.57;fillColor=#fff2cc;strokeColor=#d6b656;flipV=0;flipH=1;" vertex="1" parent="1">
          <mxGeometry y="510.0000000000001" width="60" height="40" as="geometry" />
        </mxCell>
        <mxCell id="epqBVLBEWbcsxhhhyzYF-24" value="table" style="shape=callout;whiteSpace=wrap;html=1;perimeter=calloutPerimeter;aspect=fixed;size=10;position=0.57;fillColor=#fff2cc;strokeColor=#d6b656;flipV=1;flipH=0;" vertex="1" parent="1">
          <mxGeometry x="60" y="640.0000000000001" width="60" height="40" as="geometry" />
        </mxCell>
        <mxCell id="epqBVLBEWbcsxhhhyzYF-25" value="computer" style="shape=callout;whiteSpace=wrap;html=1;perimeter=calloutPerimeter;aspect=fixed;size=10;position=0.57;fillColor=#fff2cc;strokeColor=#d6b656;flipV=1;flipH=0;" vertex="1" parent="1">
          <mxGeometry x="-40" y="640.0000000000001" width="60" height="40" as="geometry" />
        </mxCell>
        <mxCell id="epqBVLBEWbcsxhhhyzYF-26" value="kettle" style="shape=callout;whiteSpace=wrap;html=1;perimeter=calloutPerimeter;aspect=fixed;size=10;position=0.57;fillColor=#fff2cc;strokeColor=#d6b656;flipV=0;flipH=1;" vertex="1" parent="1">
          <mxGeometry x="480" y="200.0000000000001" width="60" height="40" as="geometry" />
        </mxCell>
        <mxCell id="epqBVLBEWbcsxhhhyzYF-27" value="coffee jar" style="shape=callout;whiteSpace=wrap;html=1;perimeter=calloutPerimeter;aspect=fixed;size=10;position=0.57;fillColor=#fff2cc;strokeColor=#d6b656;flipV=0;flipH=1;" vertex="1" parent="1">
          <mxGeometry x="480" y="270.0000000000001" width="60" height="40" as="geometry" />
        </mxCell>
      </root>
    </mxGraphModel>
  </diagram>
</mxfile>
